<?xml version="1.0" encoding="UTF-8"?>
<svg version="1.1" viewBox="0 0 2000 2000" width="1280" height="1280" xmlns="http://www.w3.org/2000/svg">
<path transform="translate(794,209)" d="m0 0 4 1 7 4 6 3 3 3 1 9-4 16-9 17-7 17-2 8 6-2 13-13 6-3h7l6 3-1 5-10 13-13 24-10 13-7 9-2 6v39l2 42 3 49 3 25 4 10 12 18 12 14 9 14 14 18 10 14 10 13 13 16 7 6 7 4 12 3 14 1 4 2 4 5 7-1 9-6h2l2-9-2-3-14-4-12-6-10-9-6-10-4-17v-17l5-38 2-9v-38l-10-8-8-7-5-6 2-5 4-6 5-3 15-1 14 3h6l11-9 11-5 14-2h18l14 2 18 6 23 12 14 11 9 9 8 14 2 6 2 12-1 9-3 21-2 7v8l5 8 2 5v10l-5 12-5 6-12 6h-9l-1 6-9 11-3 6 1 6 4 3 18 2 18 5 13 4 13 5 6-1 10-7 11-8 9-7 10-9 12-9 11-10 13-10 10-9 6-5h2l1-7-2-6-1-7-1-17-3-25-2-25-4-30-4-20-6-11-13-13-8-9-9-16-6-17-3-6 1-4 3-2h7l9 7 7 9v2l4 2 5-1 1-5-5-19-5-17-4-21v-13l3-6 6 1 24 12 9 5 11 9 7 8 8 14 5 13 3 11 3 20 1 48 4 16 10 31 12 40 11 34 6 24v12l-6 12-13 15-21 21-11 9-11 10-8 7-4 2v2l-8 7-9 8-7 8-4 3 1 4 8 20 8 27 5 23v22l-3 4h-8l1 10 7 32 8 47 4 32 1 14-2 11-7 12-9 10-13 10-15 8-16 5-11 2-12 1-27 1v13l1 6v57l-2 42-2 70-2 33v56l10 52 4 32 1 17 2 65 1 56v54l2 16 3 12v9l3 24 7 36 7 25 3 13v4l-6-2-4-2h-27l-21 5-18 9v2h-2l-2-49-4-31-6-38-1-18-3-14-4-9-6-25-10-35-17-55-18-62-10-33-7-32-7-46-6-60-1-21-5 4-14 31-16 38-13 31-1 6 1 5 2 27v33l-1 11-2 38-6 48-3 25-1 7-2 36-4 10v12l-2 12 1 9 3 17 7 23v15l-1 11-6 8-16 16-3 5-8 26-7 12-8 10-10 8-16 8-17 6-14 3-18 1-13-2-10-5-6-7-1-5 14 7 8 2h23l20-4 13-5 13-8 4-4 1-4-6-10-8-9-12-6-11-3-8-1-19-1 2-4 11-7 6-1h23v-2l-9-3-4-1-13-1 1-4 5-4 7-3v-4l-4-2 1-4 8-5 1-4-2-2 1-4 5-5h2l-2-7 2-6 4-3v-2l-2-1v-11l-2-8-1-5 2-2 1-34-3-5-3-35-5-39-5-43-3-23-2-20-2-13-2-25-2-17v-51l1-14 2-15 1-15 3-14 3-16 7-36 8-36 14-61 7-35 2-20 1-4-1-18-1-14v-17l1-40 1-23 1-3 3-2-1-7-1-6-1-28-2-13-1-12-1-31-5-17-8-18-8-17-10-19-11-19-12-19-15-24-9-14-8-15-12-19-14-24-7-16-3-12v-34l3-45 4-38 3-26 1-13v-24l-3-21v-16l5-24 6-16 6-11 10-14 6-5 10-5 6-4 8-4zm335 1432 1 17h1v-14z" fill="#C76AC5"/>
<path transform="translate(1680,511)" d="m0 0 5 1 21 13 10 4 4 5 12 20 6 12 5 18 1 8 2 53 7 66 5 47 3 24v17l-3 12-8 15-12 15-8 11-11 15-10 14-8 11-9 11-10 14-11 14-9 10-7 10 7 12 7 11 9 17 13 28 13 29 11 29 7 21 16 5 19 13 16 13 12 12 6 9 3 6 8 8 11 9 11 10 6 10 1 4v22l-2 9-5 9-6 7-14 10-18 10-22 11-39 16-35 12-31 9-10 2-15 1-14-2-9-4-8-6-6-7-7-15-3-9-6 5-7 11-15 23-5 11 1 3 10 4 22 5 16 6 21 4 21 3h7l5-2 13-2 21-5h9l15 5 6 4 6 13 4 20 2 13 7 11 14 17 11 16 6 12 3 10v12l-5 16-8 18-12 13-11 9-17 8-4-1-9-9-7-6-3-8-1-6-1-21-4-10-9-17-14-20-5-6-9-5-4-2-12-2-4-4-76 1-9 2 1 6 8 10 7 10 10 18 12 21 13 21 7 11 12 14 10 1 6 2 19 2 12 5 16 13 2 6 1 11-3 20-2 13 4 16 12 36 2 9v13l-3 12-6 12-9 11-10 9-14 9-14 6-4 1h-17l-4-5-6-10-2-5v-12l6-21v-13l-6-29-8-24-6-9-9-7-6-4 1-4 1-5-9-10-9-9-11-9-34-28-13-10-11-9-15-13-14-12-10-8-14-12-10-9-13-12-10-9-11-13-7-4-14-1-13-2-18-3-18-8-9-6-8-7-7-11-3-7-1-5-1-21 1-6v-9l-6-10-2-3 1-9 13-37 13-40 13-35 13-30 12-25 13-23 11-18 14-19 4-9 11-33 4-14 1-16v-32l-3-9-6-10-4-13-1-12 3-15 8-16 7-9 4-5-5-5-9-6-11-5-10-3-16-7-11-7-12-11-6-7-7-14-4-17-5-8-7-8-8-11-11-12-7-11-2-6 1-11 5-15 9-19 8-11 16-24 11-18 15-27 8-19 1-4 2-22 4-20 5-13 7-12 5-7 20-12 16-5 7-6 4 2 2 2v7l-10 26-5 20v12l4 2 5-5 7-8 3-2h10v6l-11 28-6 10-11 12-14 12-5 6-7 15-13 37-7 25-5 15-1 10 3 6 10 8 21-1 26-3 18-4 16-8 13-8 4-8 5-4h2l1-5v-8l-9-5-5-8v-10l4-11 8-11 4-5 8-7 14-9 11-5 15-4 5-1h30l17 4 18 8 14 10 11 11 8 14 2 6 2 11 8 4 6 7 4 8 3 12 1 9v33l-4 23-4 10 5-1 2-4 6-10 6-14 4-16 1-12 1-32v-72l-3-15-3-16v-5h-2l-3-7v-3l-4-2-5-5-2-8-9-5-1-4 3-2 6 3 10 9 5 5 4 1v-9l-16-34-4-12 1-11 3-5zm-6 78 1 2zm2 1m3 7m-26 355m-1 1-1 2h2zm-10 16-6 7-6 10-5 4-11 23-8 20-3 11v35l4 24 6 24 3 5 12-3 15-6 42-12 11-4 2-2-1-9-7-25-12-33-13-31-11-22-8-14z" fill="#C76AC5"/>
<path transform="translate(446,365)" d="m0 0 7 1 19 5 12 3 7 4 14 13 8 11 9 16 6 15 3 11 2 22 5 21 11 31 11 29 10 25 14 42 4 15 2 15-3 12-4 7h-2l-4 16-8 20-10 24-10 28-12 31-11 29-7 16-1 8 5 21v19l-4 16-4 10v21l6 39 7 25 11 28v10l-2 5 1 10 7 25 8 33 9 47 5 36 3 32 1 17v54l-4 15-6 11-12 13-10 9-8 7-3 2 1 9 2 7 2 18v23l-6 38-9 45-7 28-6 19-18 84-3 15-1 12v10l4 14v5l-2 3 5 4 8 16 6 10 11 13 7 9 11 13 8 10 6 11 1 10-4 12-4 6-8 5-12 3h-22l-16-4-17-7-14-8-12-11-7-9-9-20-6-15-8-11-13-13-4-6v-17l3-12 12-26 4-7 4-4 1-9v-20l-2-42-3-49-1-9-1-2v-43l2-23-14 7-28 20-17 13-15 13-7 6-3 10-5 9-5 2 2 4-1 6-3 6v14l-3 2 1 7 1 1 1 40v22l-6 12-7 6-11 6-5-1-12-5-10-7-9-8-11-14-8-14-6-15-3-14v-8l3-17 5-19 1-7v-17l-1-17 3-8 13-13 14-8 13-7 7-4 12-6 14-15 14-19 13-18 12-17 7-11 10-12 9-15 1-4-12-25-16-34-12-25-13-29-12-30-8-22-4-10-22 7-12 1h-19l-14-2-16-6-21-11-14-10-8-8-4-8-4-21-1-8v-30l1-47 2-16 1-41h-2l-3-5-2-13-1-19v-41l5-13 8-9 14-9 27-14 24-12 32-14 20-7 5-1-1-5-11-8-8-11-4-10-3-14-2-46-1-9v-21l4-16 3-6 5-6 12-8 6-16 6-12 8-10 13-10 16-8 9-3 17-3h24l17 3 13 4 16 8 9 7 8 8 6 11 1 4v13l-2 14v14l4 14 9 14 5 12 2 13h4l2-5 8-18 8-14 9-15 2-6v-18l-4-24-5-32-14-70-6-15-9-8-11-9-30-30-1-3 6-4h8l16 8 6 2-1-6-6-12-10-11-9-14-3-8v-8l7-6z" fill="#C76AC5"/>
<path transform="translate(845,968)" d="m0 0 4 1 8 7 16 9 19 7 21 5 21 3 27 2h27l25-2 26-4 21-5 23-8 12-5 5-2 2 19v57l-2 42-2 70-2 33v56l10 52 4 32 1 17 2 65 1 56v54l2 16 3 12v9l3 24 7 36 7 25 3 13v4l-6-2-4-2h-27l-21 5-18 9v2h-2l-2-49-4-31-6-38-1-18-3-14-4-9-6-25-10-35-17-55-18-62-10-33-7-32-7-46-6-60-1-21-5 4-14 31-16 38-13 31-1 6 1 5 2 27v33l-1 11-2 38-6 48-3 25-1 7-2 36-4 10v12l-2 12 1 9 3 17 7 23v15l-1 11-6 8-16 16-3 5-8 26-7 12-8 10-10 8-16 8-17 6-14 3-18 1-13-2-10-5-6-7-1-5 14 7 8 2h23l20-4 13-5 13-8 4-4 1-4-6-10-8-9-12-6-11-3-8-1-19-1 2-4 11-7 6-1h23v-2l-9-3-4-1-13-1 1-4 5-4 7-3v-4l-4-2 1-4 8-5 1-4-2-2 1-4 5-5h2l-2-7 2-6 4-3v-2l-2-1v-11l-2-8-1-5 2-2 1-34-3-5-3-35-5-39-5-43-3-23-2-20-2-13-2-25-2-17v-51l1-14 2-15 1-15 3-14 3-16 7-36 8-36 14-61 7-35zm284 673 1 17h1v-14z" fill="#2C454D"/>
<path transform="translate(534,1037)" d="m0 0h3l6 19 8 32 9 45 6 39 4 40 1 17v54l-4 15-6 11-12 13-10 9-8 7-3 2 1 9 2 7 2 18v23l-6 38-9 45-7 28-6 19-18 84-3 15-1 12v10l4 14v5l-2 3 5 4 8 16 6 10 11 13 7 9 11 13 8 10 6 11 1 10-4 12-4 6-8 5-12 3h-22l-16-4-17-7-14-8-12-11-7-9-9-20-6-15-8-11-13-13-4-6v-17l3-12 12-26 4-7 4-4 1-9v-20l-2-42-3-49-1-9-1-2v-43l2-23-14 7-28 20-17 13-15 13-7 6-3 10-5 9-5 2 2 4-1 6-3 6v14l-3 2 1 7 1 1 1 40v22l-6 12-7 6-11 6-5-1-12-5-10-7-9-8-11-14-8-14-6-15-3-14v-8l3-17 5-19 1-7v-17l-1-17 3-8 13-13 14-8 13-7 7-4 12-6 14-15 14-19 13-18 12-17 7-11 10-12 9-15 1-4-12-25-16-34-12-25-13-29-12-30-8-22-4-10-1-4-2-11v-44l5 2 8 4v2l9 3 9 4v2l6 1 15 5 20 4 13 1h16l27-4 27-6 12-4 10-4 14-8h2v-2l8-4h2l2-4 7-5h2v-2l10-8 4-3 3-6 5-5z" fill="#3A5963"/>
<path transform="translate(794,209)" d="m0 0 4 1 7 4 6 3 3 3 1 9-4 16-9 17-7 17-2 8 6-2 13-13 6-3h7l6 3-1 5-10 13-13 24-10 13-7 9-2 6v39l2 42 3 49 3 25 4 10 12 18 12 14 9 14 14 18 10 14 10 13 13 16 7 6 7 4 12 3 14 1 4 2 4 5h6l-2 7v11l4 5 10 6 12 4 12 2h14l20-4 12-5 12-9 8-11 3-1v2l4 1-7 28-1 6-3 22-1 16v26l1 5 1 16 3 19 4 18 8 24 9 20 7 12v2h3l7 11 8 11 2 3v3h2v3l4 2 7 8 4 48 1 29-14 7-19 7-20 6-27 5-18 2-16 1h-27l-27-2-26-4-22-6-15-6-14-8-9-8-3-2 1-4-1-18-1-14v-17l1-40 1-23 1-3 3-2-1-7-1-6-1-28-2-13-1-12-1-31-5-17-8-18-8-17-10-19-11-19-12-19-15-24-9-14-8-15-12-19-14-24-7-16-3-12v-34l3-45 4-38 3-26 1-13v-24l-3-21v-16l5-24 6-16 6-11 10-14 6-5 10-5 6-4 8-4z" fill="#FDFDFD"/>
<path transform="translate(1547,634)" d="m0 0h30l17 4 18 8 14 10 11 11 8 14 2 6 2 11 8 4 6 7 4 8 3 12 1 9v33l-4 23-5 12-4 9-7 11-11 14-12 14-5 6-3 5-8 8-1 2h-2l-2 5-9 18-2 14v23l2 14 3 8 4 11 4 8v2l3 1 4 6 8 7-2 6-13 29-5 17v35l2 12v5l-34 14-20 6h-7l-8-8-11-14-11-15-4-7v-2h-2l-6-11-10-21-9-25-7-24-4-25-1-12v-37l2-18 6-22 4-11 2-8 10-18-11-3-16-4v-2l-9-3-11-7-15-14-8-7-16-15-5-4v-2l-4-2-13-13v-2l13-2 15-1 17-2 18-4 16-8 13-8 4-8 5-4h2l1-5v-8l-9-5-5-8v-10l4-11 8-11 4-5 8-7 14-9 11-5 15-4z" fill="#3A5963"/>
<path transform="translate(1553,1323)" d="m0 0 6 4 16 4 15 4 13 5 21 4 21 3h7l5-2 13-2 21-5h9l15 5 6 4 6 13 4 20 2 13 7 11 14 17 11 16 6 12 3 10v12l-5 16-8 18-12 13-11 9-17 8-4-1-9-9-7-6-3-8-1-6-1-21-4-10-9-17-14-20-5-6-9-5-4-2-12-2-4-4-76 1-9 2 1 6 8 10 7 10 10 18 12 21 13 21 7 11 12 14 10 1 6 2 19 2 12 5 16 13 2 6 1 11-3 20-2 13 4 16 12 36 2 9v13l-3 12-6 12-9 11-10 9-14 9-14 6-4 1h-17l-4-5-6-10-2-5v-12l6-21v-13l-6-29-8-24-6-9-9-7-6-4 1-4 1-5-9-10-9-9-11-9-34-28-13-10-11-9-15-13-14-12-10-8-14-12-10-9-13-12-10-9-11-13-7-4-14-1-13-2-18-3-18-8-9-6-8-7-7-11-3-7-1-5-1-21 2-14 9 5 4 4 26 12 8 3 23 8 22 4 18 3 21 2h37l25-2 20-4 6-5 21-30 4-6 4-5z" fill="#FABDA8"/>
<path transform="translate(1680,511)" d="m0 0 5 1 21 13 10 4 4 5 12 20 6 12 5 18 1 8 2 53 7 66 5 47 3 24v17l-3 12-8 15-12 15-8 11-11 15-10 14-8 11-9 11-10 14-11 14-9 10-7 10 7 12 7 11 9 17 13 28 13 29 11 29 7 21 16 5 19 13 16 13 12 12 6 9 2 6-2 4-16 8-15 8-18 8-13 5-11 5-10 3-28 9-21 6-20 6-11 2h-5l-8-5-7-15-8-18-10-20-2-2v-3h-2l-1-3-6-2v-2l-4-1-1-4h2v-2l13-5 20-6 6-3 1 2 12-3 15-6 42-12 11-4 1-1-1-9-7-25-12-33-13-31-11-22-8-14h-4l-7 10-4 6-5 5-5-2-5-5-4-6-3-3-7-15-3-11-1-1-2-14v-23l2-14 7-15 5-8h2l2-4 8-8 4-7h2l2-4 11-13 12-16 6-9 4-9 6-2 2-4 6-10 6-14 4-16 1-12 1-32v-72l-3-15-3-16v-5h-2l-3-7v-3l-4-2-5-5-2-8-9-5-1-4 3-2 6 3 10 9 5 5 4 1v-9l-16-34-4-12 1-11 3-5zm-6 78 1 2zm2 1m3 7m-26 355m-1 1-1 2h2z" fill="#FABDA8"/>
<path transform="translate(1428,185)" d="m0 0 14 1 55 8 79 11 16 4 6 4 5 10 2 8 2 28 2 10 7 3 13 3 48 7 24 4 8 3 5 16 14 62 18 78v3l-14-1-76-12-60-9-34-6-5-3-16-24-15-24-10-15-10-14-4-3-10-2-14-7-10-9-12-16-9-16-7-15-8-24-5-21-3-21v-15z" fill="#FDFDFD"/>
<path transform="translate(966,419)" d="m0 0h18l14 2 18 6 23 12 14 11 9 9 8 14 2 6 2 12-1 9-3 21-2 7v8l5 8 2 5v10l-5 12-5 6-12 6h-9l-1 6-9 11-3 6 1 6 4 3 18 2 18 5 13 4 13 5 6-1 10-7 4-3h5l3 20 6 20 9 16 5 6 13 10 6 3-1 4-5 5-9 10-7 9-5 5-7 9-18 27-7 16-4 12-6-1-9-6-7-7-9-14-8-19v-19l2-30 3-23 5-17 5-12h-23l-11-2-7-1-10 13-13 9-13 5-17 3h-14l-16-3-12-5-9-7-2-3v-11l3-7 5-4 5-3h2l2-9-2-3-14-4-12-6-10-9-6-10-4-17v-17l5-38 2-9v-38l-10-8-8-7-5-6 2-5 4-6 5-3 15-1 14 3h6l11-9 11-5z" fill="#FAA6A5"/>
<path transform="translate(973,78)" d="m0 0h15l9 6 7 7 10 13 12 19 8 19 4 18 1 32 2 4 10 3 22 5 14 7 14 9 11 10 7 11 5 13 1 5-2 8-6 9 2 5v4l-19 6-27 7-35 10-60 16-12 3-7-10-6-10-8-12-13-17-11-12-10-9-11-5-15-5-7-9-8-17-9-12-4-5-11-9-15-11-16-10-10-6-5-4 2-6 2-14 4-6 5-3 14-5 5-3 5-7 8-6 21-7 58-16z" fill="#FDFDFD"/>
<path transform="translate(334,217)" d="m0 0h12l8 7 1 1v6l-6 14-11 28-6 14-3 10-1 7 11-1 13-4 4-3h3l1 3-2 4 11 1 5 9-1 4-2 10-1 12-3 13v10l-1 2v10l-2 3-1 10-1 4 1 1v6l-2 2v10l-2 4-1 9-1 4 1 6-2 4-1 10-1 4 1 4-1 11-1 6-8 8-28 12-29 12-34 14-11 5-11 4h-3l-5-7-6-5 2-26 6-53 4-28 1-4-26 2-9 1h-33l-7-5-3-7 6-16 8-20 6-16 20-52 8-19 13-30 5-5 8-4 18-4 24-3 28-4 28-3z" fill="#DB89D6"/>
<path transform="translate(794,209)" d="m0 0 4 1 7 4 6 3 3 3 1 9-4 16-9 17-7 17-2 8 6-2 13-13 6-3h7l6 3-1 5-10 13-13 24-10 13-7 9-2 6v39l2 42 3 49 3 25 4 10 12 18 12 14 9 14 14 18 10 14 10 13 13 16 7 6 7 4 12 3 14 1 3 2-1 6-13 14-8 11-10 15-15 28-11 26-7 24-6 35-2 14-2 3-1-1-2-13-1-12-1-31-5-17-8-18-8-17-10-19-11-19-12-19-15-24-9-14-8-15-12-19-14-24-7-16-3-12v-34l3-45 4-38 3-26 1-13v-24l-3-21v-16l5-24 6-16 6-11 10-14 6-5 10-5 6-4 8-4z" fill="#FBA8A6"/>
<path transform="translate(290,801)" d="m0 0h6l11 8 4 3v2h2l9 13 7 15 8 21 5 17 4 11 1 13-1 10 5-3 8-10 5-8 3-1 3-7v-21l6 2 8 5 6 10 2 12 1 19v28l-2 7-6 12-12 16-10 11-7 8-17 17-7 8-6 6-2 5-19 19-8 7-11 10-14 11h-5l-2 4-11 4-7 2-6 1h-15l-7-3-7-6-4-9-3-11-2-12 1-25 4-45 6-48 8-40 3-12 8-24 8-16 7-11 10-9 13-8 13-6z" fill="#D5856C"/>
<path transform="translate(1553,1323)" d="m0 0 6 4 16 4 15 4 13 5 21 4 21 3h7l5-2 13-2 21-5h9l15 5 6 4 6 13 4 20 2 13 7 11 14 17 11 16 6 12 3 10v12l-5 16-8 18-12 13-11 9-17 8-4-1-9-9-7-6-3-8-1-6-1-21-4-10-9-17-14-20-5-6-9-5-4-2-12-2-4-4-76 1-10 1-5-3-11-12-10-9-4-3h-8l-4 1-2 4-8 1-2-4-2-9-8-1-3 1h-22l-23-1-33-3-14-4h-9v13l2 15 4 8 3 2v6l-12 1-13-2-18-3-18-8-9-6-8-7-7-11-3-7-1-5-1-21 2-14 9 5 4 4 26 12 8 3 23 8 22 4 18 3 21 2h37l25-2 20-4 6-5 21-30 4-6 4-5z" fill="#FABDA8"/>
<path transform="translate(365,557)" d="m0 0h24l17 3 13 4 16 8 9 7 8 8 6 11 1 4v13l-2 14v14l4 14 9 14 5 12 3 14-1 16-3 13-4 8-4-2-3-7-4 9h-2l-1 5h-2l-1 4-7 8-8 7h-2l-1 3-6 4h-3v2l-11 5-2-1-2-15v-5l15-6 12-9 4-5 6-12 3-12 1-29 7-5 2-8-3-7-7-3-4-2-7-21-7-14-9-10-11-8-11-6h-3l-4 13-8 16-7 11-12 13-18 14-13 8-4 2-1 3v8l-4 6-5-1-10-6-7-2-8 2-6 4-5 10-1 3v9l4 12 3 5 10 7 8 3h9l9-3 6 41v9l-2 11h-2l4 9 9 11 11 18 7 15 6 18 2 10v10l-6 12-8 11-6 7-4 1v-17l-3-12-6-18-7-20-4-10-8-15-5-6v-2h-2l-5-5-10-7-9 1-12 5-11 6-12 9-8 10-8 15-7 19-2 6-8-1-15-6-7-2v-2l-8-1-8-2-6 37-5 37-1 3h-2l-3-5-2-13-1-19v-41l5-13 8-9 14-9 27-14 24-12 32-14 20-7 5-1-1-5-11-8-8-11-4-10-3-14-2-46-1-9v-21l4-16 3-6 5-6 12-8 6-16 6-12 8-10 13-10 16-8 9-3z" fill="#1E2C34"/>
<path transform="translate(1433,513)" d="m0 0 4 2 2 2v7l-10 26-5 20v12l4 2 5-5 7-8 3-2h10v6l-11 28-6 10-11 12-14 12-5 6-7 15-13 37-7 25-5 15-1 10 3 6 10 8 17 17 2 1v2l4 2 10 10 8 7 14 13 11 9 10 6 7 3v2l7 2-1 6-5 9-7 12-9 8-5 5-10 9-3 3h-2l-2 4-4 5h-2v3l-2-1-5-5-9-6-11-5-10-3-16-7-11-7-12-11-6-7-7-14-4-17-5-8-7-8-8-11-11-12-7-11-2-6 1-11 5-15 9-19 8-11 16-24 11-18 15-27 8-19 1-4 2-22 4-20 5-13 7-12 5-7 20-12 16-5z" fill="#FABCA8"/>
<path transform="translate(1163,279)" d="m0 0 6 1 24 12 9 5 11 9 7 8 8 14 5 13 3 11 3 20 1 48 4 16 10 31 12 40 11 34 6 24v12l-6 12-13 15-21 21-11 9-11 10-8 7-4 2v2l-8 7-9 8-1-2-5-2-10-12-11-17-6-15-2-8-1-24 11-10 13-10 10-9 6-5h2l1-7-2-6-1-7-1-17-3-25-2-25-4-30-4-20-6-11-13-13-8-9-9-16-6-17-3-6 1-4 3-2h7l9 7 7 9v2l4 2 5-1 1-5-5-19-5-17-4-21v-13z" fill="#FBA8A6"/>
<path transform="translate(440,1447)" d="m0 0h1v62l12 3 24 5 29 3-1 7-18 84-3 15-1 12v10l4 14v5l-2 3 5 4 8 16 6 10 11 13 7 9 11 13 8 10 6 11 1 10-4 12-4 6-8 5-12 3h-22l-16-4-17-7-14-8-12-11-7-9-9-20-6-15-8-11-13-13-4-6v-17l3-12 12-26 4-7 4-4 1-9v-20l-2-42-3-49v-7l1 2h2v2l12 2 3-14 2-2 4-24 3-10z" fill="#3A5862"/>
<path transform="translate(1614,273)" d="m0 0 10 1 53 8 24 4 8 3 5 16 14 62 18 78v3l-14-1-76-12-60-9-34-6-5-3-16-24-15-24-10-15-10-14-6-9-6-10-9-14-4-9-1-3 1-2-3-1 1-2h13l7 2 16 2v2l9 1 12 2 3 1 4 4 2 1v2l5 2 4 2 41 5 13 1 7 2 50 6 5 3 3 3 3 7 7 11 4 4 3 7 9 14 5 7 4 7 4 5 4 7 7 10v2h2l5 11 2 1-1-8-1-11h-2l-3-16v-3h-2l-11-41-1-11h-2l-6-24-2-10-22-3-3-1-18-2-25-4-12-2-5-4z" fill="#C86BC6"/>
<path transform="translate(363,1335)" d="m0 0 3 4 7 27 8 17 12 16 12 12 2 1v2h2l3 6-1 5-14 7-28 20-17 13-15 13-7 6-3 10-5 9-5 2 2 4-1 6-3 6v14l-3 2 1 7 1 1 1 40v22l-6 12-7 6-11 6-5-1-12-5-10-7-9-8-11-14-8-14-6-15-3-14v-8l3-17 5-19 1-7v-17l-1-17 3-8 13-13 14-8 13-7 7-4 12-6 14-15 14-19 13-18 12-17 7-11z" fill="#3A5863"/>
<path transform="translate(1382,1111)" d="m0 0h2l-1 6 1 4h-3l3 4h-2l1 5h2v2h-2l2 7v3 3l4-1v2l5 1 1 4 4 1 5 6v2h2l2 4 3 2v2l4 2v2l6 1 3 3 7 3 10 4 6 2 10 2 12 2h6l3 1 11-1 6 1v4l-6 5h-2l-2 4h-2l-2 4h-2l-1 3-6 5h-3l-1 3-6 4-4 4h-2v2l-8 7-9 8h-2v2h-2l-2 4h-2v2l-7 6-7 9-9 12-3 6-6 11-8 16-5 12-2 7-3 6-2 10-2 6-2 9-2 7-2 1-12-3-10-2-11-4-23-11-4-3v-2l-5-2-5-4-6-10-2-3 1-9 13-37 13-40 13-35 13-30 12-25 13-23 8-13z" fill="#B961B5"/>
<path transform="translate(399,593)" d="m0 0 4 1 12 6 10 8 7 7 7 12 5 13 4 13 9 3 3 3 2 8-3 7-6 4-1 29-4 15-7 12-9 8-10 6-11 3 2 15v5l2 1-1 3 9 1 5 5 4 5 1 7-3 6-3 3-17 6-12 3-11 1h-26l-17-3-10-10v-2h-2l-1-5h2l1-11v-9l-5-36v-5l-9 4h-9l-10-4-9-7-5-10-2-7v-9l4-10 5-6 6-3 7-1 10 4 8 5 4-1 2-4v-9l3-4 8-4 13-9 14-11 10-11 7-11 8-16 4-13z" fill="#D5856C"/>
<path transform="translate(1528,680)" d="m0 0h15l27 4h18l2 2 4 14 6 12 7 11 2 8-1 9-5 12v8l3 3 5-1 8-5 9-1 10 6 5 7 1 3v16l-4 9h-2l-2 4-5 4-9 4h-13l-7-4-8 39-1 13 4 6 5 3-1 3-10 4-7 3-13 3h-24l-17-3-12-4-11-5-6-4-2-4 1-6 2-4 5-2v-2l6-4 6-2 2-14 2-7-9-2-14-7-8-8-5-11-2-7v-25l1-4v-11l-6-7 4-9 5-4h2l1-5 2 2 9-19 9-12 5-5z" fill="#F8BAA7"/>
<path transform="translate(362,304)" d="m0 0h7l5 9-1 4-2 10-1 12-3 13v10l-1 2v10l-2 3-1 10-1 4 1 1v6l-2 2v10l-2 4-1 9-1 4 1 6-2 4-1 10-1 4 1 4-1 11-1 6-8 8-28 12-29 12-34 14-11 5-11 4h-3l-2-5 2-21 6-44 4-30 3-25 4-33 1-13 5-5 8-4 16-6 15-6 12-5 8-4 14-5h2v-2l11-4 12-6h4v-2z" fill="#C86BC6"/>
<path transform="translate(446,365)" d="m0 0 7 1 19 5 12 3 7 4 14 13 8 11 9 16 6 15 3 11 2 22 5 21 11 31 11 29 10 25 14 42 4 15 2 15-3 12-4 7-9 1h-15l-10-3-12-5-7-3v-2l-4-1-1-3-6-3v-2l-8-4-2-26-4-21-4-27-14-70-6-15-9-8-11-9-30-30-1-3 6-4h8l16 8 6 2-1-6-6-12-10-11-9-14-3-8v-8l7-6z" fill="#D6866D"/>
<path transform="translate(1654,954)" d="m0 0 3 1 11 17 10 19 13 28 13 29 11 29 7 21 16 5 19 13 16 13 12 12 6 9 2 6-2 4-16 8-15 8-18 8-13 5-11 5-10 3-28 9-21 6-20 6-11 2h-5l-8-5-7-15-8-18-10-20-2-2v-3h-2l-1-3-6-2v-2l-4-1-1-4h2v-2l13-5 20-6 6-3 1 2 12-3 15-6 42-12 11-4 1-1-1-9-7-25-12-33-13-31-11-22-8-14 1-6 6-9h2z" fill="#DF9ADB"/>
<path transform="translate(181,859)" d="m0 0 12 2 4 1v2l10 2 15 6 5 1-2 9-5 21-5 26-6 48-4 45-1 28 2 9 5 16 4 6 7 5 4 1h15l12-2 6-3 7-3 1-2 6-2 9-7 14-12 7-7 8-7 13-13 2-5 11-11 7-8 16-16h2l-1 6-4 9-6 12-11 16-11 13-8 8-8 7-14 10h-2l1 4 7 6h-3l-5-3 1 44 2 13-1 2-21 7-12 1h-19l-14-2-16-6-21-11-14-10-8-8-4-8-4-21-1-8v-30l1-47 2-16 1-44 8-57 3-15z" fill="#8F4C8E"/>
<path transform="translate(290,801)" d="m0 0h6l11 8 3 4v5l3 1 3 11 1 8v15l-2 24-6 35-6 27-6 23v4l3-3 5-2 7-10 7-9 2-11v-12l2-11 4-19 3-7 8-4h2l2 7v5l-4-6-3 3-4 7-1 13v7l-1 2-1 13-3 12-3 6-7 7-4 10-7 3-21 7-18 10-14 10-12 11-9 10h-2v2h-2l-4 8-5 7-3 7-4 4-3 4 1 6 4 5 3 12 5 6 11 2 21 1 5 2 1 2-5 3-12 2h-15l-7-3-7-6-4-9-3-11-2-12 1-25 4-45 6-48 8-40 3-12 8-24 8-16 7-11 10-9 13-8 13-6z" fill="#EDBFE7"/>
<path transform="translate(534,1037)" d="m0 0h3l6 19 8 32 9 45 6 39 4 40 1 17v54l-4 15-6 11-12 13-10 9-8 7-5 3 1-3v-10l-9-40-5-21-13-49-6-24-5-18-5-21-6-23v-7l12-8 8-6 8-7 8-10 6-10 4-12 2-11 2-10 2-7z" fill="#2C454D"/>
<path transform="translate(1547,634)" d="m0 0h30l17 4 18 8 14 10 11 11 8 14 2 6 2 11 8 4 6 7 4 8 3 12 1 9v33l-4 23-5 12-4 9-7 11-11 14-12 14-7 8-10 10-3 1-1-3-3-1-1-3-7-3-4-6 1-13 8-40 8 4h13l12-6 4-5h2l3-9v-16l-4-8-7-5-4-2-9 1-8 5-5 1-4-4v-8l6-16-1-10-5-10-6-9-6-16-2-6h-18l-27-4h-15l-11 4-3 1-2 4-9 13-8 17-2 1-1-11-9-5-5-8v-10l4-11 8-11 4-5 8-7 14-9 11-5 15-4z" fill="#1E2C33"/>
<path transform="translate(898,1467)" d="m0 0h1v12l-1 13-4 10v12l-2 12 1 9 3 17 7 23v15l-1 11-6 8-16 16-3 5-8 26-7 12-8 10-10 8-16 8-17 6-14 3-18 1-13-2-10-5-6-7-1-5 14 7 8 2h23l20-4 13-5 13-8 4-4 1-4-6-10-8-9-12-6-11-3-8-1-19-1 2-4 11-7 6-1h23v-2l-9-3-4-1-13-1 1-4 5-4 7-3v-4l-4-2 1-4 8-5 1-4-2-2 1-4 5-5h2l-2-7 2-6 4-3v-2l-2-1v-11l-2-8-1-5 2-2 1-34-3-5 1-22 2-4h9l17 1h24l11-1h10l2 2z" fill="#304750"/>
<path transform="translate(817,533)" d="m0 0 3 1 9 13 8 11 15 20 14 19 14 17 7 6 7 4 12 3 14 1 3 2-1 6-13 14-8 11-10 15-15 28-11 26-7 24-6 35-2 14-2 3-1-1-2-13-1-12-1-31-5-17-8-18-8-17-10-19-11-19-12-19-15-24-9-14-1-4 11-5 11-6 10-9 11-13 8-18z" fill="#3A5963"/>
<path transform="translate(1624,1533)" d="m0 0h6l6 2 19 2 12 5 16 13 2 6 1 11-3 20-2 13 4 16 12 36 2 9v13l-3 12-6 12-9 11-10 9-14 9-14 6-4 1h-17l-4-5-6-10-2-5v-12l6-21v-13l-6-29-8-24-6-9-9-7-6-4 1-4 4-6 12-9 10-3 12 2 4 3-1-6v-10l2-9 1-3v-19h-2z" fill="#3A5863"/>
<path transform="translate(1691,1338)" d="m0 0h9l15 5 6 4 6 13 4 20 2 13 7 11 14 17 11 16 6 12 3 10v12l-5 16-8 18-12 13-11 9-17 8-4-1-9-9-7-6-3-8-1-6-1-21-4-10-9-17-14-20-5-6-9-5-4-2-12-2-3-3 2-6 3-1 2-6 7-9 6-4 17-2 1-2h-2l-4-9-1-14-4-13-7-4 1-4 13-2z" fill="#3A5963"/>
<path transform="translate(510,638)" d="m0 0 6 2 3 2v2l4 2 4 4 3 1v2l5 1 8 4 11 3 5 2h22l-4 16-8 20-10 24-10 28-12 31-11 29-7 16-2 6-1-2h-2l-7-9-8-9-8-6v-2l-4-2-9-8-16-12-5-4-3-1v-2l-5-2-4-2v-3h-6l-12 5-9 1-2-2 4-2h2l2-4h2v-2l6-3 7-6 8-7 6-7 1-3 2-1 1-4h2l2-8 2-2 3 4 2 5h2l5-14 2-19v-4h4l2-5 8-18 8-14 9-15z" fill="#EDC0E7"/>
<path transform="translate(1457,866)" d="m0 0h2l1 4-6 24-3 21v39l3 25 6 28 9 31 7 19 15 31 11 18 10 14-1 2-12 1h-12l-24-3-17-4-17-6-15-8-10-8-5-7 1-7 11-33 4-14 1-16v-32l-3-9-6-10-4-13-1-12 3-15 8-16 7-9 4-4h2v-3h2l2-4 4-5 16-14z" fill="#3A5963"/>
<path transform="translate(1828,1479)" d="m0 0h9l9 2 6 4 4 7 1 9v46l-3 19-7 20-8 16-6 11-13 16-7 7-18 12-5 3h-6l-6-5-3-14-6-55-4-20-6-18-1-7 2-17 8-11 5-4 7-6 6-12 5-1 1 2 4-2 2 3 5-3 4-1zm-35 6-2 2 4-1z" fill="#FEFEFE"/>
<path transform="translate(1113,1475)" d="m0 0h1v54l2 16 3 12v9l3 24 7 36 7 25 3 13v4l-6-2-4-2h-27l-21 5-18 9v2h-2l-2-49-4-31-6-38-1-18-3-14-4-9-4-16v-9h21l30-4 15-4 5-2 4 2zm16 166 1 17h1v-14z" fill="#2E464F"/>
<path transform="translate(1031,615)" d="m0 0 16 1 14 3 19 5 18 7 6-1 10-7 4-3h5l3 20 6 20 9 16 5 6 13 10 6 3-1 4-5 5-9 10-7 9-5 5-7 9-18 27-7 16-4 12-6-1-9-6-7-7-9-14-8-19v-19l2-30 3-23 5-17 5-12h-23l-11-2-7-1-10 13-13 9-13 5-17 3h-14l-16-3-12-5-9-7-2-3v-11l3-7 5-4h5l-1 5-3 6-1 12 4 2v2l5 2 11 4h29l16-5h3v-2l10-5 7-5 4-9 2-21z" fill="#3A5863"/>
<path transform="translate(440,1447)" d="m0 0h1v62l12 3 24 5 29 3-1 7-18 84-3 15-2 20-1-2h-36l-10 3-2 2-2 17-2-1-1-5h-2l-11-21-2-7v-8l2-2 1-9v-20l-2-42-3-49v-7l1 2h2v2l12 2 3-14 2-2 4-24 3-10z" fill="#D5856D"/>
<path transform="translate(1581,1157)" d="m0 0 2 1 4 18 6 30 8 31 6 17 8 14 7 6 7 3 10 2h12l19-3 28-8 26-9 39-16 4-3 10-4 25-12 10-6 10-3 2-4 4-3h2v17l-6 12-6 7-14 10-18 10-22 11-39 16-35 12-31 9-10 2-15 1-14-2-9-4-8-6-6-7-7-15-5-13-10-40-5-27-2-14v-17l5-6h3l2-4z" fill="#904C8F"/>
<path transform="translate(1039,640)" d="m0 0 16 3 23 1-8 24-2 10-3 29-1 19v19l8 19 7 11 9 10 8 5 5 2-2 21-1 14v28l10 16 4 8v28l-4 1-6-4-4-3v6h-1l-1-9-8-9-2-1v-3h-2l-3-6-6-8-8-12v-2h-3l-12-22-10-26-5-17-4-23-2-16v-8l-1-4v-26l2-26 2-12 2-10 6-22 1-2-4-1z" fill="#C76BC5"/>
<path transform="translate(297,760)" d="m0 0 9 6 4 3 13 6 7 3 5 2-2 12h-2l4 9 9 11 11 18 7 15 6 18 2 10v10l-6 12-8 11-6 7-4 1v-17l-3-12-6-18-7-20-4-10-8-15-5-6v-2h-2l-5-5-10-7-9 1-12 5-11 6-12 9-8 10-8 15-7 19-2 6-8-1-15-6-7-2v-2l-8-1-8-2-6 37-5 37-1 3h-2l-3-5-2-13-1-19v-41l5-13 8-9 14-9 27-14 24-12 32-14 20-7 5-1 1-3h6l-1-6-5-7z" fill="#3B5863"/>
<path transform="translate(363,1335)" d="m0 0 3 4 7 27 8 17 12 16 12 12 2 1v2h2l3 6-1 5-14 7-28 20-17 13-15 13-7 6-2 3-4-8-9-8-12-8-5-2h-9l-9 4h-2l1-14 4-17 1-3 3-1v-3l10-5 14-15 14-19 13-18 12-17 7-11z" fill="#B8646D"/>
<path transform="translate(181,859)" d="m0 0 12 2 4 1v2l10 2 15 6 5 1-2 9-5 21-5 26-6 48-4 45-1 28 1 9-4 1v-2h-2l-1-4 2-4v-5l-6-3-5 1v7l3 4 4-1v3l2 1-3 1-9-4-9-8-5-8-2-5v-3l-3-1-1-6v-30l2-16 1-44 8-57 3-15z" fill="#C66AC4"/>
<path transform="translate(966,419)" d="m0 0h18l14 2 18 6 23 12 14 11 9 9 8 14 2 6 2 12-1 9-3 21-3 11h-18l-6 4-7 9-3 2-4-1-4-8-4-11-4-10-1-11 2-9 1-5-3-10-3-1-3-6-18-18-12-8-17-6-15-4-8-1-7-4v-2l8-6 11-5z" fill="#3B5963"/>
<path transform="translate(1478,736)" d="m0 0h3l6 7v11l-1 4v25l4 12 5 8 8 7 14 6 6 2-1 7-3 13-4 2h-12l-5-2-5-1-18-5-6-1v-2l-9-3-11-7-15-14-8-7-16-15-5-4v-2l-4-2-13-13v-2l13-2 15-1 17-2 18-4 16-8z" fill="#1E2C33"/>
<path transform="translate(1193,841)" d="m0 0 3 1 2 8 5 38 1 6v16l-4 9-15 15-13 10-5 4-9 3-4-4-1-2-5-2-3-6v-2l-3-1-2-8-3-9-1-9-1-4 1-7-1-3-2-36-1-5-4-4 1-2 9 2 9 5 3 6 5 7 10 4 8-1 3-1v-3l5-1 2-5h2l2-4 5-13z" fill="#8F4C8E"/>
<path transform="translate(393,1680)" d="m0 0 3 3 6 8 12 13 4 6 4 4 4 8 3 8 7 13 3 2v2l3 1 3 4v2l3-1v2l7 1 9 4 9 1 9-3 2-3v-9l-2-7-2-1v-3l11-4 7-1h21v-2h-2l-4-7-2-2v-3l4 1 5 3 13 15 8 10 6 11 1 10-4 12-4 6-8 5-12 3h-22l-16-4-17-7-14-8-12-11-7-9-9-20-6-15-8-11-13-13-4-6v-6z" fill="#2D454E"/>
<path transform="translate(815,158)" d="m0 0 5 1 6 4 10 8 7 6v2l4 2 4 4v2h2l7 8 10 13v-2l1-4 4 6 2 6 3 6 3 3 1 11v2l1 7h12l8 2 14 2 7 4 5 4 4 2v2l5 2 7 7 7 11 3 7 6 12 2 1h7l10-4 27-8 9-1-3 2-11 4-15 9-2 1h-6l-1 3h-2l-1 5 20-4 94-26 15-4 9-1 4 6v4l-19 6-27 7-35 10-60 16-12 3-7-10-6-10-8-12-13-17-11-12-10-9-11-5-15-5-7-9-8-17-9-12-4-5-11-9-15-11-16-10-10-6-3-2 1-4z" fill="#EDC0E8"/>
<path transform="translate(412,1625)" d="m0 0h2v7l4 11 8 15v2h2l2 5 2-16 5-4 8-2h26l10 1 4 10 2 8v5l-2 3 5 4 8 16 6 10 11 13 3 5-4-1-2-1-2-4h-20l-16 4-9 4v2l2 1 1 6-3-1-3-5-4-4-4-2-3-10-6-5-2-1-2-6h-2l-5-13-4-5v-2h-2l-4-8-1-3-3-1-2-3 1-2h-3l-2-5h-2l-3-6-4-7 1-5 4-8z" fill="#2D454E"/>
<path transform="translate(234,1528)" d="m0 0 2 1-1 16 2 5 7 12 3 3v2l4 2 7 5 9 1 1-14 1-5h7l15 6 9 7 5 4v2h2l1 2h5l2 8v22l-6 12-7 6-11 6-5-1-12-5-10-7-9-8-11-14-8-14-6-15-3-14v-8l3-16z" fill="#2C454D"/>
<path transform="translate(1113,1475)" d="m0 0h1v54l2 16 2 7-1 11-3-3-4-8-5-3h-22l-18 3-8 4-1 2-1 11-4 5-2-12-1-18-3-14-4-9-4-16v-9h21l30-4 15-4 5-2 4 2z" fill="#3C5964"/>
<path transform="translate(891,623)" d="m0 0 15 4 14 1 3 2-1 6-13 14-8 11-10 15-15 28-11 26-7 24-6 35-2 14-2 3-1-1-2-13-1-12-1-31-2-9 3-10 3-11 2-12 8-26 8-20 10-18 8-11 3-3h3v-2h2z" fill="#C66AC4"/>
<path transform="translate(360,989)" d="m0 0h2l-1 6-4 9-6 12-11 16-11 13-8 8-8 7-14 10h-2l1 4 7 6h-3l-5-3 1 44 2 13-1 2-21 7-12 1h-19l-2-2 4-3 3-3 5-2 1-14 1-22-2-10 1-5 8-4 1-2 6-2 9-7 14-12 7-7 8-7 13-13 2-5 11-11 7-8z" fill="#9F589E"/>
<path transform="translate(1114,761)" d="m0 0 1 2-2 5v18l2 31 4 37 4 42 5 35 4 19 5 13 4 6 2 4-3 1-12 1h-26l-1-6-1-23-2-25v-20l4 2 6 4h3v-28l-4-8-7-11-3-5v-28l2-25 4-16 5-13z" fill="#A0589F"/>
<path transform="translate(530,1056)" d="m0 0h1v10l-4 18-6 15-6 9-13 15-4 4h-2l-2 7 3 16 10 43 6 26 2 11 2 8 2 9 1 1 2 12 3 10 2 12 2 11 5 21 4 9 4-1 1-3 3-3 4-6h2l2-4 4-6 3-2 6-15 2-17v-21l2-2v40l-4 15-6 11-12 13-10 9-8 7-5 3 1-3v-10l-9-40-5-21-13-49-6-24-5-18-5-21-6-23v-7l12-8 8-6 8-7 8-10 6-10 8-26z" fill="#1E2C33"/>
<path transform="translate(1155,591)" d="m0 0h2l1 23 4 14 7 14 12 17 6 7 4 2-1 5-9 8 1 4 8 20 8 27 5 23v22l-3 4-10-1-10-40-9-29-4-12v-5l7-6h2l-1-5-10-10-9-10-6-11-5-17-3-17-1-14 7-8z" fill="#914E90"/>
<path transform="translate(1302,1339)" d="m0 0 9 5 4 4 26 12 1 3 5 1 15 5 1 4v10l2 15 1 1v12l-2 4v5l-12-1-10-3-17-8-13-11-7-11-3-7-1-5-1-21z" fill="#FABDA8"/>
<path transform="translate(327,794)" d="m0 0 6 4 13 17 9 15 7 15 6 18 2 10v10l-6 12-8 11-6 7-4 1v-17l-3-12-6-18-7-20-4-10-8-15-5-6v-2h-2l-5-5-8-6-1-3 25-5z" fill="#2C454D"/>
<path transform="translate(1654,954)" d="m0 0 3 1 11 17 10 19 13 28 13 29 11 29 6 18v3h-2v2l-12 3h-7l-3-3-7-26-11-31-12-29-12-25-10-18 1-6 6-9h2z" fill="#C86BC6"/>
<path transform="translate(889,440)" d="m0 0h28l11 2 31 5v2l9 2 16 8 12 9 9 10 7 12v2l-6-1-7-2v-2l-12-3v-2l-8-1-12-5-17-4-23-3h-7l-5 8-6 18h-1l-1-15v-12l-10-8-8-7-5-6 1-3z" fill="#2E454E"/>
<path transform="translate(1553,1323)" d="m0 0 6 4-3 9-3 1-1 4h-3l-1 5-3 6h-2l-1 4-5 5-15 20 1 6 5 4 4 2v2l6 2 6 4 6 7 2 1 2 5v3h8l-3 2-10 1-5-3-11-12-10-9-4-3h-8l-4 1-2 4-8 1-2-4-2-9-8-1-3 1h-22l-23-1-33-3-14-4h-9v13l2 15 4 8 3 2v6l-12 1-13-2-2-3 1-5 1-6v-8l-2-7-1-12v-7l-1-3-19-7 2-2 28 10 22 4 18 3 21 2h37l25-2 20-4 6-5 21-30 4-6 4-5z" fill="#F8A6AC"/>
<path transform="translate(1175,811)" d="m0 0 7 1v2l6 2 4 5 4 7 3 1 1 4-2 3 2 1 1 10 2 5 1 7v11l4 4v19l-4 2-2-7-5-38-2-8-2-1-3 9-3 7-5 6-1 2-5 1v3l-3 2-8 1-10-4-8-11v-3l-5-2-11-4v-3l1-4 3-1 4-6 14-8 2-2h3l2-4 5-4 6-3z" fill="#B961B5"/>
<path transform="translate(817,533)" d="m0 0 3 1 9 13 8 11v3l-3 11-5 12-7 11-9 10-9 8-15 8-9 3-4-5-10-15-2-6 11-5 11-6 10-9 11-13 8-18z" fill="#4B5466"/>
<path transform="translate(1083,1548)" d="m0 0h22l5 3 2 2 3 7 1 2 1-6 2 1v9l3 24 3 17v4h-2l-4-8v-12h-2l-1-4-9-1h-18l-16 4-12 5-2 7 1 10h2l-1 8h-2l-2-5-5-35v-8l2-3 1-11 4-4 6-3z" fill="#2D454E"/>
<path transform="translate(898,1467)" d="m0 0h1v12l-1 13-4 8-9 3-11 2-1 1h-25l-7-2-17-4-3-5 1-22 2-4h9l17 1h24l11-1h10l2 2z" fill="#465564"/>
<path transform="translate(1614,273)" d="m0 0 10 1 53 8 24 4 8 3 5 16 14 62 17 74v6l-4-2-3-11-2-3-3-12v-3h-2l-1-11h-2l-3-16v-3h-2l-11-41-1-11h-2l-6-24-2-10-22-3-3-1-18-2-25-4-12-2-5-4z" fill="#955193"/>
<path transform="translate(460,659)" d="m0 0 3 1 8 13 4 10 3 14-1 16-3 13-4 8-4-2-3-7-4 9h-2l-1 5h-2l-1 4-7 8-8 7h-2l-1 3-6 4h-3v2l-11 5-2-1-2-15v-5l15-6 12-9 4-5 6-12 3-12 1-29 7-5 2-8z" fill="#202D35"/>
<path transform="translate(1031,615)" d="m0 0 16 1 14 3 19 5 18 7-3 5-12 7-4 4-7 19-2 7h-1l1-8 7-19 1-2h-23l-11-2-7-1-10 13-13 9-13 5-17 3h-14l-16-3-12-5-9-7-2-3v-11l3-7 5-4h5l-1 5-3 6-1 12 4 2v2l5 2 11 4h29l16-5h3v-2l10-5 7-5 4-9 2-21z" fill="#914D8F"/>
<path transform="translate(377,1313)" d="m0 0h2l2 10 11 23 12 22 9 16 2 5v13l-3 11-1 2-4-1v-2l-4-2-13-13-11-16-7-15-7-27-1-5 12-19z" fill="#2B444C"/>
<path transform="translate(308,811)" d="m0 0 3 1v2h2l9 13 7 15 8 21 5 17 1 5h-2l-1-7-10 5-4 14-4 22v15l-3 9-6 8-8 11-6 3-3 2 1-10 8-30 6-31 4-27 1-16v-15l-3-16-1-3-2-1z" fill="#C569C3"/>
<path transform="translate(357,300)" d="m0 0 1 3h6l-3 3-7 1v2l-7 3-11 5-9 2v2l-16 6-10 5-10 4-27 11-10 4-4 2-2 3-3 29-5 42-11 82-1 13-4-2-3-2 2-20 2-9 2-29 3-21 3-27 4-29 2-8 3-27 13-6 42-18 31-13z" fill="#ECBDE6"/>
<path transform="translate(1519,835)" d="m0 0 1 4-10 5-3 1v2l-5 2-2 10 2 4 3 2v2l-6-1 1 6 2 4-1 6-3 5h-2l-2 4-3 5-5 10-3 32 1 21v21l-1 1-1 12v9h3l-1 7-2-2-5-18-4-25-1-12v-37l2-18 6-22 4-11 2-8 9-16v-3l6 1 2 1h12l3-1z" fill="#465464"/>
<path transform="translate(825,1500)" d="m0 0 22 4 1 1h25l7-2 14-3v14l-3 15-11 3-4 10-1 7-3-1-2-13-5-2-12-2h-22l-7 1v-28z" fill="#F8A5A6"/>
<path transform="translate(256,1083)" d="m0 0 2 1 1 6 1 16-2 23-1 5-7 4-1 3-4 2h-8l-18-6-20-10-16-11-9-9-4-8-1-5 7 6 11 7 3 2v2l6 2 20 9 4 2h7l3-6 2-1v-2l7-3 3-1v-15l2-8-3-1 12-2z" fill="#BA61B6"/>
<path transform="translate(1115,909)" d="m0 0 4 2 6 12v3h2l5 24 5 13 4 6 2 4-3 1-12 1h-26l-1-6-1-23v-27l2-3 4-2 4-1 2-2h3z" fill="#904D8F"/>
<path transform="translate(1112,1517)" d="m0 0h1l3 28 2 7-1 11-3-3-4-8-5-3h-22l-18 3-8 4-1 2-1 11-4 5-2-12-1-18-2-13 24-1 21-5 13-4z" fill="#F7A5A6"/>
<path transform="translate(891,1012)" d="m0 0 4 2 8 7 4 4 10 6 9 5 24 12 2 2v14l3 56 1 19v15l-3 5-9 19-17 40-13 30-2 1 1-5 2-9 5-11v-2l2-1 2-6h2l1-9 4-8 2-7 2-6 1-4h2l3-9 6-13 2-5 1-1v-18l-4-46-3-23-3-7-13-7-9-7-14-12-7-8-6-10z" fill="#1F2D34"/>
<path transform="translate(297,1077)" d="m0 0 5 2 8 4v2l9 3 9 4v2l6 1 15 5 20 4 13 1h16l21-3h5l-4 2-2 2h-9l-1 1h-30v2l-6 5h-22l-8-1-6-4h-5-3l-4 1-4 4-10 5-5 5-4 3-2 3-2-9z" fill="#455563"/>
<path transform="translate(334,217)" d="m0 0h12l6 5-2 2-10 2-30 4-34 5-42 6-2 6-4 2h-12l14 2-2 6-2 3-8 1 8 3-1 4-3 1h-19l3-9 8-18 5-5 8-4 18-4 24-3 28-4 28-3z" fill="#EEC7EA"/>
<path transform="translate(1155,591)" d="m0 0h2l1 23 4 14 7 14 12 17 6 7 4 2-1 5-9 8-1 2-4-2-14-14-7-9-7-14-4-12-3-26 2-4 5-6z" fill="#485565"/>
<path transform="translate(900,1572)" d="m0 0 3 3v15l-1 11-6 8-16 16-3 5-8 26-7 12-8 10-10 8-16 8-17 6-14 3-18 1-13-2-10-5-6-7-1-5 14 7 8 2h23l20-4 13-5 13-8 4-4 1-4-2-7v-3l7 2h5l2-4h2v-3h2l1-4 6-12 10-19 2-3h2v-3h2v-3l9-6 5-10 2-20z" fill="#2D3842"/>
<path transform="translate(182 1e3)" d="m0 0 12 1 2 2 8 1 1 1v17l-1 28 1 9-4 1v-2h-2l-1-4 2-4v-5l-6-3-5 1v7l3 4 4-1v3l2 1-3 1-9-4-9-8-5-8-2-5v-3l-3-1-1-6v-16l4 3 1-5 8-1 1-3z" fill="#B961B5"/>
<path transform="translate(1714,1344)" d="m0 0 5 1 5 8 4 11 3 16 2 13 7 11 14 17 11 16 6 12 3 10v12l-5 16-8 18-12 13-11 9-17 8-4-1-4-4 1-2 4 1 1-3 12-7 8-6 5-4 7-9h2l2-6 2-4h2v-4h2v-5h2l1-15 2-4-1-7-3-10-4-7v-2h-2l-1-3-2-1v-4l-3-1-3-5-1-3-3-2v-2h-2v-3l-4-2-1-4h-2l-2-6-3-1-3-7-3-15v-8l-4-10-3-10-3-3z" fill="#24323B"/>
<path transform="translate(1064,751)" d="m0 0h2l8 16 7 11 7 7 8 5 5 2-2 21-3 40-4-4-9-17-3-7-3-5v-7h-2l-4-11-3-17-3-15-2-18z" fill="#FCF8FC"/>
<path transform="translate(814,1587)" d="m0 0 20 2 14 4 6 4 2 2-1 5h-2v2l-6 4h-4l4 4v5l-3 5-5 2h-5v2l4 2 1 4-1 1h-5l-12-5-21-2v-1h23v-2l-9-3-4-1-13-1 1-4 5-4 7-3v-4l-4-2 1-4 8-5 1-4z" fill="#3C5964"/>
<path transform="translate(445,1643)" d="m0 0h26l10 1 4 10 2 8v5l-2 4-21 1-15 3-9 3-5-1-6-12h1l2-16 5-4z" fill="#465564"/>
<path transform="translate(289,1460)" d="m0 0h9l10 5 14 11 6 8v7l-6 12-5 2 2 4-1 4-4-7-10-8-16-8-12-4-1-1 1-14 1-8 1 2z" fill="#445563"/>
<path transform="translate(1114,275)" d="m0 0 4 4 1 6-19 6-27 7-24 7h-6l-10 2-8-1 2 2-6 2-8-1-1 2-3-1-6 2v2l2 1h-5-1l-3 2h-5v2l-5 1v-2h-17l-4-2v-2l9-1 3-2 27-7 44-12 43-12 15-4z" fill="#A35AA2"/>
<path transform="translate(1679,1553)" d="m0 0 4 2 2 6 1 11-3 20-2 13 4 16 12 36 2 9v13l-3 12-6 12-9 11-10 9-14 9-14 6-4 1h-17l-4-5-1-4 5 1v2l7-1 6-1 5-1 12-6h2v-2l7-3 10-7 3-3h2l2-5h2v-2h2l2-5 6-8 1-6v-19l-7-27-4-9-5-22v-10l4-16v-12h2l-2-9z" fill="#23323A"/>
<path transform="translate(1089,1585)" d="m0 0h18l9 2 1 4h2l1 5v13l-4 2-5-2h-21l-16 4-9 3-1 5-3-1v-7l-2-1v-6l-1-4 2-7 8-4 16-5zm-30 28m-1 5 1 2 2 1-1 10h-1z" fill="#2F4750"/>
<path transform="translate(1129,847)" d="m0 0 9 2 9 5 3 6 3 4v2h-5v24l3 21 3 18 2 10v3l8 1 1-2 8 2-6 5-9 3-4-4-1-2-5-2-3-6v-2l-3-1-2-8-3-9-1-9-1-4 1-7-1-3-2-36-1-5-4-4z" fill="#9E579D"/>
<path transform="translate(828,549)" d="m0 0 3 1 7 9-5 16-7 14-8 11-10 10-13 8-14 6h-2l-8-12 3-1 16-8 10-8 6-5 2-3h2l2-4 9-15 6-15z" fill="#C76BC5"/>
<path transform="translate(208,307)" d="m0 0 3 1-1 4-4 11-4 9-3 9-4 10-3 5-2 7-1 1h-7l-5-1v-2l-8-2 1-9 13-33 3-8 7-1 4 1h7z" fill="#C468C2"/>
<path transform="translate(885,245)" d="m0 0h15l9 3 4 2v2l4 1 7 4v2h5l3 3v2l4 2 5 5 8 10 3 7 10 14 6 10 6 1v1h-9l1 2 5 1h13l3 2h4v-2l6-2 2-2 4 1v-2l6-3h4 10l2-4 5 1 1-2v3l6-2 7-1 2 2-75 20-5 1-7-10-6-10-8-12-13-17-11-12-10-9-11-5-15-5z" fill="#BB62B8"/>
<path transform="translate(1060,1621)" d="m0 0 2 1 2 8v21h2v6l17-6 14-3h26l2-9 2-1 1 25-26 1-21 5-18 9v2h-2l-1-28z" fill="#2C434C"/>
<path transform="translate(393,1680)" d="m0 0 3 3 6 8 12 13 7 11 3 10 6 10 3 8 6 8 3 5 9 8 9 6 12 6 10 4 18 3h24l9-2 7-2 1 4-5 4-10 4-6 1h-22l-16-4-17-7-14-8-12-11-7-9-9-20-6-15-8-11-13-13-4-6v-6z" fill="#212F37"/>
<path transform="translate(1472,286)" d="m0 0 11 1 23 4 28 6 9 4 10 7 26 4 25 3 31 4 30 4 6 3 4 5 14 23 10 14 10 16 7 10 3 6 4 4h3l-4-8-2-11-2-5-2-11-3-11 1-5h-2l-2-3-1-12-1-2 1-2h2l4 18 8 30v4h2l3 15v4h2l3 15v5l-4-2-4-8v-3h-2l-7-11-4-5-4-7-4-5-5-9-7-10-5-8-1-4-4-4-9-14v-4l-3-1-2-3-10-2-43-5-7-2-22-2-32-4-9-5v-2l-5-2-1-3-15-2-9-2v-2l-16-1-7-2h-13l2 4 6 14 8 12 9 15-1 2-7-3-2-7-1-4-6-11-6-9-9-15z" fill="#E7AFE2"/>
<path transform="translate(357,994)" d="m0 0h2l-3 9-10 18-9 12-9 10-15 15-8 6-11 7-8 5-14 6h-4l1-4 12-9 15-13 7-7 8-7 13-13 7-8 21-21z" fill="#2B434B"/>
<path transform="translate(285,1428)" d="m0 0h3l-1 3h-3l-2 10-5 30-1 14 15 5 16 9 8 7 3 4v5l-5 1-14-9-13-5-9-2h-4l-1 5 2 1h-3l1 9-4 3-2-4-1-8 3-11 2-16v-11l1-2h-2l-1-5 2-8v-7l-2-6 1-3 12-7z" fill="#2C444D"/>
<path transform="translate(831,1556)" d="m0 0h15l14 3 12 6 2 3-1 5-6 5h-5l3 6-1 4-6-2-12-5-14-2-10-1-2-6 2-6 4-3v-2l-2-2z" fill="#3C5864"/>
<path transform="translate(491,1679)" d="m0 0 3 4 8 14-1 3-21 2-17 5-6 3-4-2-1-4-5-5-3-9 10-5 19-5z" fill="#3E5864"/>
<path transform="translate(906,432)" d="m0 0 11 1 7 2h6l3-2 7 4 17 3 18 6 8 4 12 8 10 11 5 5 3 5 4 5 3 8-1 5-2 9h-1v-9l-5-2-10-5 3-1 8 3-8-14-10-11-15-10-14-6-6-2v-2l-18-2-16-2-8-2h-28l-2 3-2-1 5-7 5-3z" fill="#BE67BC"/>
<path transform="translate(1621,861)" d="m0 0v3l-9 9-1 2h-2l-2 5-9 18-2 14v23l2 14 3 8-1 3-4-4-2-9-3-4-3-13-1-24-3-10v-6l-10-3-4-2v-2l3-1 2-5 15-4 7-4 4-1 1-2-3-1 2-1 3 2 1 3 4 3 8-7z" fill="#4E5567"/>
<path transform="translate(1334,815)" d="m0 0 4 1 58 58 5 4v2l-9-2-15-6-14-8-13-12-6-7-7-14-3-13z" fill="#212E36"/>
<path transform="translate(898,1467)" d="m0 0h1v12l-1 13-4 8-2-1 1-7-7 1-7-3v3l-10 1h-9l1-3 14-4-10-1-4-2 1-4-11-2-4-2h-5l-1 2-3-3-6-1-1 4-4 2h-5v-7l2-4h9l17 1h24l11-1h10l2 2z" fill="#3B5963"/>
<path transform="translate(273,1499)" d="m0 0 9 1 15 5 12 7 4 3 4 2-2 4v14l-4 4-5-2-13-8-14-5-9-3v-6l1-1v-8l1-1v-5z" fill="#3C5864"/>
<path transform="translate(459,1494)" d="m0 0 8 4 6 1 4-2h7l6-1v2l3-1v2h2v8l4 1 2-2h3l1 3-3 5 1 3h3l1 3-23-1-28-5-9-3-7-2 1-8 2 1 9-2 1-4 2 4 3-3z" fill="#455563"/>
<path transform="translate(270,1535)" d="m0 0h8l14 5 11 6 10 8 1 1v27h-1v-5l-5 1-1-3h-2l-5-5-9-7-15-6-6-2v-4l4-1-3-1-2-13z" fill="#3B5762"/>
<path transform="translate(1343,1361)" d="m0 0 32 11 15 4v1l-9 1v13l2 15 4 8 3 2v6l-12 1-13-2-2-3 1-5 1-6v-8l-2-7-1-12v-7l-1-3-19-7z" fill="#FBA8A6"/>
<path transform="translate(1457,866)" d="m0 0h2l1 4-6 24-3 21v39l3 25 3 15v5h-2l-3-9 1-2-1-1-2-15-3-7 1-16-2-8-1-11-1-7 1-3v-7l-8-3-1-7 1-10-5 2-4 1h-2v-2h2l2-4 4-5 16-14z" fill="#465564"/>
<path transform="translate(1114,761)" d="m0 0 1 2-3 7v36l-2 5-1 11 3 7 2 2 2 6 2 27 1 4-3 5-3 1-4-7-2-7 2-4-1-11h-3l-1 2-2-1v-3h-2l-1-2v-21l2-28 5-15z" fill="#8F4C8E"/>
<path transform="translate(356,296)" d="m0 0h3l1 3-8 4-24 9-26 11-35 15-17 7-7 3-4 33-2 10-3 21-5 43-2 16-1 18-2 9-2 17-2 2-2-2 2-26 6-53 3-20h2v-7l1-4 2-24 4-23v-8l3-6 19-7 19-8 24-10 10-4 12-5 17-8 10-3z" fill="#CC75CA"/>
<path transform="translate(410,598)" d="m0 0 8 4 12 11 7 10 7 17 4 13 9 3 3 3 2 8-3 7-6 4-1 29-4 15-7 12-5 5h-2l2-4 7-10 4-11 2-11v-14l-1-8-15-5-4-10 2-2 1-4 9-5 1-1v-8l-4-12-6-14-10-12-10-7-2-1z" fill="#B7636C"/>
<path transform="translate(490,1711)" d="m0 0h20l2 2v6l3 3 2 3v3h2l1 3h-22l-10 2-8 3h-5v-4l1-2h-6l-3-3v-4l-3-1 1-3 11-5z" fill="#3B5862"/>
<path transform="translate(806,140)" d="m0 0h5l1 3 6 2 9 6v2l5 2 11 9 1 3h2l1 4 4 2 3 3v2l4 2 3 5v3h2l5 7 4 13-1 3-9-12-9-10v-2h-2l-6-7-5-5-14-11-8-5-9 2-6 2-2 2-1-3 2-4 2-14z" fill="#FDFBFD"/>
<path transform="translate(237,383)" d="m0 0h1v11l-1 6 3 1 2-5h1l-1 12-3 28-4 29-6 44-1 13-4-2-3-2 2-20 2-9 2-29 3-21 3-27z" fill="#EAB7E5"/>
<path transform="translate(809,160)" d="m0 0h8l10 6 21 18 9 11 7 8 4 5 6 12 3 3 1 7h2v6h-3l-8-16-8-11-4-5-11-9-15-11-16-10-10-6-3-2 1-4z" fill="#9A5599"/>
<path transform="translate(939,631)" d="m0 0h5l-1 5-3 6-1 12 4 2v2l5 2 11 4h29l16-5h3v-2l10-5 7-5 5-5 4-2 1 5-8 10-14 9-11 4-17 3h-14l-16-3-12-5-9-7-2-3v-11l3-7z" fill="#3E5865"/>
<path transform="translate(1581,1157)" d="m0 0 2 1 4 18 6 30 1 9-2-3-5-19v-3h-2v-2h-2l-1-2v-6l-5 1-1 2h-2l1 3-1 3 2 7-2 9v5l4 3 4 12h2l2 4h-2l1 3-1 11 1 2h-2l1 4v11l-2-3-9-38-5-32v-17l5-6h3l2-4z" fill="#9E579D"/>
<path transform="translate(234,242)" d="m0 0h2v7l-2 2-3 10-5 10-3 10-2 3-1 6-3 2h-8l-7-1-7 1-1 4 6 2 8 2h2l1-3 4-1v5l-2 3-13-1-8-5 2-9 8-20 23-1 1-4-4-1-6-2v-1l10-1 4-8-15-1 1-2h12l4-2z" fill="#AB5CA9"/>
<path transform="translate(377,1313)" d="m0 0h2l2 10 11 23 12 22 9 16 2 5v9l-1 2-4-1-1-3h-2l-2-4v-4h-2l-2-6-4-9-6-13-8-16-4-6h-9l-2-1v-2h-2l1-5z" fill="#1E2C33"/>
<path transform="translate(1496,715)" d="m0 0h1l1 8 7 2h3l2-2 8-1 3 3 1 4h-14l2 1v9l-2 4-3 2-9 2h-4l-1 2h-2l-1 41-2-3-1-4v-25l1-4v-11l-6-7 4-9 5-4h2l1-5 2 2z" fill="#F6A3A2"/>
<path transform="translate(1017,502)" d="m0 0 7 3 10 8 9 9 4 6 3 3-7 5-7 9-3 2-4-1-4-8-4-11-4-10-1-11z" fill="#1E2C33"/>
<path transform="translate(1484,861)" d="m0 0 1 3-6 17-4 16-2 18v37l2 19 4 22 8 26 8 21 11 23 3 4v3h2l9 15 16 20 9 10h7l25-8 24-10 5-1-1 2-25 11-25 8-10 1-8-7-10-12-12-16-14-22-12-26-5-12-7-27-5-24-1-11-2-13v-28l4-26 6-21 4-10z" fill="#965195"/>
<path transform="translate(814,1587)" d="m0 0 20 2 14 4 6 4 2 2-1 5h-2v2l-6 4-6 1-15-5-19-2-1-3 5-5 4-2 1-4z" fill="#3A5862"/>
<path transform="translate(411,772)" d="m0 0 3 1v2l9 1 5 5 4 5 1 7-3 6-3 3-17 6-12 3-11 1h-26l-17-3-4-5 25 3 27-1 11-3 12-4h2l2-4v-11h-2l-2-5h-2l-2-3z" fill="#FCA8A6"/>
<path transform="translate(1562,735)" d="m0 0h7l4 5 1 3h13l7 3 6 7h2l1 9-3-3v-3h-2l-1 5-9 5h-11l-8-3-4-6 2-11v-6l-8-1 1-3z" fill="#F9A5A4"/>
<path transform="translate(1127,848)" d="m0 0 6 5 2 17v13l1 13 1 4-1 4 3 17 4 11v2l4 4 1 5 6 2 2 4 3 1 5-2 3 1-3 3h-4l-1 3-4-1v-2l-3-1v-2l-8-1v-2l-5-2-4-11-3-16-1-12-1-11-2-12-1-8z" fill="#B961B5"/>
<path transform="translate(1545,722)" d="m0 0 4 1-2 9-2 5-2 9-6 11-2 6h-5l-10-7-6-5 2-6 10-8 7-4 3-1 2-4z" fill="#FCA8A6"/>
<path transform="translate(236,1578)" d="m0 0 3 1v2h2l2 5 3 4 3 5v2l4 2 6 7v3h3l5 5 7 4 5 3h10l6-2v-5l5-1h3l1-4 6-2 1-14 3-2 1 2v14l-6 12-7 6-11 6-5-1-12-5-10-7-9-8-11-14-8-14z" fill="#233038"/>
<path transform="translate(226,1088)" d="m0 0h18l-1 16-1 7-4 3-6 1-2 6-3 4h-7l-18-8-12-6v-2l-4-2-10-6-7-7v-4l3 1 2 3 5 5 8 5 6 2v2l5 1v2l5 1 5 3 8 3h8l3-6 1-12-1-3 1-8z" fill="#9F589E"/>
<path transform="translate(233,1008)" d="m0 0 2 1-5 6h-2v2h-2l-4 8-5 7-3 7-4 4-3 4 1 6 4 5 3 12 5 6 11 2 21 1 5 2 1 2-5 3-12 2h-15l-7-3-7-6-4-9-3-11-2-12 2-7h2l2-5 12-14 11-12z" fill="#FBA7A4"/>
<path transform="translate(501,1699)" d="m0 0 4 2 13 16-3 1-3-2-2-4h-20l-16 4-11 5-7-8-2-4 5-1 10-4 11-3z" fill="#3C5863"/>
<path transform="translate(1581,809)" d="m0 0 4 1-1 4-9 8-9 4-27 3-1-1-10-2-3-1-3 10h-2l1-10 2-7-9-2-7-3 3-1 17 6 6-1 21 1 9-3 9-2z" fill="#F6A2A3"/>
<path transform="translate(1039,640)" d="m0 0 5 1v10l-5 16-1 1-4 35v41l4 32 9 36 8 21 3 9v2l3 1 5 10v2h-2l-12-22-10-26-5-17-4-23-2-16v-8l-1-4v-26l2-26 2-12 2-10 6-22 1-2-4-1z" fill="#E19CDC"/>
<path transform="translate(246,1093)" d="m0 0h7l1 1v17l1 4-1 10 1 4-2 4-5 1-1 3-3 1-3-3-12-3-2-3 3-6 2-2 9-1 1-3h2l1-10z" fill="#C76AC5"/>
<path transform="translate(1259,1498)" d="m0 0 5 5 9 13 9 12 12 14 14 15 13 11 11 9 11 8 20 12 16 8 20 8 24 7 14 3 16 2 14 1v1h-19l-25-4-22-6-24-9-21-11-18-11-13-10-10-8-25-25-8-10-12-16-11-17z" fill="#E1D3E3"/>
<path transform="translate(966,419)" d="m0 0h9l1 3v4l1 3-3 4h-7l-8 3-2 2-9 1-8-1-7-4v-2l8-6 11-5z" fill="#455563"/>
<path transform="translate(351,672)" d="m0 0h6l7 2 2 4v9h-2v5l-9 3-5 1-9-3-3-2-2-4v-6h2l2-4h2l1-3z" fill="#B9646C"/>
<path transform="translate(169,1094)" d="m0 0 7 6 11 7 3 2v2l6 2 20 9 4 6-1 3h3v3l6 2-2 3-9-3-21-11-14-10-8-8-4-8z" fill="#C76CC5"/>
<path transform="translate(338,878)" d="m0 0h2l2 7v5l-4-6-3 3-4 7-1 13v7l-1 2-1 13-3 12-3 6-7 7-4 10-7 3-9 3-4-1 7-4 5-3 5-5 7-10 4-5 2-11v-12l2-11 4-19 3-7z" fill="#FCA8A6"/>
<path transform="translate(464,1671)" d="m0 0h23l4 5v4l-18 1-19 5-8 3-5-2-4-7v-2l16-5z" fill="#3B5963"/>
<path transform="translate(269,1521)" d="m0 0 17 4 16 8 9 6 3 6v10l-8-6-14-8-14-5-8-1z" fill="#3C5863"/>
<path transform="translate(274,1483)" d="m0 0 5 3 14 5 14 8 8 7 3 4v5l-5 1-14-9-13-5-9-2h-5v-2l2-1z" fill="#3B5762"/>
<path transform="translate(410,1462)" d="m0 0h1l1 10 2 2h5l4-4 8 8 2-1-1 8-2 2-3 14-2 1-11-3v-2h-2l-3-6z" fill="#485564"/>
<path transform="translate(370,864)" d="m0 0 6 2 8 5 6 10 2 12 1 19v28l-2 7-6 12-12 16-10 11-3 4-2-1 5-8h2l2-4 8-11 7-11 6-12 2-8v-16l-4-30-2-6-4-6-9-6z" fill="#FCA8A6"/>
<path transform="translate(855,683)" d="m0 0 1 4-4 14-3 11-2 11-3 12-2 5-2-2-8-20-6-13 7 2 2 3h-2l3 3 2-1 1-7 1-2h2l1-3h2l5-12z" fill="#465564"/>
<path transform="translate(921,629)" d="m0 0 2 1-1 6-13 14-8 11-10 15-15 28-11 26-7 24-6 35-2 14-2 3-1-1-1-9 4-20 3-16 7-27 5-11 7-17 8-16 2-3h2l2-7 9-15 3-4h2l1-4h2l1-4 3-1 1-5 4-1 2-4 1-4 5-1z" fill="#E5A9E0"/>
<path transform="translate(1704,300)" d="m0 0 2 2 2-1 1 6-1 2h2l1 8 4 10 2 10 2 8 3 13 1 11 2 3 2 13 2 2 1 10-3 4-2-15h-2l-11-41-1-11h-2l-6-24-1-8z" fill="#A55BA4"/>
<path transform="translate(186,311)" d="m0 0h14l5 2-1 4h-2v3h-10l-5-4-2-1v3l6 2 11 4-5 5-5 2 5 2-4 8h-7l-9-7 7-20z" fill="#C578C2"/>
<path transform="translate(334,217)" d="m0 0h12l3 3-4 1-16 1-5 1 2 2-26 1-6 2v1l-19 1h-14l5 2v1l-25 1-11 3-2-3 7-3 10-2 24-3 28-4 28-3z" fill="#ECBEE7"/>
<path transform="translate(398,658)" d="m0 0 4 2v2l4 2v2h3l2 6 5 2 2 5 3 2-2 4h-2v2l-9 4-6-2-2-4-2-9-2-6-1-11z" fill="#B9646C"/>
<path transform="translate(1193,841)" d="m0 0 3 1 2 8 5 38 1 6v16l-2 3-1-8-2-20-3-11-1-5-3-6-5 2-4 3h-3v2h-2v2l-10 2-9-3 2-1 7 1 8-2v-3l5-1 2-5h2l2-4 5-13z" fill="#9F589E"/>
<path transform="translate(262,341)" d="m0 0 1 2h2l-1 4-10 4-4 2-2 3-3 29-1 10-3 7-4-2-1 2 2-21 4-33 10-5h4l1 2 1-2z" fill="#EDC2E8"/>
<path transform="translate(703,1404)" d="m0 0h1l-1 10-6 25-8 23-8 18-9 17-8 12-11 15-14 15-18 18-17 13-14 9-2-1 17-12 13-10 8-8 7-6 7-8 7-7 10-13 11-17 12-22 10-25 7-22 4-17z" fill="#FCF9FC"/>
<path transform="translate(1060,1621)" d="m0 0 2 1 2 8v21h2v6l2 6h7l9-2 5 1 1 4-16 6-9 6h-2v2h-2l-1-28z" fill="#222F37"/>
<path transform="translate(939,631)" d="m0 0h5l-1 5-3 6-1 12 4 2v2l5 2 11 4 20 1-1 2 1 3h-6l-3 1-16-3-12-5-9-7-2-3v-11l3-7z" fill="#5A5672"/>
<path transform="translate(356,296)" d="m0 0h3l1 3-8 4-24 9-26 11-35 15-17 7-7 3-3 16-2 1v-15l3-6 19-7 19-8 24-10 10-4 12-5 17-8 10-3z" fill="#C76AC4"/>
<path transform="translate(410,244)" d="m0 0h26l19 2 18 4 22 8 15 8 17 12 11 10 4 5-1 2-11-11-18-13-18-10-16-6-21-5-12-2-54-1v-2z" fill="#6D7086"/>
<path transform="translate(815,158)" d="m0 0 5 1 6 4 10 8 7 6v2l4 2 4 4v2h2l7 8 10 13v-2l1-4 4 6 2 6 3 6 3 3 1 11v2l1 7h12l6 2v2l-3-1h-16l-6-8v-2h2v-6h-2l-2-6-3-4-7-13-9-11-9-10v-2l-4-2-7-7-10-8-10-6-5-1z" fill="#ECBCE6"/>
<path transform="translate(1014,286)" d="m0 0 4 1-14 5-15 9-2 1h-6l-1 3h-2l-1 5 8-1-3 2-7 2h-7l-8-13 1-2 4 1h7l10-4 27-8z" fill="#EDBFE7"/>
<path transform="translate(179,861)" d="m0 0 1 4-7 45-3 23-1 3h-2l-3-5-1-6v-12h4l1-8 3-19 4-18 3-6z" fill="#1F2D35"/>
<path transform="translate(341,220)" d="m0 0h9l1 2-9 2-23 3h-10l-4 2-21 3-6-1v2l-13 2h-12l-2 2-12 2h-8l-1-2 3-2 8-2 20-1v-2l31-2 3-2 5-1 24-1-3-2z" fill="#FEFEFE"/>
<path transform="translate(1138,1697)" d="m0 0h2l-1 9-4 11-8 10-10 7-13 5-9 1-11-2-9-6-6-9 1-3 10 11 13 4 13-2 12-5 9-8h2l2-5 4-8z" fill="#3B434F"/>
<path transform="translate(1479,1063)" d="m0 0 3 4 13 25 14 21 6 8-1 3-10 1h-16l-23-3-19-4-15-5-16-8-9-7-3-3 1-2 11 9 19 9 19 6 24 4 10 1h12l12-1-6-9-12-19-14-27z" fill="#955194"/>
<path transform="translate(360,989)" d="m0 0h2l-1 6-4 9-6 12-11 16-11 13-8 8-8 7-14 10h-2v2l-17 9-9 3h-4v-7l3 1-2 4 11-4 12-6 11-7 8-6 10-9 5-5h2l2-4 9-10 10-15 9-17 2-5h-2l-2 4-6 5-7 8-16 16v-3l11-11 7-8z" fill="#924E91"/>
<path transform="translate(709,1516)" d="m0 0 1 2-10 16-11 13-7 8-14 13-13 10-17 11-18 10-17 8-13 5-3-1 25-11 20-11 11-7 12-8 12-10h2v-2l8-7 15-15 13-18z" fill="#FBF5FA"/>
<path transform="translate(1709,334)" d="m0 0h2l4 18 8 30v4h2l3 15v4h2l3 15v5l-4-2-4-8v-3h-2l-6-10 1-3 5 5h3l-4-8-2-11-2-5-2-11-3-11 1-5h-2l-2-3-1-12-1-2z" fill="#E7AFE2"/>
<path transform="translate(837,560)" d="m0 0 5 5 9 12-1 2h-6-2l-7 4-6 2-2 5-7 10-11 11-11 7-17 8v-3l16-7 11-7 11-11 10-16 6-16z" fill="#645376"/>
<path transform="translate(1615,278)" d="m0 0h2l2 3h5l7 2 8 1 9-1 2-1v2h6v2l7 2v3l5 1 4 3h-8l-31-5-12-2-5-4z" fill="#A259A1"/>
<path transform="translate(1208,877)" d="m0 0h1l3 25 1 14-1 7-2 3h-2v-3l-4 1-1-1-9 4-6 6-2-1 14-14 3-8 1-15 4-2z" fill="#BA62B6"/>
<path transform="translate(1545,774)" d="m0 0h8l1 1v7l-10 6-10 2-5-3-4-5 1-5 5-2z" fill="#FCA8A6"/>
<path transform="translate(1829,1202)" d="m0 0h2v17h-1v-11l-7 5-4 4-9 3-14 8-21 10-9 4-8 4-19 8-23 9-4-1 9-4 13-5 15-7 10-4 9-4 8-4 13-6 16-8 10-6h2l1-3 5-3 5-4z" fill="#B961B5"/>
<path transform="translate(458,926)" d="m0 0 1 3-5 6h-2l-1 3-5 2-3 1v2l-6 3h-7v2l-3 1h-24l-9-1-1-7 8 1v2h11l2-1 17-1 12-5 9-6z" fill="#B25EAE"/>
<path transform="translate(1484,861)" d="m0 0 1 3-6 17-4 16-2 18v37l2 19 4 22 4 14-1 5-2-3-8-37-1-11-2-13v-28l4-26 6-21 4-10z" fill="#924E91"/>
<path transform="translate(216,250)" d="m0 0h9l5 1-2 6-2 3-8 1 8 3-1 4-3 1h-19l3-9 2-5 7 1z" fill="#ECBEE7"/>
<path transform="translate(1488,1086)" d="m0 0h2l10 17 7 10 5 8-1 1-12 1h-12l-6-1 4-1v-2h2l1-3 4-1v-3l6-2v-3h-2v-3l-2-1 1-3-6-10z" fill="#445563"/>
<path transform="translate(1144,681)" d="m0 0 6 4 12 9 3 1-1 4-5 5-9 10-6 7-2-3 1-9 2-2-1-2 9-6-3-8-6-7z" fill="#495465"/>
<path transform="translate(831,1556)" d="m0 0h15l14 3 12 6 2 5-5 1-8-4-10-3-15-1h-9l-3-4z" fill="#F9EDF8"/>
<path transform="translate(1458,874)" d="m0 0 1 4-4 18-2 16-1 13v15l2 26 3 20 5 23 7 24 7 20 3 7-1 3-5-11-10-30-7-28-4-21-2-19v-39l3-21z" fill="#945093"/>
<path transform="translate(419,746)" d="m0 0h5l-2 2-11 3 2 15v5l2 1-3 1-2-15-9 1h-9l-17-3-10-4-2-3 3-1 10 3 17 1 13-1 6-3z" fill="#B5616E"/>
<path transform="translate(166,1023)" d="m0 0h1l1 6 2 1 4 10 7 9 8 6 8 2-2-3-5 1v-3l-2-2v-7l2-2 6 1 5 3-1 7-1 6h2v2l5-1 2 9-2-1-1-5-10-1-12-7-7-6-7-10-2-2z" fill="#A0599C"/>
<path transform="translate(820,1572)" d="m0 0h18l14 3 10 5 3 4-1 4-6-2-12-5-14-2-10-1z" fill="#F8EDF7"/>
<path transform="translate(907,254)" d="m0 0 5 1 5 2v2l3 1 1 4 4 2 7 6 5 7 2 1 1 4 4 2 5 9 4 4 1 4 3 1v2h2l4 6 1 5h-2l1 4 5 2 6 1-3 2-5 1-7-10-6-10-8-12-13-17-11-12-10-9z" fill="#D17FCF"/>
<path transform="translate(510,638)" d="m0 0 6 2 3 2v2l4 2 4 4 3 1v2l5 1 8 4 11 3 5 2h22l-2 4h-13l-19-3-12-5-11-6-15-11z" fill="#FBA8A6"/>
<path transform="translate(885,245)" d="m0 0h15l9 3 4 2v2l4 1 7 4v2l4 2 10 10 1 5-5-3-9-8-4-1-2-4-2-1v-2l-5-1-20-7-7-2z" fill="#A0589F"/>
<path transform="translate(418,272)" d="m0 0h9l14 3 17 5 23 11 13 9 9 8 4 5v2l-3-1-6-7-17-11-17-9-15-6-18-5-13-3z" fill="#445060"/>
<path transform="translate(270,1516)" d="m0 0 8 1 14 4 14 8 7 5-2 5-5-2-13-8-14-5-9-3z" fill="#F8EAF6"/>
<path transform="translate(814,1587)" d="m0 0 20 2 14 4 6 4 2 2-1 5-6-2-10-4-14-3-9-1-1-5z" fill="#F8ECF7"/>
<path transform="translate(276,1481)" d="m0 0 8 1 13 5 12 7 9 7 1 4h-2l2 4-1 4-4-7-10-8-16-8-12-4-1-4z" fill="#F9ECF7"/>
<path transform="translate(270,1535)" d="m0 0h8l14 5 11 6 10 8 1 1v17h-1v-12l-5-2v-2l-4-2-13-8-14-5-6-2z" fill="#F8E8F6"/>
<path transform="translate(1472,286)" d="m0 0 11 1 23 4 14 3v1l-10-1-11-1-7-2h-13l2 4 6 14 8 12 9 15-1 2-7-3-2-7-1-4-6-11-6-9-9-15z" fill="#EDBEE7"/>
<path transform="translate(491,1679)" d="m0 0 3 4 1 3h-6v-2l-20 3-18 6-5 2-2-5 10-5 19-5z" fill="#F9EBF7"/>
<path transform="translate(1102,1643)" d="m0 0h15l6 1-1 4-25 1-18 4-8 3h-4l1-5 19-6z" fill="#F8EAF6"/>
<path transform="translate(487,1695)" d="m0 0h14l1 4-1 1-21 2-17 5-6 3-4-2v-3l8-4 13-4z" fill="#FAEFF8"/>
<path transform="translate(1093,1603)" d="m0 0h16l7 2 1 4h-27l-16 4-9 4h-2v-5l15-6z" fill="#F9EEF8"/>
<path transform="translate(273,1499)" d="m0 0 9 1 15 5 12 7 4 3 4 2-3 6-9-6-10-6-14-5-9-2z" fill="#FAF0F8"/>
<path transform="translate(462,1666)" d="m0 0h20l4 2-1 3-21 1-15 3-9 3h-4l1-5 10-4z" fill="#F9ECF7"/>
<path transform="translate(806,140)" d="m0 0h5l1 3 6 2 9 6v2l5 2 11 9 1 3h2l1 4 4 2 3 3v2l4 2 3 5-1 2-4-4v-2l-3-1-8-8v-2h-3v-2l-4-2-3-5-2-1v-2l-5-2-9-6-7-1 1 3-2 2v-2l-4-1-2-3-1-4z" fill="#EEC1E8"/>
<path transform="translate(1572,1208)" d="m0 0 6 5 4 12h2l2 4h-2l1 3-1 11 1 2h-2l1 4v11l-2-3-9-38z" fill="#9F589E"/>
<path transform="translate(1102,1622)" d="m0 0 15 1 3 3v2h-24l-15 3-11 4h-6l1-4 16-6 10-2z" fill="#FAEFF8"/>
<path transform="translate(493,1191)" d="m0 0 2 3 11 43 8 30 10 43 4 18v10l-2 1v-7l-11-49-13-52-9-35z" fill="#2C454D"/>
<path transform="translate(1089,1585)" d="m0 0h18l8 3 1 3-2 1-9-2h-11l-16 3-15 6-3 1-1-4 4-3 17-6z" fill="#F9EEF8"/>
<path transform="translate(810,1604)" d="m0 0h10l16 4 10 5 1 1v5l-2 1-15-6-14-3-6-1 1-4z" fill="#F9EDF8"/>
<path transform="translate(818,1580)" d="m0 0 7 1h1 9l4 2v2l4-1 6 3 1 6-8-1-14-3-12-1-2-1 2-5z" fill="#2E464F"/>
<path transform="translate(490,1711)" d="m0 0h20l2 2v3l-21 1-16 4-8 3-3-2 1-3 11-5z" fill="#F8EAF6"/>
<path transform="translate(337,1017)" d="m0 0 2 2-8 10h-2v2h-2v2h-2l-2 4-4 2v2h-2v2h-2v2h-2l-2 4-15 12-4 1 2-4 9-9 8-7 13-13 7-8 3-3z" fill="#1F2F36"/>
<path transform="translate(801,1613)" d="m0 0h15l11 4 5 3-1 5-7-1-14-3-13-1 1-4z" fill="#314952"/>
<path transform="translate(1123,258)" d="m0 0 2 1-2 8-6 9-15 1 3-2 10-2-2-1-2-3h-2l-8-1-2-1h-8v-1l17-4 9-3z" fill="#ECBEE6"/>
<path transform="translate(503,1724)" d="m0 0 11 1 5 3 1 3h-22l-10 2-8 3h-5v-4l16-6z" fill="#F7E4F4"/>
<path transform="translate(1130,1633)" d="m0 0 2 3 7 28v4l-6-2-5-3-1-6v-21l3-1zm-1 8 1 17h1v-14z" fill="#3B4854"/>
<path transform="translate(1520,294)" d="m0 0 17 4 6 3 10 7 26 4 25 3 20 3v1l-16-1-22-2-32-4-9-5v-2l-5-2-1-3-15-2-9-2v-1z" fill="#E8B2E3"/>
<path transform="translate(270,1551)" d="m0 0 12 2 12 5 11 8 3 4 1 6-4-1-5-5-9-7-15-6-6-2z" fill="#F8E8F6"/>
<path transform="translate(349,222)" d="m0 0 3 1-12 3-30 4-34 5-36 5h-6v-1l13-3v-1l8-1h10l11-2 2 1v-2h9l18-3 4-2h12z" fill="#EEC1E8"/>
<path transform="translate(838,1564)" d="m0 0 5 2 9 4 2 1v2l4 2v2l-6-1-14-3h-16l-1-1v-5l4-2h12z" fill="#314952"/>
<path transform="translate(1719,1098)" d="m0 0 11 2 9 4 11 7 12 9 1 2-3 1-3-1-3-3v-2l-5-2-3-1v-3l-4-1-14-7-1 2h-4l-5-1-3-1-8 2h-9v-3h9l7-2h5z" fill="#DB8AD6"/>
<path transform="translate(1507,1061)" d="m0 0 4 5 6 8 4 7 7 10 5 6 8 10 5 5h6l5-1 3 1-1 2-7 2h-7l-8-8-11-14-11-15-4-7v-2h-2l-2-4z" fill="#415663"/>
<path transform="translate(1428,389)" d="m0 0h24v1l-31 2-25 5-18 6-15 7-12 7-13 10-9 9h-2v2h-2l2-4 12-11 10-8 15-9 20-8 17-5z" fill="#9F7CA6"/>
<path transform="translate(334,217)" d="m0 0h12l3 3-4 1-16 1-5 1 2 2-38 1 4-3 11-2 22-2z" fill="#E9B5E4"/>
<path transform="translate(822,1578)" d="m0 0h10l14 2 16 7 1 2-3 2h-4l-2 3-4 1-2-2h2l-1-6-8-2h-2v-2l-10-1-5 1-4-4z" fill="#405866"/>
<path transform="translate(863,730)" d="m0 0 1 4-6 20-6 35-2 14-2 3-1-1-1-9 4-20 3-16 3-11h2l2-10z" fill="#EDBFE7"/>
<path transform="translate(1031,746)" d="m0 0 2 2 5 36 7 26 5 14v2h2l5 11 1 7 3 1 5 10v2h-2l-12-22-10-26-5-17-4-23-2-16z" fill="#E9B3E3"/>
<path transform="translate(208,307)" d="m0 0 3 1-1 4-4 11-5 8-2 1h-7l-4-2 8-1 5-4-13-5-3-2v-3l5 2 2 2 10 1v-3h2l-1-4-3-1-14-1v-2l7-1 4 1h7z" fill="#B460B1"/>
<path transform="translate(1655,955)" d="m0 0h2l11 17 10 19 13 28 1 3-4-2-10-20-4-9-6-12v-2h-2v-3h-3l-2-5-2-1-3-7z" fill="#BC66B9"/>
<path transform="translate(445,769)" d="m0 0 6 2 9 7 11 8 11 9 14 12 5 4 7 8 6 6v3l3 1-1 4v-2h-2l-7-9-8-9-8-6v-2l-4-2-9-8-16-12-5-4-3-1v-2l-5-2-4-2z" fill="#DD92D9"/>
<path transform="translate(1030,304)" d="m0 0 1 3 6-2 7-1 2 2-45 12-23 6h-3v-2l12-3h4v-2l6-2 2-2 4 1v-2l6-3h4 10l2-4 5 1z" fill="#BF6ABB"/>
<path transform="translate(524,1068)" d="m0 0 1 4-4 12-9 14-11 12-8 6-14 9v7l8 31 2 7v6l-2-3-10-40-1-8 6-5 10-6 3-1 1-3 8-7 10-12 4-7 3-8z" fill="#2C454D"/>
<path transform="translate(1532,877)" d="m0 0 15 1 25 1v2h-7l-2 4-6 1h-8l-7-2h-2l-1-2-6-2z" fill="#435563"/>
<path transform="translate(461,1510)" d="m0 0h7v2h10l10 1h8l7 7-19-1-18-3-8-3 3-1z" fill="#435867"/>
<path transform="translate(172,876)" d="m0 0h1v7l-2 8-2 14-2 8-3 1-2 4v-32l2 3 5 1 1-7z" fill="#2D454D"/>
<path transform="translate(811,1596)" d="m0 0 11 1 13 4 2 4-1 2-29-3-1-3z" fill="#2D464E"/>
<path transform="translate(1038,997)" d="m0 0h5l1 9 3 24 1 16-2-2-5-23-3-17-2-6z" fill="#1E2C33"/>
<path transform="translate(1117,1564)" d="m0 0 2 2 3 24 3 17v4h-2l-4-8v-12h-2l-1-4h-2l1-7-1-6v-9z" fill="#26323B"/>
<path transform="translate(1064,751)" d="m0 0h2l2 6-2-1 2 18 4 19 5 16 5 14 12 25h2v5l-4-4-9-17-3-7-3-5v-7h-2l-4-11-3-17-3-15-2-18z" fill="#E5A7DF"/>
<path transform="translate(1654,1394)" d="m0 0 2 1-4 5-1 4h-2l1 14-5 2h-3v2l-4-1-2-4 3-5h2l2-6 7-9z" fill="#4C5668"/>
<path transform="translate(824,558)" d="m0 0 1 3-8 16-7 10-5 5-11 9-11 7-10 4-3-3 9-3 7-3 11-8 4-4h2l2-4 8-11 9-15z" fill="#934F92"/>
<path transform="translate(1118,620)" d="m0 0h5l3 20 2 7v4h-2l-1-5-2-1-3-8-4-4-1-3-4-2v-3z" fill="#455563"/>
<path transform="translate(1691,1024)" d="m0 0 3 1 14 33 9 25v6h-2l-7-21-1-1v-5h-2l-4-11-2-5v-4h-2l-1-5-2-3-2-6z" fill="#BD66B9"/>
<path transform="translate(155,389)" d="m0 0 2 1 10 1 2 1v6l-3 4v5l-5-1-5-4-3-7z" fill="#DB96D7"/>
<path transform="translate(319,777)" d="m0 0 2 1v2h3v2l2 1h-2v4h5l-1-6 6 1-1 10h-2l1 5-5-2h-12l2-3h2v-4l-2-1 3-1v-5l-2-3z" fill="#4A5565"/>
<path transform="translate(1097,632)" d="m0 0 2 1v3l-6 3-4 6-5 4-5 5-3 4-3 10-1 10-1 3h-2l-1 4-1-7 1-5h2l2-10 7-18 9-6 7-4z" fill="#445563"/>
<path transform="translate(343,1098)" d="m0 0 8 1 12 2 29 2 22-2 16-1v1l-23 4-9 1h-16l-19-2-18-4z" fill="#934F92"/>
<path transform="translate(1766,1462)" d="m0 0h1l1 6-4 16-3 7-2 5h-2l-2 5-16 16-18 11-3-1 19-12 7-6 7-9h2l2-6 2-4h2v-4h2v-5h2l1-15z" fill="#2C454D"/>
<path transform="translate(1609,1200)" d="m0 0 3 4 6 10 5 2h9l9-3 9-2 9-3h10l-2 2-28 8-11 2h-5l-8-5-6-12z" fill="#DB89D6"/>
<path transform="translate(870,214)" d="m0 0 4 1 3 4 5 2 2 8v5 2l1 7h12l6 2v2l-3-1h-16l-6-8v-2h2v-6h-2l-2-6-3-4z" fill="#E6B3E1"/>
<path transform="translate(1338,1636)" d="m0 0 9 3 25 9 20 5 22 3 25 2v1h-26l-29-5-24-7-13-5-9-5z" fill="#F1E1F0"/>
<path transform="translate(1259,1498)" d="m0 0 5 5 9 13 9 12 12 14 14 15 1 3-4-2-15-15-8-10-12-16-11-17z" fill="#FCFAFC"/>
<path transform="translate(174,385)" d="m0 0 5 3-2 6h-2l1 7v3l-5 2-5 1-1-5 3-4 1-6-7-1-4-2v-2l11 3 3-1z" fill="#C66DC4"/>
<path transform="translate(176,335)" d="m0 0 1 3 6 2 7 3 5 1v3l-5 1-1 2h-9l-8-2 1-5z" fill="#E9B5E4"/>
<path transform="translate(199,277)" d="m0 0 5 2 14 5v3h-4v2h-19l3-9z" fill="#F6E4F4"/>
<path transform="translate(480,254)" d="m0 0 7 1 12 5 11 6 17 12 11 10 4 5-1 2-11-11-18-13-18-10-14-5z" fill="#E4C4E2"/>
<path transform="translate(230,1529)" d="m0 0h4v5l-1 3v10l-1 14 2 1h-2v2l2 1h-2v2h-2l-3-14v-8z" fill="#24323A"/>
<path transform="translate(431,1654)" d="m0 0 2 4 7 3v2l4 2 2 3h-3l1 3-7 3-2 3-6-12h1z" fill="#3A5862"/>
<path transform="translate(285,1428)" d="m0 0h3l-1 3h-3l-2 10-5 26-2 3v-10l1-16v-9l5-5z" fill="#202E36"/>
<path transform="translate(202,269)" d="m0 0 3 1 14 1 3 1-2 6-4 3-7-1-7-4-2-2z" fill="#F9EDF8"/>
<path transform="translate(404,1639)" d="m0 0 2 1 2 4v13l1 5h-3-3l-2 1-2-4v-3h-2l2-5z" fill="#4B5968"/>
<path transform="translate(357,994)" d="m0 0h2l-3 9-10 18-9 12-8 9h-2l2-5 5-6 8-11 3-4h2l1-5 6-13z" fill="#1F2E35"/>
<path transform="translate(209,260)" d="m0 0 9 1 8 3-1 4-3 1h-19l2-5z" fill="#FBF6FB"/>
<path transform="translate(651,1577)" d="m0 0 1 3-19 12-23 12-20 8-3-1 25-11 20-11 11-7z" fill="#FDFCFD"/>
<path transform="translate(1609,1132)" d="m0 0 2 1-5 4-9 2-4 2h-5v2h-3l-1 2h-2l1 4 4 4 1 4h-2l-1-3-6-2v-2l-4-1-1-4h2v-2l13-5z" fill="#DB89D6"/>
<path transform="translate(192,294)" d="m0 0 2 4 7 4h3l1 7-1 1h-7l-10-1 3-10z" fill="#F6E6F5"/>
<path transform="translate(237,1463)" d="m0 0 2 2 1 3v35l-1 7-3 2v-27l-1-17z" fill="#2C3742"/>
<path transform="translate(277,976)" d="m0 0 2 1-15 11-6 4h-2v2l-16 14-2 3h-3l1-4 11-11 15-11z" fill="#BB666C"/>
<path transform="translate(906,466)" d="m0 0 4 2h9l-2 5-4 9-4 13h-1l-1-15v-12z" fill="#29363F"/>
<path transform="translate(814,1621)" d="m0 0 10 2 12 5 3 4-1 3h-5l-12-5-21-2v-1h23v-2l-9-3z" fill="#F7E8F6"/>
<path transform="translate(356,296)" d="m0 0h3l1 3-8 4-24 9-16 7-3-1 5-4 20-8 8-4 10-3z" fill="#C76DC5"/>
<path transform="translate(476,694)" d="m0 0 2 3-1 16-3 13-4 8-4-2-3-7-4 9-1-3 3-10 2-2 7 5 2-1 2-6z" fill="#57506E"/>
<path transform="translate(906,432)" d="m0 0 11 1 7 2-4 4h-10l-7-1-5-1-8 1v-2l5-3z" fill="#C86BC6"/>
<path transform="translate(164,366)" d="m0 0 8 3 9 1v-3l7 1-8 16h-8l-4-3 9-1 1-6-9-3-5-3z" fill="#BF66BD"/>
<path transform="translate(163,368)" d="m0 0 15 5 1 4-2 4h-9l-5-5-1-5z" fill="#ECBBE6"/>
<path transform="translate(186,311)" d="m0 0h14l5 2-1 4h-2v3h-10l-5-4-2-1-1 4-1-2z" fill="#FAF1F9"/>
<path transform="translate(268,1520)" d="m0 0 2 3 1 10-1 6 1 10 4 1v1l-7 1-3-3v-24z" fill="#2B444C"/>
<path transform="translate(295,1074)" d="m0 0 4 1 6 5h-3l-5-3 1 44 2 13-3-3-2-10-1-17z" fill="#8F4C8E"/>
<path transform="translate(1034,580)" d="m0 0 7 2 2 3-1 5-7 9h-3v-13z" fill="#293741"/>
<path transform="translate(898,436)" d="m0 0 5 1 7 1h12l1 1 20 4 9 2v1l-11-1-16-2-8-2h-28l-2 3-2-1 4-5z" fill="#945294"/>
<path transform="translate(234,242)" d="m0 0h2v7l-2 2-3 10-3 7-3-2 1-2-4-1-6-2v-1l10-1 4-8-15-1 1-2h12l4-2z" fill="#B762B4"/>
<path transform="translate(168,355)" d="m0 0 1 4 5 1 3 1v2h4l1 3-1 4h-9l-7-3 1-6z" fill="#F0CDEC"/>
<path transform="translate(1392,1611)" d="m0 0 31 9 14 3 16 2 14 1v1h-19l-25-4-22-6-9-3z" fill="#ECD6EB"/>
<path transform="translate(646,1528)" d="m0 0h2l-2 4-25 25-17 13-14 9-2-1 17-12 13-10 8-8 7-6 7-8z" fill="#FBF9FB"/>
<path transform="translate(1484,861)" d="m0 0 1 3-6 17-4 16-3 23-1 1-1 27h-1v-28l4-26 6-21 4-10z" fill="#965195"/>
<path transform="translate(1697,1267)" d="m0 0 3 1-19 6-16 4-14 2h-12l-14-3-3-3 5 1 6 2h18l3-1 18-2 4-2 11-2 4-2z" fill="#B961B5"/>
<path transform="translate(171,348)" d="m0 0 1 2 11 1 5 4-2 4-2 1h-9l-6-6z" fill="#EDC1E8"/>
<path transform="translate(1094,1193)" d="m0 0h1l1 66h-2l-1-4-1-53z" fill="#273941"/>
<path transform="translate(994,466)" d="m0 0 4 2 6 6v2h2l7 9 3 4 3 8-2 9h-1v-9l-5-2-10-5 3-1 8 3-8-14-10-11z" fill="#914F8F"/>
<path transform="translate(825,1481)" d="m0 0h6l-2 3 4 5v6h-2v5l-6-2-1-1v-5h-2l-1-4 1-4 3-1z" fill="#395862"/>
<path transform="translate(885,245)" d="m0 0h15l9 3 4 2v2l4 1 5 3-2 1-7-3-7-2 1 2-10-3-12-4z" fill="#C570C3"/>
<path transform="translate(1126,1653)" d="m0 0 2 4v6l-32 1-1-3 7 1 2-4 3-1 8 2 6-1 5 2z" fill="#23323A"/>
<path transform="translate(1763,1122)" d="m0 0 4 2 10 9 8 8 6 9 2 6-2 4-3-1 1-6-1-4h-2v-2h-2v-2h-2l-1-3-2-2-3-2v-3h-2v-2h-2l-2-3-4-2-3-3z" fill="#DC8DD7"/>
<path transform="translate(1484,1007)" d="m0 0 2 4 5 5v2h-2v4h2l6 15 4 11 2 3-1 3-3-3-10-23-6-19z" fill="#415663"/>
<path transform="translate(1449,951)" d="m0 0 2 3 3 25 3 15v5h-2l-3-9 1-2-1-1-2-15-3-7 1-13z" fill="#435563"/>
<path transform="translate(452,676)" d="m0 0 2 1-1 1-1 29-4 15-7 12-5 5h-2l2-4 7-10 4-11 2-10 1-1 1-26z" fill="#A1567E"/>
<path transform="translate(420,646)" d="m0 0h8l5 6-1 3h-10l-1 1h-5v-7z" fill="#A75A79"/>
<path transform="translate(1200,829)" d="m0 0h1l7 41v4l-4-2-1-6v-8l-2-9-1-2v-10l-3-1 2-4z" fill="#CC72C9"/>
<path transform="translate(1709,334)" d="m0 0h2l4 18 7 26v8l-2-1-2-5-2-11-3-11 1-5h-2l-2-3-1-12-1-2z" fill="#EBB9E5"/>
<path transform="translate(1729,1186)" d="m0 0 3 1-4 3-14 5-24 8-14 4h-4v-2l10-2 6-3h6l1-2 27-9z" fill="#DB89D6"/>
<path transform="translate(1463,1027)" d="m0 0 3 1 9 27 5 11v2l-4-2-5-11-4-10-4-14z" fill="#435563"/>
<path transform="translate(963,313)" d="m0 0h2l1 3 5 1h13l2 1v2l-7 2h-4v2h-7l-5-3-1-4z" fill="#B860B4"/>
<path transform="translate(924,255)" d="m0 0h5v2l5 2 2 3 3 1 4 5 6 9 5 9-1 2-12-16-1-3-4-2-5-5-5-3z" fill="#FDFDFD"/>
<path transform="translate(196,1120)" d="m0 0h5l1 3h6l9 3-2 1-1 6 2 1-5-1-13-7z" fill="#C66BC4"/>
<path transform="translate(910,1324)" d="m0 0h2v14l-1 24-2 12h-1v-32l1-16z" fill="#28333E"/>
<path transform="translate(174,1099)" d="m0 0 12 7 4 3v2l6 2 3 3-3 1 1 2-5 1-4-3-2-5-3-1-1-3h-2v-3l-5-2z" fill="#B961B5"/>
<path transform="translate(1478,297)" d="m0 0 5 5v2h2l4 8 10 15 5 9-1 2-7-3-2-7-1-4-6-11-6-9-3-5z" fill="#EDC0E7"/>
<path transform="translate(817,533)" d="m0 0 3 1 6 8-1 2-4-1 1-2-3 3-3 13-5 8h-1v-7l5-11z" fill="#3D4B5A"/>
<path transform="translate(202,329)" d="m0 0v3l-3 9-4 10-1-2-4-2h5v-3l-9-1-9-5 1-4 8 6 7 1 2-5v-3l4-2z" fill="#C468C1"/>
<path transform="translate(295,1505)" d="m0 0 6 2 12 8 4 2-3 6-15-10v-2l-5-4z" fill="#F8E7F5"/>
<path transform="translate(225,399)" d="m0 0 6 1 1 1v8l-1 7h-1v-8l1-4-26 2h-7l1-2z" fill="#E2A2DE"/>
<path transform="translate(903,245)" d="m0 0 16 2 7 4 3 4-4 1 1 3h-2v-2l-5-2-6-3v-2l-10-3z" fill="#ECBEE7"/>
<path transform="translate(1100,1284)" d="m0 0h2l4 21 1 9v12h-2l-1-3-2-21-3-11z" fill="#2A3540"/>
<path transform="translate(169,1094)" d="m0 0 5 5 2 4 4 2 4 5h2l4 8 4 3-1 2-11-8-8-8-4-8z" fill="#CA71C6"/>
<path transform="translate(1039,640)" d="m0 0 5 1v10l-5 16-1 1-2 15-2 7-1 12-2 3 1-16 2-12 2-10 6-22 1-2-4-1z" fill="#EAB7E4"/>
<path transform="translate(1812,1218)" d="m0 0h2v2l-13 8-12 5-13 7-7 3-5 2-4-1 7-4 10-4 25-12z" fill="#9F589E"/>
<path transform="translate(1574,875)" d="m0 0h6v2l-9 2h-24l-13-2v-1z" fill="#D987AD"/>
<path transform="translate(859,676)" d="m0 0 1 3-6 18-5 23-4 21-3 2-1-3 3-10 3-11 2-12 8-26z" fill="#945093"/>
<path transform="translate(1087,1645)" d="m0 0 3 1 1 4-15 4-5 2h-4l1-5z" fill="#F9EEF8"/>
<path transform="translate(926,1214)" d="m0 0 1 4-13 30-2 1 1-5 2-9 5-11v-2l2-1 2-6z" fill="#27333C"/>
<path transform="translate(1416,421)" d="m0 0 3 1-19 8-18 10-14 10-9 8-2-1 8-8 19-13 21-11z" fill="#857293"/>
<path transform="translate(190,1041)" d="m0 0h4l5 6-1 5-4 3h-4v-3l-2-2v-7z" fill="#7E4B82"/>
<path transform="translate(1080,1587)" d="m0 0 3 1-1 4-15 5-7 3-1-4 4-3z" fill="#F9EBF7"/>
<path transform="translate(1486,1006)" d="m0 0 5 1 6 2h7l4 2v2l-3 1h-13l-7-3z" fill="#2C454D"/>
<path transform="translate(394,942)" d="m0 0h3v2l28 2v2l-4 1h-18l-9-1-1-5z" fill="#9F589E"/>
<path transform="translate(1829,1202)" d="m0 0h2v17h-1v-11l-7 5-4 4-9 3-5 2 5-5 5-3h2l1-3 5-3 5-4z" fill="#B961B5"/>
<path transform="translate(1208,877)" d="m0 0h1l2 15v10l-3 4 3 5v2h-2v-3l-3-1-2-14 4-2z" fill="#CA70C8"/>
<path transform="translate(876,697)" d="m0 0 1 3-2 6-10 24h-2l-2 9-3 10-1-4 3-12 5-11 7-17z" fill="#E4A5DF"/>
<path transform="translate(410,244)" d="m0 0h26v1l-7 2h-38v-2z" fill="#DCACD8"/>
<path transform="translate(1542,777)" d="m0 0h10l-2 3-9 2-8 5-4-4v-4z" fill="#D4836C"/>
<path transform="translate(420,626)" d="m0 0h6l6 5v4h-7l-9-3 1-4z" fill="#203037"/>
<path transform="translate(1138,1697)" d="m0 0h2l-1 9-4 11-8 10h-3l2-6 3-1 2-5 4-8z" fill="#907D9B"/>
<path transform="translate(673,1490)" d="m0 0 1 3-9 15-12 16-4 4-2-1 10-13 11-17z" fill="#FDFBFD"/>
<path transform="translate(410,598)" d="m0 0 8 4 12 11 7 10 6 14-1 3-1-5-3-1-6-14-10-12-10-7-2-1z" fill="#A6597B"/>
<path transform="translate(1099,1057)" d="m0 0h1v37l-1 10-2-2v-20l1-21z" fill="#27333D"/>
<path transform="translate(292,1561)" d="m0 0h7l8 7 2 5v3l-4-1-5-5-8-6z" fill="#F5DEF2"/>
<path transform="translate(165,1040)" d="m0 0h1v28l3 1 2 9 1 7-2 4h-2l-3-19z" fill="#B770B5"/>
<path transform="translate(299,1519)" d="m0 0 5 5v2l10-1 1 1v9l-5-2-10-7-3-3z" fill="#475565"/>
<path transform="translate(194,289)" d="m0 0 8 1v1l-7 1-1 4 6 2 8 2h2l1-3 4-1v5l-2 3-13-1-8-5z" fill="#A85AA7"/>
<path transform="translate(1031,746)" d="m0 0 2 2 5 36 4 16-1 3-3-8-4-18-3-24z" fill="#EEC1E8"/>
<path transform="translate(434,941)" d="m0 0m-41 0 8 1v2h11l2-1 20-1v2l-6 2 2 2-9 1 4-1v-2h-19l-9-2v-2l-4 1z" fill="#B961B5"/>
<path transform="translate(356,899)" d="m0 0h4l-2 5-8 9-4 1v-6l4-7z" fill="#1F2E35"/>
<path transform="translate(179,331)" d="m0 0 12 1 1 5v2l-2 1h-6l-7-6z" fill="#FAF1F9"/>
<path transform="translate(185,319)" d="m0 0 6 1 5 2v5l-4 2-7-1-2-2v-5z" fill="#FAF1F9"/>
<path transform="translate(270,1516)" d="m0 0 8 1 8 2 1 5h-8l-9-3z" fill="#F7E3F4"/>
<path transform="translate(436,759)" d="m0 0 2 1-1 4-10 6 1 2-1 2-9 1-2-2 4-2h2l2-4h2v-2l6-3z" fill="#F6E6F4"/>
<path transform="translate(1572,717)" d="m0 0h9l4 4v7l-5-1-8-7z" fill="#212F37"/>
<path transform="translate(195,291)" d="m0 0 12 1 1 5-1 3-7-1-6-3z" fill="#FAEFF8"/>
<path transform="translate(994,205)" d="m0 0h5v3l-29 8h-5l3-3z" fill="#EEC4E9"/>
<path transform="translate(924,490)" d="m0 0h9l2 2v3l-10 4-5-1 3-7z" fill="#1E2D34"/>
<path transform="translate(341,220)" d="m0 0h9l1 2-9 2-23 3v-2l5-1-3-2z" fill="#FEFEFE"/>
<path transform="translate(1603,1579)" d="m0 0h2v4h-7l-1 5 2-1v3l-6-1-1 3 1 1-3 2-2-1v2h-2v-3l-2-1 10-8 7-4z" fill="#50546A"/>
<path transform="translate(391,1392)" d="m0 0 9 6v3h2l4 10-4-2-12-12z" fill="#1F2F36"/>
<path transform="translate(909,1270)" d="m0 0 2 2 1 9v21l-2-2-2-7v-17z" fill="#233038"/>
<path transform="translate(509,1090)" d="m0 0h3v5l-12 13-2 2h-3l1-4 3-3h2l4-10h4z" fill="#425663"/>
<path transform="translate(480,1082)" d="m0 0 3 1-14 7-14 5-20 5h-5l3-2 19-5 17-6z" fill="#934F92"/>
<path transform="translate(360,989)" d="m0 0h2l-1 4h-2l-7 8-26 26v-3l11-11 7-8z" fill="#955194"/>
<path transform="translate(1655,955)" d="m0 0h2l11 17 3 5v3l-3-1v-2h-2v-3h-3l-2-5-2-1-3-7z" fill="#AF5FAC"/>
<path transform="translate(421,624)" d="m0 0h7l6 7 1 6h-8l-13-4v-5l5-3zm-1 2-4 3v3l9 3h7l-1-5-5-4z" fill="#AA5B77"/>
<path transform="translate(1486,754)" d="m0 0h2v36l-2-3-1-4v-25z" fill="#D8878F"/>
<path transform="translate(1578,312)" d="m0 0 26 3 20 3v1l-16-1-22-2-15-2v-1z" fill="#E9B3E3"/>
<path transform="translate(329,729)" d="m0 0h2l4 33 1 8v15l-1 4h-2l1-8v-9l-6-42z" fill="#A75A7A"/>
<path transform="translate(1100,288)" d="m0 0h6l-3 2-30 8-13 4-4-1 7-3h5v-2l9-2h7v-2l7-2 8-1z" fill="#D381CD"/>
<path transform="translate(479,1674)" d="m0 0 6 1v2l4 1 2 2-18 1-10 2-3-1 1-2 8-1 4-1 1-2h2v2l2-2z" fill="#4C5568"/>
<path transform="translate(1662,1541)" d="m0 0 5 1 13 10 1 16-2-1v-7h-2l-3-7-5-5-3-1-4-5z" fill="#314952"/>
<path transform="translate(1482,1010)" d="m0 0h2l8 23 3 9-3-3v-2h-2l-4-9-4-12z" fill="#955094"/>
<path transform="translate(385,710)" d="m0 0 7 1 4 2 1 6-6 1-5-3-2-6z" fill="#FCA8A6"/>
<path transform="translate(1485,305)" d="m0 0 5 3 2 5 10 15 4 5 2 5-1 3-4-5-9-15-9-14z" fill="#DC8FD8"/>
<path transform="translate(800,212)" d="m0 0 10 4 4 4 1 9-1 5h-1l-1-7-4-6-7-4z" fill="#F9BEAE"/>
<path transform="translate(941,632)" d="m0 0h2l-5 10v10l-1-2-3-1-1-9 2-6z" fill="#445563"/>
<path transform="translate(262,341)" d="m0 0 1 2h2l-1 4-6 1-2-1-1 2-7 3h-3v-3l5-2v-3l6-1 1 2 1-2z" fill="#F6E3F4"/>
<path transform="translate(1517,702)" d="m0 0 6 2 1 4-12 3h-3v-5z" fill="#213038"/>
<path transform="translate(1588,1157)" d="m0 0 5 5 3 6v2h2l5 10 5 15-1 2-7-15-10-20-2-2z" fill="#DB89D6"/>
<path transform="translate(1361,408)" d="m0 0h2v2l-12 7-13 10-9 9h-2v2h-2l2-4 12-11 10-8z" fill="#D9B9D9"/>
<path transform="translate(155,389)" d="m0 0 9 3 1 3 3 1-4 1v3l-6-1v-2l-5-1z" fill="#FCF7FB"/>
<path transform="translate(1509,1070)" d="m0 0h2l9 15 12 15-1 2-5-5-11-14-6-9z" fill="#955094"/>
<path transform="translate(297,760)" d="m0 0 9 6 7 6v2h-8l-6-8-2-3z" fill="#EFCFEB"/>
<path transform="translate(824,558)" d="m0 0 1 3-8 16-6 8h-3l2-4 12-20z" fill="#914E90"/>
<path transform="translate(241,233)" d="m0 0h14l-4 4-12 2h-8l-1-2 3-2z" fill="#FDFBFC"/>
<path transform="translate(1083,1548)" d="m0 0h22l5 3 2 3h-3l-7-3-9-1-24 2 3-2z" fill="#1F2D34"/>
<path transform="translate(318,774)" d="m0 0 11 3 2 2 4 2-3 1h-3v5l-3 1-2-1v-7h-3z" fill="#3A5863"/>
<path transform="translate(1608,977)" d="m0 0 4 2 4 6 8 7-1 2-4 1-4-2-7-14z" fill="#4B5568"/>
<path transform="translate(986,502)" d="m0 0h8l3 3 1 7-6-1-7-6z" fill="#1E2C33"/>
<path transform="translate(1361,1598)" d="m0 0 6 1 16 8 9 4v2l-10-3-21-10z" fill="#EBD8EA"/>
<path transform="translate(959,568)" d="m0 0 4 1-6 9-5 1-3-4 1-4z" fill="#D4846C"/>
<path transform="translate(1647,292)" d="m0 0 11 1 18 2 25 5v2l-38-6-14-2z" fill="#E8B1E1"/>
<path transform="translate(1742,1106)" d="m0 0 11 7 10 8-3 2-3-1-3-3v-2l-5-2-3-1v-3l-4-1-3-3z" fill="#DB8CD6"/>
<path transform="translate(300,1066)" d="m0 0v3l-3 1v2l-17 9-9 3h-4v-7l3 1-2 4 11-4 12-6z" fill="#914D8B"/>
<path transform="translate(904,1404)" d="m0 0h1v12l-2 19-2 4-1-4 1-19 1-5z" fill="#2B3741"/>
<path transform="translate(1064,751)" d="m0 0h2l2 6-2-1 2 18 4 19 2 7-1 4-4-13-4-21-2-18z" fill="#EEC1E8"/>
<path transform="translate(855,752)" d="m0 0h1l-1 9-5 31-2 8-2-4 4-20 3-16z" fill="#DE93D9"/>
<path transform="translate(275,229)" d="m0 0h7l-1 3-3-1v2l-13 2h-10v-2l6-1v-2z" fill="#FEFEFE"/>
<path transform="translate(1778,1164)" d="m0 0 2 1-12 7-23 11h-3v-2l5-2h3v-2l9-4h3v-2h5l1-3 6-2z" fill="#DB89D6"/>
<path transform="translate(161,374)" d="m0 0 5 3 2 5 4 2-9-2h-3l1 6-3-1v2l4 1v1h-5l-1-5z" fill="#D496CE"/>
<path transform="translate(870,215)" d="m0 0 3 3 4 5 1 7h2v6h-3l-8-16z" fill="#CC79CA"/>
<path transform="translate(1609,318)" d="m0 0h21l18 3v2l-18-1-21-3z" fill="#E5A9E0"/>
<path transform="translate(703,1404)" d="m0 0h1l-1 10-6 25-3 5-1-3 7-25 2-11z" fill="#E9E0EB"/>
<path transform="translate(483,293)" d="m0 0 10 6 10 9 4 5v2l-3-1-6-7-12-8-3-4z" fill="#A992B0"/>
<path transform="translate(161,380)" d="m0 0 3 1 8 3-1 5-10-1-2-6z" fill="#FDFBFD"/>
<path transform="translate(249,342)" d="m0 0 3 2-5 3-4 1-3 16-2 1v-15l3-6 4-1v2l3-1z" fill="#C96DC7"/>
<path transform="translate(412,1625)" d="m0 0h2v7l4 11-1 3-2-2v-3l-2-1-3-5-2-1 1-5z" fill="#2A333E"/>
<path transform="translate(1758,1245)" d="m0 0 2 1-11 6-9 2-1 2-7 3-10 3-3-1 27-11z" fill="#9F589E"/>
<path transform="translate(1657,1345)" d="m0 0h5l4 5 3 9h-4l-3-7-6-3z" fill="#605777"/>
<path transform="translate(1175,849)" d="m0 0 4 2 1 7h-3l-2 4-1-2h-2v-7z" fill="#704676"/>
<path transform="translate(462,724)" d="m0 0 4 4 2 5h4l-2 4-4 2-2-3v-4h-4l1-6z" fill="#E3A5DE"/>
<path transform="translate(1668,1380)" d="m0 0 3 4 1 5h2l-1 3-15 1v-2l9-4z" fill="#DE93B2"/>
<path transform="translate(1512,1120)" d="m0 0 3 1-1 3-10 1h-16l-3-1v-2h14l12-1z" fill="#934F92"/>
<path transform="translate(1130,848)" d="m0 0 8 1 9 5-1 4-5-2-11-6z" fill="#914D90"/>
<path transform="translate(1109,769)" d="m0 0 1 2-4 9-4 12-6-1 1-2h2l3-9z" fill="#445564"/>
<path transform="translate(453,1711)" d="m0 0 4 2 2 4 4 2 4 4 1 6-3-1-3-5-4-4-4-2z" fill="#2E464E"/>
<path transform="translate(815,1629)" d="m0 0 9 1 9 4h6v2l-5 1h-7l-4-4-5-1z" fill="#3F5763"/>
<path transform="translate(1058,1595)" d="m0 0h1v9l1 6 1 2 1 4-1 4h-2l-2-5-1-16h2z" fill="#293640"/>
<path transform="translate(1114,1542)" d="m0 0 2 3 2 7-1 11-3-3-2-3 1-7z" fill="#B36BB1"/>
<path transform="translate(646,1528)" d="m0 0h2l-2 4-21 21-3-1 11-10 7-8z" fill="#B8ABC0"/>
<path transform="translate(920,438)" d="m0 0 19 4 13 3v1l-11-1-16-2-8-2v-2z" fill="#914E90"/>
<path transform="translate(998,313)" d="m0 0 6 2v2l-26 7h-3v-2l12-3h4v-2l6-2z" fill="#CA79C5"/>
<path transform="translate(1034,580)" d="m0 0 7 2 1 2-4 4-4 1-1 10h-1v-13z" fill="#784D6D"/>
<path transform="translate(163,368)" d="m0 0 6 2 1 8h2v2l-6-1-4-4z" fill="#F0CCEC"/>
<path transform="translate(1623,1533)" d="m0 0 1 3h2l1 5v14l-2 4h-1v-11l-1-10z" fill="#E28EAA"/>
<path transform="translate(203,1039)" d="m0 0h1v11l1 9-4 1v-2h-2l-1-4 3-8h2z" fill="#C86BC6"/>
<path transform="translate(1611,423)" d="m0 0 7 2h6l4 5-12-1-6-1-1-3h2z" fill="#BE68BA"/>
<path transform="translate(327,299)" d="m0 0h1v5h10l-4 3-7 3h-4l1-5z" fill="#EDC1E8"/>
<path transform="translate(1722,382)" d="m0 0 1 4h2l2 11v6l-3-3-3-9z" fill="#E5ACE0"/>
<path transform="translate(177,339)" d="m0 0 7 2 4 4-1 3-5-2-1-1-1 2-5-1 1-6z" fill="#FCF7FB"/>
<path transform="translate(1030,304)" d="m0 0 1 3 6-2 7-1 2 2-18 5h-5l2-6 5 1z" fill="#C672C2"/>
<path transform="translate(709,1516)" d="m0 0 1 2-10 16-6 7-2-1 13-18z" fill="#FEFEFE"/>
<path transform="translate(1109,1367)" d="m0 0 2 3v27l-2-4-1-11 1-4-1-4v-6z" fill="#1E2C33"/>
<path transform="translate(214,287)" d="m0 0h5l-2 5h-8l-14-2 1-2 18 1z" fill="#A459A3"/>
<path transform="translate(324,1027)" d="m0 0v3l-19 19-4 2 2-4 12-12 8-7z" fill="#934F92"/>
<path transform="translate(357,994)" d="m0 0h2l-3 9-6 11-2-1 3-9 3-6z" fill="#22333A"/>
<path transform="translate(1204,853)" d="m0 0h1l3 17v4l-4-2-1-6v-10z" fill="#CD75CA"/>
<path transform="translate(907,254)" d="m0 0 5 1 5 2v2l3 1 1 4 4 2 5 6-1 2-13-13-9-6z" fill="#EEB8DC"/>
<path transform="translate(283,233)" d="m0 0h6l-2 2-8 2-14 2-2-1v-2z" fill="#E09BDC"/>
<path transform="translate(1129,1637)" d="m0 0 1 4v8l1-5h1v20l-3-1-1-8v-16z" fill="#F0CBEB"/>
<path transform="translate(166,1041)" d="m0 0 2 3 1 11v7l1 4-4 2z" fill="#9F589E"/>
<path transform="translate(200,275)" d="m0 0 6 2 6 3 6-1 3-3 2 1-3 6h-8l-9-4-3-2z" fill="#A559A3"/>
<path transform="translate(325,1492)" d="m0 0h2l-2 5-3 6h-4v-2l-4-2 4-2h3v-2h2v-2z" fill="#3E5763"/>
<path transform="translate(325,1045)" d="m0 0h2l-2 4-13 12-11 7 2-4 6-4 12-11z" fill="#924E91"/>
<path transform="translate(1514,722)" d="m0 0 6 1 2 6-14-2 2-4z" fill="#2E3241"/>
<path transform="translate(421,647)" d="m0 0h6l3 3v2l-13 2 1-5z" fill="#1E2D34"/>
<path transform="translate(921,629)" d="m0 0 2 1-1 6-13 14-3 3 2-7 4-1 2-4 1-4 5-1z" fill="#E8B1E3"/>
<path transform="translate(342,468)" d="m0 0 4 1 3 5v2l-6 2-4-1 1-6h2z" fill="#B961B5"/>
<path transform="translate(234,242)" d="m0 0h2v7l-5 3-16-2 1-2h12l4-2z" fill="#AD5DAB"/>
<path transform="translate(1103,1304)" d="m0 0 3 1 1 9v12h-2l-1-3z" fill="#23313A"/>
<path transform="translate(369,659)" d="m0 0h6l3 3v2l-9 1-4 1 1-5z" fill="#1E2D34"/>
<path transform="translate(208,307)" d="m0 0 3 2-5 3-20-1v-2l7-1 4 1h7z" fill="#A359A2"/>
<path transform="translate(800,1298)" d="m0 0 2 1 1 4 1 15-1 7-2-3-1-15z" fill="#28333D"/>
<path transform="translate(1130,1633)" d="m0 0 2 3 1 5h-2l-1 3-1-5v16l1 8h-2l-1-6v-21l3-1z" fill="#545F72"/>
<path transform="translate(1342,1585)" d="m0 0 11 6 10 6-4 2-13-8-4-4z" fill="#FCF9FC"/>
<path transform="translate(1152,688)" d="m0 0 5 2 5 4 3 1-1 4-5 5-8 9v-3l10-11-1-4-8-6z" fill="#934F92"/>
<path transform="translate(974,520)" d="m0 0h6l3 4v4l-12-4 1-3z" fill="#23313A"/>
<path transform="translate(369,309)" d="m0 0 3 1 2 3-1 4-1 2h-3v-2h-2l-2-5 4-1z" fill="#DD92D9"/>
<path transform="translate(926,259)" d="m0 0 4 1 2 4 4 2 5 5 8 10-1 2-9-11v-2l-4-1-9-9z" fill="#E0A0DC"/>
<path transform="translate(801,1613)" d="m0 0h5v3l2 1v2l-4 1h-7l1-4z" fill="#213138"/>
<path transform="translate(1554,1434)" d="m0 0 4 2 6 8 5 8-1 2-7-8-3-5-4-5z" fill="#FAACA4"/>
<path transform="translate(370,320)" d="m0 0h1l-1 19-3 3-4-4v-2l5-1 1-12z" fill="#DE93D9"/>
<path transform="translate(220,262)" d="m0 0 6 2-1 4-3 1h-19l3-4h2l1-2 1 4h12z" fill="#E6AEE1"/>
<path transform="translate(303,221)" d="m0 0m-6 1 12 1-1 2-8 1h-12l4-3z" fill="#E5AAE0"/>
<path transform="translate(334,217)" d="m0 0h12l3 3-4 1h-15l-1-3z" fill="#EFC6EA"/>
<path transform="translate(1404,595)" d="m0 0h4l-1 5-7 5h-2l1-5z" fill="#FCA8A6"/>
<path transform="translate(1474,288)" d="m0 0h7l5 1v1l-7 1 5 10-1 3-9-14z" fill="#DD92D9"/>
<path transform="translate(521,275)" d="m0 0 5 2 12 11 4 5-1 2-11-11-8-6z" fill="#F3DDF1"/>
<path transform="translate(485,1691)" d="m0 0 12 1 3 1v2l-14 1-5-1v-3z" fill="#485665"/>
<path transform="translate(833,1483)" d="m0 0h2l3 3v-2l6-1 3 2v2l-10 3-2-1z" fill="#3A5963"/>
<path transform="translate(1108,1344)" d="m0 0 2 1 1 9v16l-3-4z" fill="#2F3745"/>
<path transform="translate(1066,989)" d="m0 0h6l1 4h-2l-1 4-4-2-3-2v-3z" fill="#242F38"/>
<path transform="translate(1470,948)" d="m0 0 1 4h2l2 23-3-3-1-11-1-3z" fill="#945093"/>
<path transform="translate(1081,823)" d="m0 0 3 4 10 21h2v5l-4-4-9-17z" fill="#E9B3E3"/>
<path transform="translate(1562,735)" d="m0 0h7l3 4v3l-4-1-1-1-8-1 1-3z" fill="#1E2D34"/>
<path transform="translate(1656,579)" d="m0 0h3v2h2l6 9 2 4-4-2-8-8z" fill="#FABEAA"/>
<path transform="translate(1724,382)" d="m0 0h2l3 5 1 10-3 4-3-17z" fill="#A45AA3"/>
<path transform="translate(185,315)" d="m0 0 5 2 2 2 11 1 1-2-1 5h-7l-9-4-2-1z" fill="#A85CA6"/>
<path transform="translate(1830,1203)" d="m0 0h1v16h-1v-11l-7 5-4 4-5 1v-2l7-4 6-5h2z" fill="#A55FA4"/>
<path transform="translate(1403,1093)" d="m0 0 8 6 10 6 6 3v1h-5l-14-9-5-5z" fill="#945093"/>
<path transform="translate(1144,599)" d="m0 0 2 1-4 4 2 20v8h-1l-4-23 1-6z" fill="#975997"/>
<path transform="translate(177,334)" d="m0 0 9 6h8l2-2-1 5-5 1-10-4-3-2z" fill="#A95BA7"/>
<path transform="translate(472,287)" d="m0 0 10 5 4 6-5-2-12-7z" fill="#676A7C"/>
<path transform="translate(461,248)" d="m0 0 9 1 12 4-4 2-16-4z" fill="#727285"/>
<path transform="translate(613,1599)" d="m0 0m-1 1m-3 1h3v2l-22 9-3-1z" fill="#FDFCFD"/>
<path transform="translate(172,348)" d="m0 0h6l2 1 9 1v-2h6l-1 3-7 2v-2h-12l-3-1z" fill="#AC5FAA"/>
<path transform="translate(1709,334)" d="m0 0h2l4 20-3-1-2-3-1-12-1-2z" fill="#E3A8DF"/>
<path transform="translate(219,271)" d="m0 0h6l-1 7-3 6-1 6-2-1v-4l-3-2h5l1-4v-2-3l1-2z" fill="#C368C1"/>
<path transform="translate(870,202)" d="m0 0 3 2 4 10 1 5-2 1-4-6-2-8z" fill="#F0CAEB"/>
<path transform="translate(1667,1715)" d="m0 0 2 1-7 6-11 6-6 1 4-3 5-2v-2l7-3z" fill="#2C454D"/>
<path transform="translate(1411,1656)" d="m0 0 28 2v1h-26l-6-1z" fill="#F8E9F6"/>
<path transform="translate(907,1382)" d="m0 0h1v9l-1 10-3-1v-9l2-8z" fill="#2A3741"/>
<path transform="translate(1566,1296)" d="m0 0 1 3-8 12h-2v-5l7-9z" fill="#BE67BA"/>
<path transform="translate(458,926)" d="m0 0 1 3-5 6h-2l-1 3-5 2-3 2-3-1 9-6h2l2-4z" fill="#AF5DAC"/>
<path transform="translate(1648,321)" d="m0 0 17 2 5 2-1 3-4-2-17-2z" fill="#E7AEE2"/>
<path transform="translate(253,237)" d="m0 0h9l-4 2-6 2h-13l1-2z" fill="#E09BDC"/>
<path transform="translate(1069,1720)" d="m0 0 10 10 3 6-5-2-6-8-2-3z" fill="#F0D7EC"/>
<path transform="translate(804,1333)" d="m0 0 2 2 1 5v18l-2-3z" fill="#213038"/>
<path transform="translate(238,385)" d="m0 0h1l1 9h2l-1 8-4-2-1 2z" fill="#FEFEFE"/>
<path transform="translate(209,271)" d="m0 0h10l3 1-2 6-4 3-4-1 4-2v-6h-7z" fill="#E9B4E3"/>
<path transform="translate(822,269)" d="m0 0 6 1 3 2-1 5-4 4-1-9-3-1z" fill="#FABEAC"/>
<path transform="translate(661,1510)" d="m0 0v3l-8 11-4 4-2-1 10-13z" fill="#FBF4FA"/>
<path transform="translate(511,1495)" d="m0 0h2l-1 9-3 8-2-2 1-5 2-7z" fill="#354653"/>
<path transform="translate(808,1160)" d="m0 0 1 2-2 13-3 3 1-15z" fill="#233039"/>
<path transform="translate(811,1139)" d="m0 0 1 4v10l-1 3h-2l-1 3v-9l2-10z" fill="#202F37"/>
<path transform="translate(538,1050)" d="m0 0h2l4 10v7h-2l-3-12z" fill="#1F2E35"/>
<path transform="translate(846,723)" d="m0 0h1v9l-2 9-3 2-1-3 3-10z" fill="#924E91"/>
<path transform="translate(451,655)" d="m0 0 6 1 3 3 2 8-3 7-5 2 3-4h2v-8l-1-5-5-2z" fill="#8F4C8E"/>
<path transform="translate(925,511)" d="m0 0h6l3 4v3l-4-2-8-1-1-2z" fill="#1E2D34"/>
<path transform="translate(229,400)" d="m0 0 3 1v8l-1 7h-1v-8l1-4h-14v-1z" fill="#ECBCE6"/>
<path transform="translate(262,339)" d="m0 0h4l1 2 3 2-1 2-5 1 1-3h-4-3l-1 3-2-4z" fill="#F0CBEC"/>
<path transform="translate(310,229)" d="m0 0h7l-2 2-18 3h-6l-1-2z" fill="#E09BDC"/>
<path transform="translate(489,1722)" d="m0 0h7v4l-11 2 1-5z" fill="#455564"/>
<path transform="translate(818,1582)" d="m0 0 2 1v2l8 1 1 2h-13l-2-1v-2z" fill="#25373F"/>
<path transform="translate(934,657)" d="m0 0 12 7 12 4-3 2h-2v-2l-6-1-7-4-4-1-3-4z" fill="#EDC1E7"/>
<path transform="translate(1150,649)" d="m0 0 4 5 7 11 4 4v2l-4-2-6-8-5-9z" fill="#945093"/>
<path transform="translate(1309,1559)" d="m0 0 6 4 6 5v2l-5-1-8-8z" fill="#F6E2F4"/>
<path transform="translate(1723,1365)" d="m0 0 2 3 1 4 1 14 1 7-2-1-3-15z" fill="#2C454D"/>
<path transform="translate(1096,1266)" d="m0 0h2l2 8v9l-3-3-1-6z" fill="#27333D"/>
<path transform="translate(802,1188)" d="m0 0h1v15l-1 6h-2v-9l1-11z" fill="#233039"/>
<path transform="translate(906,432)" d="m0 0 11 1 7 2-4 2-16-2 2-1z" fill="#E2A0DD"/>
<path transform="translate(1552,310)" d="m0 0h14l12 2v1h-16l-10-2z" fill="#E7AFE2"/>
<path transform="translate(480,254)" d="m0 0 7 1 12 5-1 2-18-6z" fill="#AE9CB8"/>
<path transform="translate(839,1678)" d="m0 0 1 2-5 5-4 2-8 1 4-3z" fill="#706D83"/>
<path transform="translate(1049,1551)" d="m0 0h1l1 7 1 1 2 12-3 3-2-12z" fill="#B47297"/>
<path transform="translate(270,1516)" d="m0 0 8 1 2 3-4 2h-5l-1-1z" fill="#F8E7F5"/>
<path transform="translate(886,681)" d="m0 0 1 2-9 17-2-1 4-10 2-3h2z" fill="#E9B3E3"/>
<path transform="translate(194,289)" d="m0 0 8 1v1l-7 1-1 4 6 2 2 2-1 3-9-5z" fill="#B96DB6"/>
<path transform="translate(1392,1611)" d="m0 0 18 6v2l-9-2-9-3z" fill="#CCB4CF"/>
<path transform="translate(682,1474)" d="m0 0 1 2-8 15-2-1 2-5 5-9z" fill="#F9ECF7"/>
<path transform="translate(440,1447)" d="m0 0h1v20h-1l-1-10-3 4 1-8z" fill="#A359A2"/>
<path transform="translate(1424,1109)" d="m0 0 7 1 14 5v2l-9-2-12-5z" fill="#975296"/>
<path transform="translate(933,636)" d="m0 0 1 4 1 10v4l-1 3-3-4v-11z" fill="#5A5675"/>
<path transform="translate(872,609)" d="m0 0h4l6 7v3l-5-2-4-4z" fill="#334A53"/>
<path transform="translate(185,331)" d="m0 0h7l5 2-4 8h-7l4-2 1-2v-4l-6-1z" fill="#E9B3E3"/>
<path transform="translate(202,290)" d="m0 0 10 2v5l-4 4-2-1 1-5v-2l-6-1z" fill="#EAB6E4"/>
<path transform="translate(458,281)" d="m0 0 9 3 5 3-4 2-9-4z" fill="#485663"/>
<path transform="translate(513,1720)" d="m0 0 4 5-1 2-7-2h-8l1-4 8 1z" fill="#495567"/>
<path transform="translate(332,797)" d="m0 0h2l7 8 6 9 1 4-4-4-9-12z" fill="#9A5397"/>
<path transform="translate(1071,670)" d="m0 0h1v8l-1 3h-2l-1 4-1-7 1-5h2z" fill="#55536D"/>
<path transform="translate(179,378)" d="m0 0h2v5l-1 1h-8l-4-3 9-1z" fill="#B662B4"/>
<path transform="translate(189,357)" d="m0 0h1v6l-1 1h-7l-4-2v-1l9-2z" fill="#B35FB0"/>
<path transform="translate(1138,1697)" d="m0 0h2l-1 9-2 6h-3l2-9z" fill="#DFCCE1"/>
<path transform="translate(1361,1598)" d="m0 0 6 1 10 5-1 2-5-1-10-5z" fill="#ECD9EC"/>
<path transform="translate(1603,1579)" d="m0 0h2v4h-7l-1 5 2-1v3l-5-1 1-5 3-3z" fill="#51556B"/>
<path transform="translate(808,1369)" d="m0 0 2 3 1 3v15l-2-2-1-10z" fill="#28333E"/>
<path transform="translate(525,1051)" d="m0 0v3l-1 7-6-2-3 3-2-1 8-7z" fill="#4E5469"/>
<path transform="translate(505,817)" d="m0 0 7 6 2 2v3l3 1-1 4v-2h-2l-7-9-2-2z" fill="#DD93D9"/>
<path transform="translate(196,323)" d="m0 0 6 1-6 6h-8l-3-2h8l2-1z" fill="#E7B0E2"/>
<path transform="translate(884,241)" d="m0 0 1 2h12l6 2v2l-3-1h-16l-2-3h2z" fill="#EAB6E4"/>
<path transform="translate(836,1562)" d="m0 0 2 1-1 4-1-1h-11l1-3z" fill="#435A67"/>
<path transform="translate(234,1513)" d="m0 0h2v7l-2 8-2-1v-7z" fill="#212D36"/>
<path transform="translate(196,1120)" d="m0 0h5l3 5 1 3-6-1-3-5z" fill="#BE67BA"/>
<path transform="translate(1655,955)" d="m0 0h2l4 6-1 4h2l1 5-4-2-3-7z" fill="#BB62B7"/>
<path transform="translate(304,766)" d="m0 0 4 2 5 4v2h-8v-6z" fill="#F8E8F6"/>
<path transform="translate(1039,640)" d="m0 0 5 1v10l-3 8h-1v-7l3-9-4-1z" fill="#E3A4DE"/>
<path transform="translate(794,619)" d="m0 0h2v2l-5 2-1 2h-2l-1 2-5 2-1-4z" fill="#475665"/>
<path transform="translate(359,401)" d="m0 0 2 4v5l-4 4-1-10 3-1z" fill="#DF96DA"/>
<path transform="translate(162,391)" d="m0 0 7 1v6l-3 4-3-1 1-4 3-1z" fill="#EBB9E5"/>
<path transform="translate(1691,295)" d="m0 0 5 1 2 3-13-1-6-1v-1z" fill="#AD5EAC"/>
<path transform="translate(1100,288)" d="m0 0h6l-3 2-18 5-2-1 1-2 7-2 8-1z" fill="#D988C9"/>
<path transform="translate(212,248)" d="m0 0 5 3-2 5h-5l-1-3z" fill="#F1CFED"/>
<path transform="translate(1332,1578)" d="m0 0 10 6v3l4 2h-3l-10-7z" fill="#F3DCF0"/>
<path transform="translate(1633,1536)" d="m0 0h10l8 1v1l-5 1h-11z" fill="#2F444D"/>
<path transform="translate(522,1441)" d="m0 0h2v9l-1 5h-2l-1-8z" fill="#314952"/>
<path transform="translate(1598,1100)" d="m0 0m-3 1h3v2h-2l-1 2-9 3-1 1h-5l4-3z" fill="#B961B5"/>
<path transform="translate(1519,835)" d="m0 0 1 4-10 5-3 1v2l-4 2v-3h2l2-4 11-4z" fill="#9E559D"/>
<path transform="translate(473,788)" d="m0 0 8 6 7 6-3 1-12-10z" fill="#DE95DA"/>
<path transform="translate(437,766)" d="m0 0h6l2 3h-6l-9 4-3-1z" fill="#DD91D8"/>
<path transform="translate(1361,408)" d="m0 0h2v2l-12 7-3 2-3-1 9-6z" fill="#F0D1ED"/>
<path transform="translate(170,360)" d="m0 0h2l2 6-6 2-3-1v-3l4-1-1-2z" fill="#FBF4FA"/>
<path transform="translate(208,255)" d="m0 0 7 2v3l-8 1-1 3-1-2z" fill="#CA89BB"/>
<path transform="translate(1654,1394)" d="m0 0 2 1-12 13-2-1 8-10z" fill="#755986"/>
<path transform="translate(315,1052)" d="m0 0 1 3-8 7-4-2z" fill="#1F2F36"/>
<path transform="translate(233,1008)" d="m0 0 2 1-5 6h-2v2h-2l-2 4-4 2 6-8z" fill="#FCA8A6"/>
<path transform="translate(1462,860)" d="m0 0 1 4-2 6-2-1v-3l-4 3-2-1z" fill="#985197"/>
<path transform="translate(1469,845)" d="m0 0 1 3-7 12h-2l2-6z" fill="#E8B1E1"/>
<path transform="translate(426,769)" d="m0 0m-3 1 5 1-1 3-9 1-2-2 4-2z" fill="#F2D4EF"/>
<path transform="translate(219,503)" d="m0 0 3 3v9l-2 2-2-2z" fill="#CC75CA"/>
<path transform="translate(174,403)" d="m0 0 11 2v2h-15z" fill="#E19CD9"/>
<path transform="translate(250,345)" d="m0 0 6 2-1 2-7 3h-3v-3l5-2z" fill="#FEFEFE"/>
<path transform="translate(448,277)" d="m0 0 10 3 1 4-10-3-4-2z" fill="#586174"/>
<path transform="translate(811,1596)" d="m0 0 2 1-1 3 3 3-8 1-1-3z" fill="#3C4250"/>
<path transform="translate(369,657)" d="m0 0h6l5 5-1 4h-3v-2h2l-3-4h-6l-3 1 1-3z" fill="#A95B78"/>
<path transform="translate(1018,499)" d="m0 0 4 1v2h2l5 5 2 3-4-2-7-4-3-2z" fill="#2C454D"/>
<path transform="translate(1728,401)" d="m0 0 4 2 1 4 2 5-2-1-1 5h-1l-1-11h-2z" fill="#A85CA6"/>
<path transform="translate(364,364)" d="m0 0h1l1 10-2 3h-3l-1-5 3-2z" fill="#E19EDD"/>
<path transform="translate(356,296)" d="m0 0h3l1 3-8 4-3-1 5-5z" fill="#BC75B7"/>
<path transform="translate(231,232)" d="m0 0h10v2l-11 3-2-3z" fill="#E5ACE0"/>
<path transform="translate(409,1415)" d="m0 0 5 2 2 4-2 4-3-1-1-7z" fill="#455563"/>
<path transform="translate(1753,1115)" d="m0 0 4 1 6 5-3 2-3-1-3-3v-2l-2-1z" fill="#DC8ED7"/>
<path transform="translate(1731,1101)" d="m0 0 7 2 4 4-7-1-6-2z" fill="#DA89D5"/>
<path transform="translate(1691,1024)" d="m0 0 3 1 6 15h-2l-4-6-2-6z" fill="#BE67BA"/>
<path transform="translate(421,768)" d="m0 0h2l-1 4-5 1 5 1 3 1-2 1h-7l-2-1v-3z" fill="#D89ED4"/>
<path transform="translate(353,375)" d="m0 0 5 1 1 3-2 1-2 3-3-3z" fill="#B961B5"/>
<path transform="translate(176,335)" d="m0 0 1 3 3 1-3 1-1 2 2 1h-3l2 5h-5l1-5z" fill="#E1A7DD"/>
<path transform="translate(193,311)" d="m0 0h7l5 2-1 4h-2v3h-5l3-1v-5l-7-2z" fill="#E9B4E3"/>
<path transform="translate(1062,1612)" d="m0 0h1v5l2 1-2 3-2-1zm-4 6 1 2 2 1-1 10h-1z" fill="#465967"/>
<path transform="translate(301,1562)" d="m0 0h9v5l-4 1-5-4z" fill="#455664"/>
<path transform="translate(692,1541)" d="m0 0v3l-11 12-1-3z" fill="#F9EDF8"/>
<path transform="translate(1488,1086)" d="m0 0h2l8 14h-3l-6-10z" fill="#415663"/>
<path transform="translate(360,991)" d="m0 0 1 4-4 9-3 7-1-4 5-11 1-4z" fill="#944F93"/>
<path transform="translate(1597,949)" d="m0 0 2 1 2 9h-3l-3-7z" fill="#595671"/>
<path transform="translate(435,625)" d="m0 0h3l5 12-1 3-1-5-3-1z" fill="#A2577E"/>
<path transform="translate(816,550)" d="m0 0 1 2-3 9-4 4 1-6 4-8z" fill="#2C454D"/>
<path transform="translate(352,461)" d="m0 0h1l1 8-2 4h-3v-5z" fill="#DF96DA"/>
<path transform="translate(169,354)" d="m0 0 1 2 5 2v2l11-1-1 2-6 1-2 1v-2l-8-2z" fill="#C377C0"/>
<path transform="translate(870,215)" d="m0 0 3 3 2 3v5l-3-1-3-5z" fill="#B367B2"/>
<path transform="translate(1079,1731)" d="m0 0 14 4v1l-9 2-5-5z" fill="#97879E"/>
<path transform="translate(1080,1587)" d="m0 0 3 1-1 4-6 1-1-3-2-1z" fill="#F6E2F4"/>
<path transform="translate(310,1571)" d="m0 0 4 1v10h-1v-5l-5 1-1-2h2l-1-4z" fill="#485668"/>
<path transform="translate(697,1428)" d="m0 0h2l-2 11-3 5-1-3z" fill="#F7E4F4"/>
<path transform="translate(822,1085)" d="m0 0h2l-1 13h-3l1-10z" fill="#242F39"/>
<path transform="translate(300,1066)" d="m0 0v3l-3 1v2l-9 5-2-1 8-6z" fill="#8F4C8E"/>
<path transform="translate(1718,373)" d="m0 0h2l2 5v8l-2-1-2-5z" fill="#EBBBE6"/>
<path transform="translate(1680,343)" d="m0 0 3 1 7 11-1 2-5-5-4-7z" fill="#EAB6E4"/>
<path transform="translate(198,280)" d="m0 0 2 1v4l5 4h-10z" fill="#E6B7E2"/>
<path transform="translate(1116,278)" d="m0 0 3 3v4l-9 3-3-1 8-4v-3z" fill="#D786C8"/>
<path transform="translate(822,1568)" d="m0 0h5l3 1h6v2l-12 1h-3z" fill="#1E2D34"/>
<path transform="translate(814,1122)" d="m0 0h2v9l-3 3h-1l1-10z" fill="#243039"/>
<path transform="translate(207,1123)" d="m0 0 10 3-2 1-1 6 2 1-4-1v-5l-5-3z" fill="#B961B5"/>
<path transform="translate(1500,1057)" d="m0 0 3 3 6 7v5l-3-3-6-10z" fill="#985397"/>
<path transform="translate(168,355)" d="m0 0 1 4 5 1 3 2-5 1v-3l-3 2 1 2h-5z" fill="#E8B2E1"/>
<path transform="translate(981,309)" d="m0 0 4 1-10 3h-7l1-3z" fill="#F0CCEC"/>
<path transform="translate(929,270)" d="m0 0 10 10-1 2-6-4-2-2z" fill="#CD76CA"/>
<path transform="translate(424,1657)" d="m0 0 2 1v2h2l2 8-3-1v-2h-2z" fill="#29323D"/>
<path transform="translate(1126,1653)" d="m0 0 2 4v6l-9-1 1-3 6 1z" fill="#1E2C33"/>
<path transform="translate(1570,1164)" d="m0 0h3l-2 4h-2l-1 18h-1v-17z" fill="#B961B5"/>
<path transform="translate(1482,1018)" d="m0 0 2 1 5 15-1 2-6-12z" fill="#BC63B8"/>
<path transform="translate(850,792)" d="m0 0h1l-1 11-2 3-1-1 1-9z" fill="#EEC1E8"/>
<path transform="translate(399,709)" d="m0 0h7l2 2-7 3-3-4z" fill="#B9646C"/>
<path transform="translate(1023,645)" d="m0 0h2l-1 3-10 7-5 1 3-3 10-7z" fill="#AD5DAB"/>
<path transform="translate(168,400)" d="m0 0 3 1v5l-5 1-1-4z" fill="#BF65BC"/>
<path transform="translate(418,272)" d="m0 0h9l7 1v3l-13-2z" fill="#8D829D"/>
<path transform="translate(1126,1638)" d="m0 0h1v11l-2 3-1-5 1-8z" fill="#1E2D34"/>
<path transform="translate(625,1593)" d="m0 0m-2 1h2l-1 3-10 5-2-1 5-4z" fill="#FBF5FB"/>
<path transform="translate(1638,1124)" d="m0 0h2l-1 3-4 2h-4v2h-2l1-4z" fill="#D988D4"/>
<path transform="translate(318,774)" d="m0 0 11 3 2 2 4 2-3 1-7-4-7-3z" fill="#2C454D"/>
<path transform="translate(1517,684)" d="m0 0h2l-2 4-7 7-2-1 6-8z" fill="#D88D93"/>
<path transform="translate(941,632)" d="m0 0h2l-4 8h-2l-1-7z" fill="#293E46"/>
<path transform="translate(164,366)" d="m0 0 8 3 8 1-4 2-7-1-5-3z" fill="#BF73BD"/>
<path transform="translate(171,348)" d="m0 0 1 2h3l-1 7-4-1-1-3z" fill="#F3DAF1"/>
<path transform="translate(962,320)" d="m0 0 6 3 6 1-3 2-5 1-4-5z" fill="#D78BD1"/>
<path transform="translate(210,309)" d="m0 0v3l-3 9-3-4-1-5z" fill="#C569C3"/>
<path transform="translate(762,229)" d="m0 0 2 1-11 11v-3l7-8z" fill="#FAB6AB"/>
<path transform="translate(827,1557)" d="m0 0 4 1v2l-2 1 7 1v1h-9l-3-4z" fill="#F2D3EE"/>
<path transform="translate(280,1464)" d="m0 0 2 1-1 7v3h-3v-10z" fill="#3A5863"/>
<path transform="translate(1093,1246)" d="m0 0h2l1 13h-2l-1-4z" fill="#213138"/>
<path transform="translate(818,1105)" d="m0 0h1v10l-3 3v-8z" fill="#25303A"/>
<path transform="translate(1605,1097)" d="m0 0 2 1v5h-2v-2l-7 1 4-4z" fill="#BF68BC"/>
<path transform="translate(1210,902)" d="m0 0h2v10l-3-3-2-4z" fill="#BE67BA"/>
<path transform="translate(329,729)" d="m0 0h2l1 17-2-3-2-13z" fill="#A95A78"/>
<path transform="translate(895,433)" d="m0 0h8v2l-9 2-4 1v-2z" fill="#DE99DA"/>
<path transform="translate(1485,305)" d="m0 0 5 3 2 5 2 4-1 3-8-13z" fill="#DD91D8"/>
<path transform="translate(1617,1730)" d="m0 0 5 1v2h6l-1 2-8 1z" fill="#2B434B"/>
<path transform="translate(468,1729)" d="m0 0 8 1-1 3h-2l-1 2-4-3z" fill="#2C444C"/>
<path transform="translate(1065,1597)" d="m0 0h2v2l-2 1 2 2-1 3v-2h-3v-2l-4 2 1-4z" fill="#3B5863"/>
<path transform="translate(1059,1554)" d="m0 0h2l-2 4-2 5-2 1v-6z" fill="#695271"/>
<path transform="translate(825,1549)" d="m0 0 3 4v2l2 1h-3v2l-3 1v-7z" fill="#303947"/>
<path transform="translate(824,1515)" d="m0 0 2 2 1 7-1 1-1 7h-1z" fill="#F2BECE"/>
<path transform="translate(921,629)" d="m0 0 2 1-1 6-4 4h-2l-1-3 5-1z" fill="#E29FDD"/>
<path transform="translate(155,389)" d="m0 0 4 2-1 6-5-1z" fill="#F1CEEA"/>
<path transform="translate(1642,1729)" d="m0 0 2 1-4 2-1 2h-8l-2-2 6-1 5-1z" fill="#2C454D"/>
<path transform="translate(660,1570)" d="m0 0 1 3-7 6h-2v-3z" fill="#E8CEE7"/>
<path transform="translate(1114,1550)" d="m0 0 2 2v9l-4-4 1-4z" fill="#CA76C8"/>
<path transform="translate(873,1537)" d="m0 0h2l1 5-1 7h-2z" fill="#EFBCD8"/>
<path transform="translate(1642,1420)" d="m0 0h7l4 4-11-1z" fill="#374E58"/>
<path transform="translate(1663,1353)" d="m0 0 2 3 2 6v4h-2l-3-9z" fill="#D583A7"/>
<path transform="translate(1305,1355)" d="m0 0 3 2v2h2l1 3-6-1-2-1v-3h2z" fill="#FCA8A6"/>
<path transform="translate(545,1072)" d="m0 0 2 1 1 3v7l-3-1-1-4h2l-2-5z" fill="#203037"/>
<path transform="translate(1479,1069)" d="m0 0 3 1 3 6v4h-2l-3-6z" fill="#425563"/>
<path transform="translate(826,1069)" d="m0 0 2 1-1 7-3 3 1-10z" fill="#213037"/>
<path transform="translate(174,385)" d="m0 0 5 3v2l-6 2z" fill="#BB63B8"/>
<path transform="translate(497,303)" d="m0 0 6 5 4 5v2l-3-1-7-9z" fill="#DACADD"/>
<path transform="translate(204,303)" d="m0 0 8 1-1 3-6 1z" fill="#DC96D8"/>
<path transform="translate(1033,194)" d="m0 0h5l-1 2-5 2-5 1-3-2z" fill="#EEC1E8"/>
<path transform="translate(303,1569)" d="m0 0 5 1 1 6-4-1-2-3z" fill="#F4D8F0"/>
<path transform="translate(1588,1488)" d="m0 0 3 3 6 9-1 2-4-4-4-8z" fill="#FBAEA6"/>
<path transform="translate(529,1358)" d="m0 0 2 3v10l-2-1-1-8z" fill="#253941"/>
<path transform="translate(337,1098)" d="m0 0h6l-2 5-5-1z" fill="#3A5863"/>
<path transform="translate(455,1094)" d="m0 0 4 1h-3v2l-2 1h-10l4-2z" fill="#455563"/>
<path transform="translate(834,1034)" d="m0 0h1v12l-3 1v-7z" fill="#203037"/>
<path transform="translate(194,1042)" d="m0 0 6 2 1 1-1 7-2-1-1-5z" fill="#9F589E"/>
<path transform="translate(346 1e3)" d="m0 0h2l-2 4-5 5-3-1z" fill="#9E559D"/>
<path transform="translate(1178,938)" d="m0 0h2l-1 3-5 2v2l-5 3-2-1z" fill="#B961B5"/>
<path transform="translate(166,374)" d="m0 0h4v4h2v2l-6-1-1-3z" fill="#FDFBFD"/>
<path transform="translate(184,318)" d="m0 0 3 1-3 2v5l1 2h-5l1-6z" fill="#D59ACE"/>
<path transform="translate(907,254)" d="m0 0 5 1 5 2v2l3 1-4 1-9-6z" fill="#D081CD"/>
<path transform="translate(282,229)" d="m0 0h11v2l-11 1z" fill="#FDFBFD"/>
<path transform="translate(862,188)" d="m0 0 5 5 3 9-3-1-4-9z" fill="#EEC1E8"/>
<path transform="translate(586,1579)" d="m0 0 2 1h-3z" fill="#FEFEFE"/>
<path transform="translate(1419,420)" d="m0 0 3 1z" fill="#7D588A"/>
<path transform="translate(1427,418)" d="m0 0 3 1z" fill="#785485"/>
<path transform="translate(542,295)" d="m0 0 2 2h-2z" fill="#F8E9F6"/>
<path transform="translate(414,271)" d="m0 0 3 1z" fill="#F3D5EF"/>
<path transform="translate(1334,1634)" d="m0 0 2 1z" fill="#FEFEFE"/>
<path transform="translate(1332,1633)" d="m0 0 2 1z" fill="#F6DFF3"/>
<path transform="translate(580,1583)" d="m0 0 2 1z" fill="#FEFEFE"/>
<path transform="translate(583,1581)" d="m0 0 2 1z" fill="#FEFEFE"/>
<path transform="translate(710,1514)" d="m0 0" fill="#FEFEFE"/>
<path transform="translate(1798,1481)" d="m0 0" fill="#FEFEFE"/>
<path transform="translate(1423,419)" d="m0 0 2 1z" fill="#9F589E"/>
<path transform="translate(1430,417)" d="m0 0 2 1z" fill="#975296"/>
<path transform="translate(1453,389)" d="m0 0 2 1z" fill="#EEC1E8"/>
<path transform="translate(1336,1635)" d="m0 0" fill="#FEFEFE"/>
<path transform="translate(577,1585)" d="m0 0" fill="#FEFEFE"/>
<path transform="translate(579,1584)" d="m0 0" fill="#FEFEFE"/>
<path transform="translate(582,1582)" d="m0 0" fill="#FEFEFE"/>
<path transform="translate(711,1513)" d="m0 0" fill="#FEFEFE"/>
<path transform="translate(712,1511)" d="m0 0" fill="#FEFEFE"/>
<path transform="translate(1258,1497)" d="m0 0" fill="#FEFEFE"/>
<path transform="translate(1353,461)" d="m0 0" fill="#FEFEFE"/>
<path transform="translate(1354,460)" d="m0 0" fill="#EEC1E8"/>
<path transform="translate(1355,459)" d="m0 0" fill="#EEC1E8"/>
<path transform="translate(1356,458)" d="m0 0" fill="#EEC1E8"/>
<path transform="translate(1324,438)" d="m0 0" fill="#EEC1E8"/>
<path transform="translate(507,315)" d="m0 0" fill="#C86BC6"/>
<path transform="translate(411,270)" d="m0 0" fill="#FEFEFE"/>
</svg>
