<?xml version="1.0" encoding="UTF-8"?>
<svg xmlns="http://www.w3.org/2000/svg" version="1.1" viewBox="0 0 2000 2000" width="1280" height="1280">
<path transform="translate(725,108)" d="m0 0h14l9 2 15 8 10 9 5 9v9l-8 16-15 26-9 15-14 25-12 20-2 5 8 11 9 14 27 54 10 19 10 20 9 16 8 16 8 15 5 5 9 7 6 9 4 10 9 14 4 7 6 7 2 1v2l4 2 13 12 14 11 17 11 26 16 21 11 3 1h7l-1-6-10-15-5-10-1-3h-3v11l-2 1-5-5-6-8-4-11v-16l3-9 6-9 8-7 15-8 3-8 2-10-1-6-4-5-1-3h-2l-1 4h-3l-5-10v-11l3-9 6-9 7-6 2-1-2-4-7-8-7-7-8-7-9-9-1-2v-6l5-5 16-8 56-26 34-16 26-12 9-3 9 10 9 11 10 11 8 10 12 14 11 12 7 3 18 4 10 6 7 8 7 16 1 4 1 19 6 8 8 10 2 6-2 5-6 4-11 4h-2l2 14 4 10 8 11 10 8 12 6 9 2 13-1 10-4 13-9 19-19 4 1 9 8 4 10-1 6-10 7-18 6-4 1-22 2-1 1h-6l-3-2h-8l-11-3-12-5-9-7-8-8-8-16-4-14-8 1-27 9-3 8 2 9 11 24 5 16 1 6v23l-3 10-7 12-9 8-14 7h-2l4 7 10 13 8 5 21 11 9 7 9 10 9 17 8 23 1 11v10l12 46 11 43 11 41 5 12 13 23 32 56 14 24 10 18 11 17 15 6 27 9 25 10 13 5 6 4 10 11 10 13 12 12 2 3v5l-3 2h-14l-1 4-2 1h-9l-8-3-4-4h-14l-9 3-9-1-24-13-27-8-19-6-7-2h-6l-14 7-15 5-19 3-20 1-5-5-14-29-13-30-5-10v-2h-2l5 35 8 62 9 76 7 59 9 57 11 62 1 4v7l-5 12-9 14-11 13-10 10-14 11-17 12-9 5h-2l5 12 7 19 6 12v2l10 3 19 9 10 7 8 9 5 12 6 22 9 19 11 18 15 22-1 2-5-1-11-15-12-17-5-6-7-4-5-1 9 25 7 18 1 4v13l-5 13-8 14-8 10-9 10-13 13-14 11-11 7-13 5h-11l-6-4-3-4-1-3 1-16 7-36v-9l-4-24-8-31-8-23-8-16-12-20-11-16-10-14-9-10-2-1-5 27-12 60-6 36-3 23 1 6 16 27 5 12 1 10-4 16-5 16-2 12-1 11-1 47-4 1-2-7-2-42-3-8-5-3-5 25-5 22-6 10-10 8-19 10-15 5-22 5-19 3h-18l-13-4-8-6-4-6 1-7 6-9 9-11 18-18h2l2-4 12-25 12-36 5-21 2-13v-51l-1-20-1-7-4-83-11-160-2-26-26 3-30 6-31 8-13 5-2 18-6 91-1 10-1 2-6-1-27-12-17-9-14-10-10-9-7-7-8-13 1-10 2-13 4-36 4-29 4-26 3-25 9-64 11-70 11-64 16-81 10-46v-31l5-35 5-26 9-38 9-29 12-32 4-19 1-9v-16l-29-5-21-3-39-3-16-2-13-5-10-9-5-9-4-12-3-18v-38l4-30 5-22 8-24-1-8-6-20-15-48-6-17-8-18-8-10-4-4h-4l-2 7-7 14-13 28-12 27-7 9-7 3h-13l-10-3h-6l-3 4-7-1-8-9-5-10-1-3v-10l4-11 15-25 8-15 7-19-15-1-2-2 6-4 10-4 14-9-1-6-4-8-1-3v-8l3-18 4-7 2-13 4-6 4-2h14v-13l3-6 3-3 7 1 7 7h3l2-5 19-41 11-24 9-19 5-10 5-4zm411 228 6 10 10 13 18 18 2-1-6-16-4-9-5-5-9-6-10-4zm-145 649-2 2-2 17-2 4v25l5 3 2-4 2-8 1-1v-6l-1-3 1-6-2-5 1-17z" fill="#FAA7A9"/>
<path transform="translate(1127,587)" d="m0 0 6 1 20 10 11 8 10 11 9 17 8 23 1 11v10l12 46 11 43 11 41 5 12 13 23 32 56 14 24 10 18 11 17 15 6 27 9 25 10 13 5 6 4 10 11 10 13 12 12 2 3v5l-3 2h-14l-1 4-2 1h-9l-8-3-4-4h-14l-9 3-9-1-24-13-27-8-19-6-7-2h-6l-14 7-15 5-19 3-20 1-5-5-14-29-13-30-5-10v-2h-2l5 35 8 62 9 76 7 59 9 57 11 62 1 4v7l-5 12-9 14-11 13-10 10-14 11-17 12-11 6-1 2-17 7-23 10-19 7-25 8-27 6-20 3-11 1h-24l-1-1 1-43 5-143 4-91 6-110 2-13 2-8 1-1v-6l-1-3 1-6-2-5 2-19 1-1 2-23 3-1 2-4h2l2-4 9-10 9-11 3-3 3-12 7-69 8-61 8-47 7-35 6-24 8-26 7-17 10-18 9-12 8-8 11-7z" fill="#395963"/>
<path transform="translate(939,615)" d="m0 0h1l3 14 4 8 8 7 17 6 18 5 6 1h19l-1 7-3 10h-2l-4 16-9 38-8 39-3 19-10 61-5 38-2 28 1 8 4 8 1 4 3 3 2 6h2l1 5h2v3h2l3 6 3 5v9l-2 15h4v2l-4 1-2 17-2 4v25l4 3-1 29-5 90-4 91-6 174v12h24l26-3 28-6 20-6 23-8 26-11 16-7h3l1-2 3 5 8 23 7 14v2l10 3 19 9 10 7 8 9 5 12 6 22 9 19 11 18 15 22-1 2-5-1-11-15-12-17-5-6-7-4-5-1 9 25 7 18 1 4v13l-5 13-8 14-8 10-9 10-13 13-14 11-11 7-13 5h-11l-6-4-3-4-1-3 1-16 7-36v-9l-4-24-8-31-8-23-8-16-12-20-11-16-10-14-9-10-2-1-5 27-12 60-6 36-3 23 1 6 16 27 5 12 1 10-4 16-5 16-2 12-1 11-1 47-4 1-2-7-2-42-3-8-5-3-5 25-5 22-6 10-10 8-19 10-15 5-22 5-19 3h-18l-13-4-8-6-4-6 1-7 6-9 9-11 18-18h2l2-4 12-25 12-36 5-21 2-13v-51l-1-20-1-7-4-83-11-160-2-26h-5l2-1-10-14-8-11-12-19-8-13-8-15-7-20-3-7-10-14-6-9-2-5v-20l5-82 5-57 5-43 6-37 7-34 10-39 1-3v-12l-4-31-2-7-2 8h-1l1-11 5-22h2v-9l3-11h2l1-8 4-18 8-24 8-18 10-17 10-14z" fill="#FAA7A9"/>
<path transform="translate(725,108)" d="m0 0h14l9 2 15 8 10 9 5 9v9l-8 16-15 26-9 15-14 25-12 20-2 5 8 11 9 14 27 54 10 19 10 20 9 16 8 16 8 15 5 5 9 7 6 9 4 10 9 14 4 7 6 7 2 1v2l4 2 13 12 14 11 17 11 26 16 23 12 1 3-18 12-10 9-8 7-13 14-13 17-12 18-10 17-10 19-3 7-1-4v-26l-29-5-21-3-39-3-16-2-13-5-10-9-5-9-4-12-3-18v-38l4-30 5-22 8-24-1-8-6-20-15-48-6-17-8-18-8-10-4-4h-4l-2 7-7 14-13 28-12 27-7 9-7 3h-13l-10-3h-6l-3 4-7-1-8-9-5-10-1-3v-10l4-11 15-25 8-15 7-19-15-1-2-2 6-4 10-4 14-9-1-6-4-8-1-3v-8l3-18 4-7 2-13 4-6 4-2h14v-13l3-6 3-3 7 1 7 7h3l2-5 19-41 11-24 9-19 5-10 5-4z" fill="#E2A2DF"/>
<path transform="translate(939,615)" d="m0 0h1l3 14 4 8 8 7 17 6 18 5 6 1h19l-1 7-3 10h-2l-4 16-9 38-8 39-3 19-10 61-5 38-2 28 1 8 4 8 1 4 3 3 2 6h2l1 5h2v3h2l3 6 3 5v9l-2 15h4v2l-4 1-2 17-2 4v25l4 3-1 29-5 90-3 65h-1l-1-9-19-5-19-6-16-6-10-6-13-8-7-5-5-5-8-7v-2l-4-2-1-1-2 2-3-7-10-14-6-9-2-5v-20l5-82 5-57 5-43 6-37 7-34 10-39 1-3v-12l-4-31-2-7-2 8h-1l1-11 5-22h2v-9l3-11h2l1-8 4-18 8-24 8-18 10-17 10-14z" fill="#CC6AC8"/>
<path transform="translate(887,759)" d="m0 0h1l3 14 3 25v12l-10 38-7 33-6 36-5 38-5 56-5 76-1 18v20l4 8 11 16 5 7 5 16 7 16 8 14 11 17 8 12 8 11 6 8v2l-9 2-30 5-30 7-24 7-4 2-2 18-6 91-1 10-1 2-6-1-27-12-17-9-14-10-10-9-7-7-8-13 1-10 2-13 4-36 4-29 4-26 3-25 9-64 11-70 11-64 16-81 10-46 2-3 7 14 8 21-2 20-3 20-3 7-2 11 1 10 2 4 5 2v-7l4-5v-17l-1-7 3-25 1-11 15-14 8-8h2v-2h2l2-4 7-6 3-10 11-65 6-32z" fill="#3A5963"/>
<path transform="translate(403,879)" d="m0 0h9l8 4 7 8 1 3-1 192-7 6-23 13-24 14-8 5-4 8-9 30-5 14-4 4-6-1-11-7-5-6-6-12-4 1-11 6-20 12-16 8-7 1-12-6-4-5-1-3v-192l9-7 15-10 14-8 19-11 28-16 29-17 28-17 14-8zm-27 94-4 3-1 5-1 18-8 5-7 5-1 7 2 5 5-1 9-3 2 17 2 1 8-6 1-4v-17l9-6 7-6 1-9-1-2-5 1-11 4-1-17zm-47 20-9 5-4 4-7 21-9 34-13 54-2 10h7l6-4 3-3 6-21 9-6 22-13 4-1 3 9 2 4 3 1 9-5 3-3-1-9-15-44-11-32-1-1z" fill="#E2A2DF"/>
<path transform="translate(1586,879)" d="m0 0 9 2 12 6 24 14 59 35 27 15 20 12 12 9 6 5v192l-7 8-10 5-7-1-10-4-24-14-14-9h-3l-8 16-6 5-8 4h-8l-3-5-7-22-7-24-5-5-17-10-26-15-12-7-5-4-1-3v-191l3-5 7-6zm62 85-3 3-6 20-4 13-2 2-24-13-9-5-4 1 2 9 13 21 12 19v8l-7 26-1 3v8l4 5 7-1 21-7h4l2 4 12 19 8 12 7 8 4-1v-8l-9-43-1-3 10-3 14-6 5-5-1-5-4-5-24-14-9-6-6-25-4-22-4-8z" fill="#E2A2DF"/>
<path transform="translate(1068,261)" d="m0 0 4 2 12 14 13 15 9 11 12 14 11 12 7 3 18 4 10 6 7 8 7 16 1 4 1 19 6 8 8 10 2 6-2 5-6 4-11 4h-2l2 14 4 10 8 11 10 8 12 6 9 2 13-1 10-4 13-9 19-19 4 1 9 8 4 10-1 6-10 7-18 6-4 1-22 2-1 1h-6l-3-2h-8l-11-3-12-5-9-7-8-8-8-16-4-14-8 1-27 9-3 8 2 9 11 24 5 16 1 6v23l-3 10-7 12-9 8-11 6h-8l-2-1v-9l2-8-8 7-4-2-12-14-1-3 4-22 8 4h11l8-4 8-9 6-11 2-8v-8l-2-8-2-5-4-2-10-4-10 1-8 5-7 5-7 1-5-4v-9l1-12-6-12-6-10-4-7 2 12 2 9h-5l-15-7-9-6 2-1-1-5-7-11-2-5-2-1 2 13v6l-10-4-11-8-6-8-4-10-2-10v-10l-5 1-10 9-10 15-7 15-5 14-1 2-3-1-4-7h-2l-1 4h-3l-5-10v-11l3-9 6-9 7-6 2-1-2-4-7-8-7-7-8-7-9-9-1-2v-6l5-5 16-8 56-26 34-16 26-12zm68 75 6 10 10 13 18 18 2-1-6-16-4-9-5-5-9-6-10-4z" fill="#2B454F"/>
<path transform="translate(811,423)" d="m0 0 5 2 7 6 5 10 4 9 7 10 4 8 7 8 2 1v2l4 2 13 12 14 11 17 11 26 16 23 12 1 3-18 12-10 9-8 7-13 14-13 17-12 18-10 17-10 19-3 7-1-4v-26l-29-5-21-3-39-3-16-2-13-5-10-9-5-9-4-12-3-18v-38l4-30 5-22 8-23 3 4 11 35 7 20 5 10 8 11 15 16 8 7 7 7 4 1 4-8 6-17 5-19 3-24 1-27-1-30-2-11z" fill="#3A5963"/>
<path transform="translate(1085,536)" d="m0 0 4 2 11 13 4-2 4-4h2l-2 17 7 1-2 1 4 7 10 13 2 3-15 8-9 7-8 9-9 14-8 16-8 21-7 24-8 36-9 50-7 50-5 44-5 49-3 12-11 12-9 11-4 5-6 5-2 23-1 1h-5l1-24-5-9v-2h-2v-3h-2l-1-5h-2l-3-6v-2l-3-1-4-10-2-7 1-22 4-31 3-23 9-54 4-23 8-39 8-34 5-16h2l1-7 4-15 12-26 11-20 4-6 4-7 7-9 4-6h2l2-4 6-8 7-9 6-9h2l2-5v-3z" fill="#F0C6EE"/>
<path transform="translate(980,533)" d="m0 0 8 1 9 3 3 4-1 17-6 7-6 4-8 7-2 3h-2l-1 3h-2v2h-2v2l-8 7-8 8-8 7-5 7-5 5-7 10-12 21-9 22-7 23-2 11-2 8h-2l-2 11-1 9h-2l-1 8-4 19-2 17-11 64-4 23-3 6-8 7-1 2h-2v2l-8 7-11 11-5 4-3 29-1 12 1 5v14l-4 6v6h-4l-4-4-1-2-1-12 3-12 2-4 5-36-1-7-8-20-6-12-1-10v-18l5-35 5-26 9-38 9-29 12-32 4-19 2-1v4l8-16 10-19 14-21 9-12 9-11 14-15 11-10 14-10 7-4 1-3h7v-5l7 1 11-5z" fill="#F0C7EF"/>
<path transform="translate(690,224)" d="m0 0 7 2 6 8v2h2l7 11 4 3 4 5 11 15 12 23 19 38 10 19 10 20 9 16 8 16 8 15 5 6 2 9 2 11 1 33-1 24-3 24-6 23-7 18-3 4-5-2-12-12-8-7-12-13-8-12-6-15-15-47-2-5-1-8-6-20-15-48-6-17-8-18-8-10-5-5 3-9 6-14 4-11 4-7 1-9-7-14-2-3-2-9-2-5v-18l3-5z" fill="#FAA7A9"/>
<path transform="translate(1068,261)" d="m0 0 4 2 12 14 13 15 9 11 12 14 11 12 7 3 18 4 10 6 7 8 7 16 1 4 1 19 6 8 8 10 2 6-2 5-6 4-11 4h-2l2 14 4 10 8 11 10 8 12 6 9 2 13-1 10-4 13-9 19-19 4 1 9 8 4 10-1 6-10 7-18 6-4 1-22 2-1 1h-6l-3-2h-8l-11-3-12-5-9-7-8-8-8-16-4-14-8 1-28 9 2-4 7-16 6-17 1-11-5-12-8-12-11-14-4-3v-2l-4-2-17-12-17-8-12-5-25-6-7-1h-23l-16 4-6 3-8 9-13 26-2 5v4h7l7-2 1 1h5l2-1 5 1-4 2-11 10-10 15-7 15-5 14-1 2-3-1-4-7h-2l-1 4h-3l-5-10v-11l3-9 6-9 7-6 2-1-2-4-7-8-7-7-8-7-9-9-1-2v-6l5-5 16-8 56-26 34-16 26-12zm68 75 6 10 10 13 18 18 2-1-6-16-4-9-5-5-9-6-10-4z" fill="#202F38"/>
<path transform="translate(1127,587)" d="m0 0 6 1 20 10 11 8 10 11 9 17 8 23 1 11-3 11-10 4-8 6-11 6-32 18-15 9-11 7-10 8-10 9-8 9-10 8-4 6-8 11-5 4v-12l9-50 9-40 9-29 7-17 10-18 9-12 8-8 11-7z" fill="#2B454F"/>
<path transform="translate(887,759)" d="m0 0h1l3 14 3 25v12l-10 38-7 33-6 36-5 38-5 56-5 76-1 18v20l4 8 11 16 5 7 5 16 7 16 8 14 11 17 8 12 8 11 6 8v2l-9 2-30 5-30 7-24 7h-3l-1-2v-28l6-85 3-43 8-117 3-44 2-27 3-38v-10l9-8 3-10 11-65 6-32z" fill="#203139"/>
<path transform="translate(725,108)" d="m0 0h14l9 2 15 8 10 9 5 9v9l-8 16-15 26-9 15-14 25-12 20-3 4-4-2-6-8-2-5h-2l-6-8v-2l-7-1-3 3-1 3v18l-7 13-2 5-5 5h-4l-1-3 4-5h2l-2-11-3-3-4-8-2-2v-5l2-3 5-3 3-3h2v-8l-2-5-3-1h2l2-5 19-41 11-24 9-19 5-10 5-4z" fill="#E2A2DF"/>
<path transform="translate(1030,1582)" d="m0 0h3l15 25 5 12 1 10-4 16-5 16-2 12-1 11-1 47-4 1-2-7-2-42-3-8-5-3-5 25-5 22-6 10-10 8-19 10-15 5-22 5-19 3h-18l-13-4-8-6-4-6 1-7 6-9 9-11 18-18h2v-2l8 1 19 7 17 8 6 3h8l12-6 5-4 7-8 7-10 6-15 2-7 1-9 1-26 2-16 4-15 6-16z" fill="#CC6BC8"/>
<path transform="translate(1161,1434)" d="m0 0 6 1 21 10 10 7 8 9 5 12 6 22 9 19 11 18 15 22-1 2-5-1-11-15-12-17-5-6-7-4-5-1 9 25 7 18 1 4v13l-5 13-8 14-8 10-9 10-13 13-14 11-11 7-13 5h-11l-6-4-3-4-1-3 1-16 7-36 5-3 26-5 18-2 7-3 6-7 4-8 3-12v-20l-4-15-6-14-5-8-9-15-6-12-5-15z" fill="#CC6BC8"/>
<path transform="translate(997,371)" d="m0 0 6 1 10 5 11 2 21 1 17 3 19 7 14 9 13 13 6 8 7 11 6 8v2l4-1-2 12 5 13 8 17 5 16 1 6v23l-3 10-7 12-9 8-11 6h-8l-2-1v-9l2-8-8 7-4-2-12-14-1-3 4-22 8 4h11l8-4 8-9 6-11 2-8v-8l-2-8-2-5-4-2-10-4-10 1-8 5-7 5-7 1-5-4v-9l1-12-6-12-6-10-4-7 2 12 2 9h-5l-15-7-9-6 2-1-1-5-7-11-2-5-2-1 2 13v6l-10-4-11-8-6-8-4-10-1-4z" fill="#203038"/>
<path transform="translate(1310,958)" d="m0 0 22 8 21 7 25 10 13 5 6 4 10 11 10 13 12 12 2 3v5l-3 2h-14l-1 4-2 1h-9l-8-3-4-4h-14l-9 3-9-1-24-13-27-8-19-6-12-3 18-18 8-12 6-14z" fill="#FAA7A9"/>
<path transform="translate(729,457)" d="m0 0 3 4 11 35 7 20 5 10 8 11 15 16 8 7 7 7 2 1-1 5-6 9-11 13-9 7-10 6-10 2-10-1-15-6-1-2-3-1-4-12-3-18v-38l4-30 5-22z" fill="#202F38"/>
<path transform="translate(883,506)" d="m0 0 5 1 15 10 28 17 18 9 1 3-18 12-10 9-8 7-13 14-13 17-12 18-10 17-10 19-3 7-1-4v-30l3-22 5-26 1-4 6-23 7-23 5-17 3-9z" fill="#2C4550"/>
<path transform="translate(403,879)" d="m0 0h9l8 4 6 6-1 3-18 10-12 7-19 11-11 6-19 11-21 12-11 6-11 7-11 6-13 8-15 8h-7l-9-6-7-2 5-5 15-10 17-10 19-11 28-16 29-17 28-17 14-8z" fill="#F1C9F0"/>
<path transform="translate(1586,879)" d="m0 0 9 2 12 6 24 14 59 35 27 15 20 12 12 9 2 3-14 9h-6l-14-8-11-6-19-11-20-11-19-11-11-6v-2l-4-1-26-15-18-10v-2l-5-1-3-1v-2l-5-1-8-3 1-4 8-7z" fill="#F1C9F0"/>
<path transform="translate(240,980)" d="m0 0 5 1 4 3 4 2 2 6 1 11 1 4 1 23 1 7-1 18v20l1 8v36l1 20 1 25v14l-2 4-9-3-8-6-2-5z" fill="#D68DCF"/>
<path transform="translate(1089,552)" d="m0 0 3 1-1 4-8 10-13 17-10 14-13 20-8 15-10 24-8 21-5 18-4 17-5 25-2 9-3 19-5 30-3 21-12 87v13l4 8 7 10 3 4 4-1 3-5 9-12 4-11 5-36 3-30 4-31 6-39 3-19 3-18 8-36 8-31 7-21 6-15 10-18 6-9 7-8 9-10 8-7 5-3h5v3l-8 5h-2v2l-5 2v2l-8 7-12 16-10 19-8 20-8 27-7 29-3 16-5 25-6 36-6 42-6 56-2 21-3 11-7 11-9 10-3 1-2 5-4 2-6-7-8-14-4-8v-13l5-35 7-50 8-53 7-40 7-33 9-29 8-21 8-18 13-22 14-20 10-12 8-11 6-8z" fill="#FEFEFE"/>
<path transform="translate(659,295)" d="m0 0 1 3-2 6-5 9h-2l-1 4-4 8h-2l-2 7h-2l-2 8h-2l-2 8h-2l-3 9-4 8-5 11-2 5h-2l-1 6-6 10-6 12-1 4 1 2-3 1-3 4-7-1-8-9-5-10-1-3v-10l4-11 15-25 8-15 2-6 2 1v2l5-4 12-6 9-6h2v-2l11-8 5-5z" fill="#F1C9F0"/>
<path transform="translate(709,130)" d="m0 0 8 10 10 13v2l4 2v6l-13 24-5 8-2 6-5 9h-2l-1 5-4 11-9-1-3 3-1 3v18l-7 13-2 5-5 5h-4l-1-3 4-5h2l-2-11-3-3-4-8-2-2v-5l2-3 5-3 3-3h2v-8l-2-5-3-1h2l2-5 19-41 11-24z" fill="#F0C8EF"/>
<path transform="translate(1754,980)" d="m0 0h1v189l-7 8-5 3h-7l-1-3v-24l1-34v-23l1-4-1-2 1-4-1-9 1-10-1-5 1-2v-17l-1-2 2-6v-12l2-19v-12l1-3 3 1 4-2 2 2 1 5 1 4h2z" fill="#D68DCF"/>
<path transform="translate(1133,332)" d="m0 0 13 2 10 3 9 6 7 9 6 14 1 4 1 19 6 8 8 10 2 6-2 5-6 4-11 4h-2l2 14 4 10 8 11 10 8 12 6 9 2 13-1 10-4 13-9 19-19 4 1 9 8 4 10-1 6-10 7-18 6-4 1-22 2-1 1h-6l-3-2h-8l-11-3-12-5-9-7-8-8-8-16-4-14-2-2h2l2-23 2-16v-8l-5-7 1-2 4 3-6-16-4-9-1-3-4-2-10-6-10-3-3-3z" fill="#CD6FC9"/>
<path transform="translate(654,204)" d="m0 0 7 1 7 7 4 1 3 5v6l-8 8h-3l-1 8 3 3 3 7-1 7-7 11-1 9-4 3-6 2-3 8-6 2-17 2-5-8-2-6v-8l3-18 4-7 2-13 4-6 4-2h14v-13l3-6z" fill="#FAA8A9"/>
<path transform="translate(669,250)" d="m0 0 3 3 1 3v8l-5 5 1 3 5-2 3-4 4-10 4-6 3 4 3 11 7 12 1 8-3 7-5 4h-17l-9-4-5-1-10 9-8 8-15 11-10 6-5-1-2-2v-5l-15-1-2-2 6-4 10-4 14-9 1-3 7-2 15-2 4-9 9-4 1-9 7-11z" fill="#CC6BC8"/>
<path transform="translate(725,108)" d="m0 0h14l9 2 15 8 10 9 5 9v9l-3 7-8 1-2-2-1-4h-2l-2 3-7 3-3 2-10 1-1 4-2 5-4 3 1-7h2l1-7-2-2-2-1-3-1-1-4h-3l-5-5h-1l-2-9h-2l-2-6-1-2h2l-1-6 5-7z" fill="#D68DCF"/>
<path transform="translate(947,451)" d="m0 0h4l-1 10-1 6v29l5 13 7 11 10 8 6 4v2l-9 4-4 2-5-1-5-5-9-14-4-8-1-3h-3v11l-2 1-5-5-6-8-4-11v-16l3-9 6-9 8-7z" fill="#23323B"/>
<path transform="translate(1068,261)" d="m0 0 4 2 12 14 13 15 9 11 12 14 11 12 5 5 5 6 15 21-2 1-9-6-8-6-2-5-4-2-1-3h-2l-4-8-6-8-4-8-8-7v-2l-4-2-7-10-2-5h-2v-3l-5-2v-2h-2v-3h-2l-1-4-4-2-3-5-8 1v2l-24 12-7 3-13 6-14 7-7 3-19 9-7 3-15 7-10 5-14 6-10 4v-6l5-5 16-8 56-26 34-16 26-12z" fill="#445A6A"/>
<path transform="translate(1105,779)" d="m0 0 3 3 5 24 8 31 4 14 3 8 3 10 7 14 4 10v4h2l6 16 6 15 3 5 3 9 5 8 2 6v11h-5l-4-6-8-18-8-16-5-13-7-17-3-9-3-12-3-9-3-10-7-28-6-33z" fill="#2B454F"/>
<path transform="translate(947,555)" d="m0 0h4v2l-8 6h-2l-2 4-8 7-19 19-9 11-9 12-9 14-8 13-10 21-5 12-5 13-7 22-8 26-6 27-2 6-3-4 1-7 2-9 2-11 2-7 2-10 3-14 3-7 11-27 5-11 2-5 5-12 8-14 6-9 12-17 11-13 7-9 11-11 11-9 7-5h3v-2h2z" fill="#FEFEFE"/>
<path class="twinkle" transform="translate(1301,573)" d="m0 0h2l4 20 5 10 4 2 11 7v2l-11 4-6 5-3 8-3 18-2 2-2-6-3-15-5-8-8-5-6-3 1-2 12-6 5-6 3-9z" fill="#CD6FC9"/>
<path class="twinkle" transform="translate(500,273)" d="m0 0h2l4 20 5 10 4 2 11 7v2l-11 4-6 5-3 8-3 18-2 2-2-6-3-15-5-8-8-5-6-3 1-2 12-6 5-6 3-9z" fill="#CD6FC9"/>
<path class="twinkle" transform="translate(1380,1503)" d="m0 0h2l4 20 5 10 4 2 11 7v2l-11 4-6 5-3 8-3 18-2 2-2-6-3-15-5-8-8-5-6-3 1-2 12-6 5-6 3-9z" fill="#CD6FC9"/>
<path class="twinkle" transform="translate(100,573)" d="m0 0h3l6 30 7.5 15 6 3 16.5 10.5v3l-16.5 6-9 7.5-4.5 12-4.5 27-3 3-3-9-4.5-22.5-7.5-12-12-7.5-9-4.5 1.5-3 18-9 7.5-9 4.5-13.5z" fill="#CD6FC9"/>
<path transform="translate(664,306)" d="m0 0 1 2-1 2h-2l-1 6-5 9-7 15-3 4-3 8-5 8-1 4h-2l-2 7-3 5h-2l-1 7-3 1-1 5h-2v3h-2l-1 5-2 4-4 10-3 1-1-4 3-9h2l1-6 3-6 5-11h2v-5l6-11 10-19 2-4h2l2-6 4-10 2-3 2-4h2l1-4z" fill="#D68DCF"/>
<path transform="translate(1071,264)" d="m0 0 3 1 9 11 9 10 9 11 11 13 12 14 9 8 2 4 4 4 15 21-2 1-9-6-8-6-2-5-4-2-1-3h-2l-4-8-6-8-4-8-8-7v-2l-4-2-7-10-2-5h-2v-3l-5-2v-2h-2v-3h-2l-1-4-4-2-3-5-3-1v-2h2z" fill="#374958"/>
<path class="twinkle" transform="translate(1285,1079)" d="m0 0 2 1 3 14 3 6 5 4 8 5-2 2-8 3-4 5-4 12-1 6h-2l-3-17-5-6-7-4 1-3 6-4 5-6 2-12z" fill="#CD6DC9"/>
<path transform="translate(669,250)" d="m0 0 3 3 1 3v8l-5 5 1 3 5-2 3-4 4-10 4-6 3 4 3 11 7 12 1 8-1-3-3-1-14-1-4-4-7 1-5-3h-2l-3 3v-9l7-11z" fill="#D68DCF"/>
<path transform="translate(826,905)" d="m0 0h2v22l-2 14 1 10v14l-4 6v6h-4l-4-4-1-2-1-12 3-12 2-4 3-20 2-3 2-14z" fill="#F3DDF3"/>
<path transform="translate(1275,444)" d="m0 0 4 1 9 8 4 10-1 6-6 4 2-5-11 2-3 1v-2l-4-1-1-4-2 1-3-2-1-6z" fill="#D68DD0"/>
<path transform="translate(913,640)" d="m0 0 2 2-3 4-5 13-6 14-8 24-13 48-5 22-1 3h-3l1-9 4-15 4-18 5-21 7-24 8-20 8-16z" fill="#FEFEFE"/>
<path transform="translate(323,1026)" d="m0 0 4 2 8 24-1 4-8 5-9 5h-4l2-11 6-24z" fill="#D891D1"/>
<path transform="translate(1179,390)" d="m0 0 5 5 10 12 2 6-2 5-6 4-9 3h-4v-14l2-10 1-10z" fill="#24343E"/>
<path transform="translate(727,177)" d="m0 0 3 1-1 6-3 4-2 5-6 11-3 8-2 3-2 5h-2l-1 4-2 4h-2l1 3-4-1-1-3h2l1-7 3-5 11-22 2-1 2-7 3-4z" fill="#D68DCF"/>
<path transform="translate(1670,1151)" d="m0 0 4 1 3-1 1 7-6 12-6 5-7 1v-6l5-1-1-8h2l1-5 1-4z" fill="#D78FD0"/>
<path transform="translate(669,250)" d="m0 0 3 3 1 3v8l-5 5 1 3 5-2 3-4 4-10 4-6 3 4-1 3h-2l-4 9-3 6h-2v2l-5 1-8-1-3 3v-9l7-11z" fill="#E2A2DF"/>
<path transform="translate(320,1151)" d="m0 0h5l4 5 1 5h2l1 9h3l-1 7-5-2-8-7-6-12v-3z" fill="#D68DCF"/>
<path transform="translate(730,108)" d="m0 0h9l9 2 6 3 3 5-5-1v-2l-4 1 1 4-2 2v3l-5-1-2-2-2-4-4 1-3-6h-2z" fill="#CD6EC9"/>
<path transform="translate(660,290)" d="m0 0 3 1-7 6-8 10-9 6-4 2v2l-11 7-13 7-4 2-1-5 3-9 4 5 6-1 15-10 11-9 12-12z" fill="#DD9AD9"/>
<path transform="translate(1019,1611)" d="m0 0h1l-1 16-2 34-3 14-5 12-9 14-5 5-7 6-9 5-3 1h-9v-1l10-2 10-5 5-4 7-8 7-10 6-15 2-7 1-9 1-26 2-16z" fill="#D68DCF"/>
<path transform="translate(985,781)" d="m0 0h1v8l-6 35-7 50-4 27h-1l1-17 3-22 3-23 9-54z" fill="#DE9BD9"/>
<path transform="translate(1154,363)" d="m0 0 5 2 7 7 4 7 2 3-1 18-2 14h-1v-9l2-19-6-2-6-9-4-10z" fill="#314A55"/>
<path transform="translate(757,129)" d="m0 0 2 1-3 14-4 8-6 1-1-7 2-2v-3l-2-2 5-1v-2h2l-1-3z" fill="#CC6AC8"/>
<path transform="translate(883,768)" d="m0 0h1l-1 11-11 64-4 23h-1l1-15 3-18 5-32z" fill="#D582D0"/>
<path transform="translate(688,257)" d="m0 0h1l2 8 7 13-6 1-8-1-2-6 1-4 3-1z" fill="#E2A2DF"/>
<path transform="translate(1167,1462)" d="m0 0 2 2 8 16 8 13 6 11 6 14 3 11v23h-1l-1-20-4-15-6-14-5-8-9-15-6-12z" fill="#D68DCF"/>
<path transform="translate(323,1026)" d="m0 0 4 2 5 16v2h-5l-3-5-5 1 1-7z" fill="#DF9EDA"/>
<path transform="translate(826,796)" d="m0 0 2 1-1 9-7 35h-1v-19l4-17 1-7z" fill="#FEFEFE"/>
<path transform="translate(979,535)" d="m0 0h5v4l-12 6-8 1-2 4-5 1-2-2 3-2h4l2-4 8-3 1-2z" fill="#FEFEFE"/>
<path transform="translate(1033,441)" d="m0 0h8l7 9v2l-7-1-4-3-8-1 1-4z" fill="#22353D"/>
<path transform="translate(974,422)" d="m0 0 6 1 4 5-1 5-4-2-6-1h-6l-1-4z" fill="#243840"/>
<path transform="translate(980,396)" d="m0 0h7l5 4v4h-17l-1-2 4-5z" fill="#22343C"/>
<path transform="translate(1754,1028)" d="m0 0h1v58h-1l-1-8v-33l-1-4z" fill="#E2A2DF"/>
<path transform="translate(724,603)" d="m0 0 4 1 10 4 10 1 12-2-1 2-14 4-11-2-8-4v-2h-2z" fill="#2B454F"/>
<path transform="translate(814,955)" d="m0 0h1l2 13 2 1 1-2 5-1-2 5v6h-4l-4-4-1-2-1-12z" fill="#E6AFE4"/>
<path transform="translate(1180,1581)" d="m0 0 4 1-5 2-28 4-17 4-4 1-1 2 1-4 4-2 26-5 18-2z" fill="#D68DCF"/>
<path transform="translate(685,250)" d="m0 0 3 4-1 3h-2l-4 9-3 6h-2v2l-5 1 2-4 4-5 4-10z" fill="#E2A2DF"/>
<path transform="translate(939,615)" d="m0 0h1l3 14-1 3-3-9v-3h-2l-2 7h-2v2l-4 4-8 13-1-2 8-14 10-14z" fill="#DB96D6"/>
<path transform="translate(994,961)" d="m0 0 2 3-1 18-4 1-1-1 1-13z" fill="#FCF7FC"/>
<path transform="translate(928,560)" d="m0 0 2 1-27 27-2-1 16-17z" fill="#DE9ADB"/>
<path transform="translate(883,768)" d="m0 0h1l-1 11-6 34h-1v-12z" fill="#D27DCE"/>
<path transform="translate(1243,1543)" d="m0 0 5 5 4 7-4 1-5-5-2-5z" fill="#725F8A"/>
<path transform="translate(876,1157)" d="m0 0 6 4 5 6 8 6-2 1-11-7h-3l-3-5z" fill="#E2A6DD"/>
<path transform="translate(665,260)" d="m0 0h3l1 4-5 4 1 5-5 4v-9z" fill="#D68ED0"/>
<path transform="translate(940,501)" d="m0 0h3l1 9-2 3-2-4h-3l-1 2 1-5z" fill="#374F5C"/>
<path transform="translate(819,429)" d="m0 0 4 2 4 7v4h-3l-6-10z" fill="#3F4B5F"/>
<path transform="translate(785,585)" d="m0 0v3l-10 11-10 7-5 1 5-4 11-8z" fill="#2B454F"/>
<path transform="translate(830,773)" d="m0 0 3 1-2 13-2 2-2-4z" fill="#FEFEFE"/>
<path transform="translate(663,291)" d="m0 0 10 3 1 2-5 1-2 5-3-4z" fill="#D68DCF"/>
<path transform="translate(1106,549)" d="m0 0h2v6l-3 3-4-1 1-4z" fill="#FDFBFD"/>
<path transform="translate(609,319)" d="m0 0 4 5 4 2-8 3h-2l1-7z" fill="#D891D1"/>
<path transform="translate(325,1037)" d="m0 0h2v3l3-1 2 7h-5l-2-3z" fill="#E2A3DF"/>
<path transform="translate(820,844)" d="m0 0h1l2 10v6l-3-2-2-10z" fill="#FEFEFE"/>
<path transform="translate(887,759)" d="m0 0h1l3 14v7h-1l-3-13h-2l1-7z" fill="#33515B"/>
<path transform="translate(994,487)" d="m0 0h3l3 3 3 1v3l-5 2z" fill="#CC6AC8"/>
<path transform="translate(1143,1587)" d="m0 0h5l-1 2-13 3-4 1-1 2 1-4 4-2z" fill="#D78FD0"/>
<path transform="translate(1275,448)" d="m0 0 4 1 2 6-2 1-7-2 3-1z" fill="#E2A2DF"/>
<path transform="translate(824,966)" d="m0 0v3l-1 2v6h-4l-3-2v-2l5 2v-7z" fill="#CC6AC8"/>
<path transform="translate(940,502)" d="m0 0 2 1-1 8-1-2h-3l-1 2 1-5z" fill="#D178CD"/>
<path transform="translate(1283,471)" d="m0 0 1 3-8 4-4-1 3-2 7-3z" fill="#D892D2"/>
<path transform="translate(940,399)" d="m0 0h1l3 13v3h-2l-2-5z" fill="#835C93"/>
<path transform="translate(1179,390)" d="m0 0 3 3h-2l1 4h-2l-1 7-1-3 1-10z" fill="#415666"/>
<path transform="translate(615,326)" d="m0 0m-2 1h2v2l-5 3-3 1-1-5z" fill="#E2A2DF"/>
<path transform="translate(929,326)" d="m0 0 3 1-6 7h-2l1-5z" fill="#D074CC"/>
<path transform="translate(990,1021)" d="m0 0 3 3-3-1z" fill="#D480D1"/>
<path transform="translate(990,1014)" d="m0 0h1v5h-1z" fill="#EBB9E9"/>
<path transform="translate(990,1012)" d="m0 0" fill="#F1C9F0"/>
<path transform="translate(989,1011)" d="m0 0" fill="#F1C9F0"/>

</svg>