<?xml version="1.0" encoding="UTF-8"?>
<svg version="1.1" viewBox="0 0 2048 1917" width="1280" height="1280" xmlns="http://www.w3.org/2000/svg">
<path transform="translate(1153,166)" d="m0 0h54l36 2 38 4 36 6 48 11 35 10 30 10 41 17 27 12 46 25 21 13 33 22 12 9 21 16 10 8 13 11 12 11 8 7 12 11 29 29 9 11 10 11 9 11 10 12 14 19 12 17 14 21 9 15 11 18 8 14 8 16 15 31 11 27 10 28 12 36 7 26 8 36 6 37 6 48 1 19v79l-2 25-6 46-6 35-7 31-9 33-14 41-9 24-6 17-10 50-11 44-9 29-9 24-12 28-13 28-15 27-14 25-9 14-10 14-8 12-10 14-9 11-13 17-10 11-7 8-12 14-41 41-10 8-10 9-12 10-17 12-18 12-13 5-12 3-4-1-10-3-13-7-18-13-11-8-14-12-11-10-8-7-10-9-6-7-4-1-19 7-33 9-39 9-36 7-27 4-26 3-44 2h-44l-41-2-27-3-32-5-45-9-48-13-35-12-38-15-27-12-25-13-22-12-9-1-13 11-10 9v7l12 36 12 38 15 43 16 50 1 4v10l-4 10-8 7-10 3-9 1-50 1h-37l-16-2-10-5-5-6-5-10-8-25-11-34-10-30-9-25-1-6-46 7-24 2h-23l-26-2-38-5-14-2-15 43-18 56-8 24-4 8-7 6-4 2-6 1-46 1h-60l-14-3-7-6-4-8v-15l8-26 17-50 22-70 7-20 2-6-1-5-10-8-7-7-8-7-16-16-8-7-16-15-16-23-10-18-7-10-17-35-4-11-6-25-7-24-2-11-4-38v-45l4-38 6-29 11-38 11-28 13-25 8-13 12-19 13-16 7-9 9-10 7-8 10-10 8-7 9-9 20-15 18-13 26-15 24-12 23-9 14-5 1-57 3-34 2-19 4-27 8-41 8-34 10-34 19-50 11-26 12-25 12-22 10-18 10-16 11-17 13-19 24-32 11-14 12-13 9-10 7-8 2-3h2l2-4 8-7 15-16 8-7 13-11 14-13 14-11 12-9 17-13 16-11 23-15 16-10 29-16 23-12 15-7 28-12 30-12 32-10 38-10 45-10 35-5 28-3zm-788 1395-3 4v5l6 3 12 1 2-1-1-4-14-8zm384 3-4 3 5-1 2-2zm-6 3-13 7 3 1 11-6 1-2zm-424 118-5 13h2l4-9zm484 15-3 2-22 2-16 4-7 1-16-1h-20l-13 2 2 9 2 3 4 1h99l1-5-5-14-3-4z" fill="#5A0F56"/>
<path transform="translate(1521,899)" d="m0 0h21l22 2 16 3 13 3 21 7 16 7 16 9 15 10 14 11 12 11 12 12 10 13 11 15 11 21 10 25 7 24 3 16 1 13v35l-3 23-9 31-6 16-8 16-7 12-16 22-9 11-12 12-8 7-14 11-20 12-18 10-18 7-18 5-23 4-13 1h-31l-25-3-22-5-21-7-16-8-17-9-15-10-13-11-8-7-14-14-11-14-10-14-9-16-5-12-1-6h-2l-7-18-3-11-1-7-2-7-3-24v-33l3-23 5-21 7-19h2l1-6 7-15 10-18 11-15 7-8h2l2-5 10-9 7-8 5-2 1-3 18-13 20-12 19-9 25-8 24-5z" fill="#D1B1D1"/>
<path transform="translate(1154,502)" d="m0 0h11l1 1 1 38v236l-1 101-1 1-113 1h-103l-10-8-9-4h-10l-10 4-10 8h-134l-2-1v-27l2-40 4-48 6-46 5-30 9-42 7-31 9-34 7-22 11-4 29-9 33-9 32-8 47-9 38-6 51-6 55-4z" fill="#A2A4CE"/>
<path transform="translate(1517,874)" d="m0 0h31l19 2 22 4 21 6 15 5 20 10 16 9 16 11 9 7 15 14 5 4 6 7 4 1 10 13 11 15 14 23 8 18 7 17 5 17 4 18 2 15 3 2 1 34v-2-16l4-4 2-3 3-17 2-17 1-24v-6l1-7v-26l-3-16-6-12-7-12-7-11-8-12-10-13 1-2 5 6v2h2l14 19 12 19 8 16 9 21 6 15 6 20 2 7 4 26 2 20 1 21-1 30-3 36-4 26-5 23-7 27-4 14-5 16-3 11-12 30-8 18-7 15-9 19-10 18-9 15-13 21-9 14-11 15-11 16-7 9-8 10h-2l-2 4-10 13-6 7h-2l-1 4-4 4h-2l-2 4-7 8h-2v2h-2v2h-2v2h-2v2h-2v2h-2v2h-2l-2 4h-2v2l-8 7-5 4-12 12-11 9-13 10h-2v2l-8 6-13 8-14 7h-8l-13-7-10-7-12-9-10-8-11-9-13-13-8-7-24-24-7-8-9-9-9-11-12-14-10-12-26-36-6-9-14-22-8-13-6-10-9-16-19-38-9-20-6-16-13-38-6-21-6-24-3-15v-6l3 1 3 5 3 1 6 12 6 10 1 3 4 3v5l4 2 2 6 2 1 2 4v3h2l7 13 4 4 3 5 5 7v4h2l7 9v3h2l4 7 7 10v2l4 2 6 8 4 6 2 1v3l3 1 7 8 6 7 4 5 5 4 7 9 3 3v2l4 2 5 4v2h2l8 8v2l4 1 4 4v2l4 2 3 2v2l4 2v3l5 2v2l4 2 8 6 5 4 2 1v2l5 2 3 3 6 3 10 7 8 4 10-1 6-2 4-5 1-5 3-1 1-3v-3l2-4 3-2 7-2 3-3h2l2-4v-3l1-6h3l2 3 2-2h4l1-4 9-5 1 2-4 3 7-2 11-8 6-2v-2h3v-2l5-5h2l2-4 23-23h3v-5l-4-1-5 2h-8l-9 2-7 2h-26l-18-1-13-2-1-1-27-4-19-5-17-6-18-8-16-8-16-10-14-11-13-11-13-13-12-13-13-18-12-19-9-19-9-25-7-25-3-20-1-11v-35l3-24 4-17 11-33 8-18 12-21 13-18 12-14 8-9 8-7 14-13 13-9 20-12 26-13 24-8 21-5 19-3zm4 25-21 2-24 5-30 10-21 11-16 10-16 12v2l-5 2-4 5-8 7-7 8v2l-4 2-9 11-10 15-12 23-3 7v4h-2l-7 19-5 21-3 23v33l3 24 5 21 5 15 3 7h2l1 6 5 12 11 19 14 19 14 15 11 11 11 9 14 10 22 12 16 8 21 7 22 5 25 3h31l20-2 20-4 17-5 15-6 22-12 13-8 17-13 17-16 10-11 7-10 9-12 8-13 8-17 5-12 8-25 4-16 2-18v-35l-2-21-6-22-7-21-11-24-8-14-10-13-11-14-18-18-14-11-13-9-20-12-13-6-22-8-15-3-12-3-14-2-14-1z" fill="#955792"/>
<path transform="translate(528,921)" d="m0 0h61l18 2 11 3 14 1 8 2v2h8l11 3v2l9 2 17 6 5 1v2h5v2l5 1 21 11 3 1v2l7 2 6 4 12 7 3 2v2l4 1 8 6 9 8 5 5 4 2v2l4 1 5 5 10 9 4 5-1 4-4 2-2 3-5 3-9 8-11 9-9 9-7 6-4-2-5-5-12-13-6-4-10-7v-2l-4-1-2-1v-2l-4-1-2-1v-2l-4-1-2-1v-2l-4-1-7-4v-2l-6-2-14-6-10-4-3-1v-2l-11-2-13-4v-2l-8-1-13-3-24-3-1-1-9-1h-37l-22 2-13 3h-3v2l-16 4-9 1-7 4-24 9-11 4-13 7-5 5-15 10-14 10-13 12-12 12h-2l-2 4-10 11-7 10-5 6-5 5-7 10-2 4h-2v7l-11 23-6 16-5 13-6 27-3 23-1 16v21l2 24 4 24 6 23 11 28 10 21 9 15 10 14 8 11 2 2 2 5 5 5v2h2v2l4 1 8 8 8 7 15 12 11 8 9 6 14 8 21 10 24 10 27 7 14 3 21 2h46l20-2 20-4 10-1 5-3 21-8 20-9 21-11 16-11 16-12 10-9 8-7 11-12 10-12 12-17 7-10 9-16 9-20 7-17 7-25 5-28 2-24v-24l-1-24-3-16-3-9-4-19v-3h-2l-4-13v-2h-2l-2-10h-2l-6-15-3-3-3-8v-2l-3-1-1-6-3-1-3-4v-3l-3-1-1-3-3-2-4-7v-5l7-6h3l1-3 4-2 4-4 5-4 2-3h3v-2h2l2-4 9-8 4-3 5 1 10 14 17 26 13 25 15 38 7 22 6 30 3 24 1 13v31l-2 25-5 30-6 25-5 15-13 32-9 19-8 13-16 24-8 11-7 9-5 5-9 10-17 17-8 7-14 12-30 20-17 10-28 13-34 12-22 6-16 3-22 3-13 1h-49l-20-2-21-3-21-5-29-10-24-10-23-11-16-10-14-10-13-9-15-13-13-12-14-14-9-11-9-10-11-16-10-15-10-17-7-14-10-24-12-36-5-25-3-19-2-18v-50l3-25 5-27 12-36 12-30 10-19 10-16 10-15 12-16 7-8 8-8 2-3h2l2-4 10-10 13-12 9-7 11-9 11-7 16-10 18-10 7-4 13-4 3-2 7-2 3-3 24-8 36-9 10-2z" fill="#E2DDF1"/>
<path transform="translate(1192,502)" d="m0 0h13l47 2 52 4 36 4 49 7 42 8 35 8 24 7 41 12 12 4 3 3 13 43 8 33 4 17 8 44 10 69 3 30v8l-14-1-29-3h-25l-28 2-27 4-32 8-23 8-25 12-17 9-19 12-16 13-12 9-4 2h-128l-2-1v-357z" fill="#A2A4CE"/>
<path transform="translate(999,904)" d="m0 0h160l7 1 1 6v369l-2 2h-13l-50-2-49-4-50-6-44-7-36-7-2-1-1-26-4-33-6-28-13-41-8-19-9-19-14-24-14-21-11-13v-3l11-9 4-4 16 3 26 7h13l8-4 10-9 14-11 14-12 7-7 14-11 10-9 5-8 2-10-3-10-6-8-6-4-22-8-5-4 1-5z" fill="#A2A4CE"/>
<path transform="translate(553,1009)" d="m0 0h15l20 2 21 3 20 5 27 10 29 14 14 9 13 10 14 11 10 10-1 5-11 10-11 9-10 9-8 7-8 6-5-2-6-7-12-9-13-8-19-10-21-8-17-4-13-2-21-1-19 1-18 3-19 5-16 7-23 12-12 8-13 12-8 8h-2v2l-5 5-7 9-9 14-9 16-6 14-6 20-3 17-1 10v30l2 18 5 20 8 22 6 10 8 14 13 17 7 7v2l4 2 8 8 10 7v2l5 2 26 15 9 4 18 6 27 5h39l24-4 26-8 13-7 19-11 13-10 10-9 9-9 13-17 8-13 10-18 8-24 5-28v-38l-5-27-7-21-8-16-14-22v-3l11-9 7-6 10-8 11-11 11-9 4 2 9 14 9 15 9 17 9 21 8 28 4 24 1 13v36l-3 25-7 30-8 22-16 31-10 16h-2l-2 5-9 10-3 5h-2l-2 4-19 19-20 16-14 9-27 15-23 9-27 7-17 3-24 2h-24l-23-2-21-4-22-6-20-8-16-8-21-12-11-8-11-9-10-9-5-4-7-8-9-10-11-14-7-10-9-16-8-15-7-16-6-18-6-27-3-22-1-15v-15l1-16 5-30 7-25 9-21 8-16 11-19 7-11 5-5 7-9h2l2-4 11-12 9-8 12-9 9-8 14-8 16-9 11-5 25-10 26-7 20-3z" fill="#AF93C1"/>
<path transform="translate(1192,190)" d="m0 0 12 1 30 5 23 6 19 7 30 14 19 11 13 9 19 14 10 8 13 12 30 30 7 9 11 12 10 14 8 11 12 17 6 9 6 11 8 13 8 15 9 16 14 29 7 17 10 23 7 20 1 5-7-1-36-10-67-16-27-5-46-7-44-5-54-4-20-1-35-1-7-2v-284z" fill="#A2A4CE"/>
<path transform="translate(1164,190)" d="m0 0 3 2v245l-1 39-1 1-12 1-51 2-51 4-44 5-46 7-38 8-47 11-36 10-10 3h-5l1-7 13-34 9-20 18-38 12-22 10-17 10-16 7-11 10-13 11-16 9-11 9-10 11-13 12-13 15-13 10-10 12-9 13-10 11-8 17-10 19-10 25-11 19-6 27-6z" fill="#A2A4CE"/>
<path transform="translate(1022,207)" d="m0 0h6l-1 3-17 12-12 8-14 11-11 10-8 7-15 14-7 7-7 8-11 12-12 16h-2l-2 4-4 6-3 3-1 2h-2l-2 5-16 24-6 8-9 15-10 17-6 12-10 18-16 35-8 19-6 14-13 36-3 7-5 3-15 5-25 10-18 8-25 12-15 8-16 8-19 11-20 12-20 13-13 10-15 11-14 12-7 7-9 7-20 20-5 7h-2l-2 4-5 6h-2l-2 4-4 5h-2l-2 5-8 11-6 10-4 4-3-1 1-11 2-6 2-10 5-20 6-21 12-36 10-25 17-38 9-19 15-25 6-12 24-36 12-17 6-8 7-8 11-14 9-11 9-10 5-6h2l2-4 11-11 1-2h2l2-4 7-7 8-7 9-9h2l2-4h2l2-4 9-7 13-10 4-4 20-16 8-6 24-16 13-9 10-6 24-14 32-17 29-13 25-11 21-8 32-10 35-10z" fill="#A3A4CE"/>
<path transform="translate(1329,207)" d="m0 0 11 1 43 12 43 14 21 9 32 14 29 14 24 14 17 10 16 10 15 11 11 7 12 9 10 8 14 11 14 12 10 9 8 7 13 13 8 7 8 8 7 8 11 12 7 8 12 14 14 18 21 28 5 9 10 15 10 16 9 16 8 14 14 28 11 25 8 21 9 23 10 32 10 40 2 10v8l-5-5-8-11-9-13-9-10-9-11-16-17-8-7-16-15-11-9-12-9-11-9-33-22-17-10-13-8-66-33-36-14-20-8-3-3-11-30-5-11-11-28-13-29-8-16-8-14-8-16-10-17-28-42-10-13-12-15-9-11-31-33-8-7-12-11-11-9-18-13-21-14z" fill="#A3A4CE"/>
<path transform="translate(1510,825)" d="m0 0h43l24 3 25 5 28 8 27 11 17 9 20 12 10 7 15 11 8 8 8 7 18 18 3 7 11 14 7 11 10 16 6 12 3 7 2 16v28l-1 3v12l-1 19-3 22-2 10-4 7h-2v11l-1 5 2 1-3 4v-37l-4-2-2-15-2-9-4-16-4-12-12-29-6-11-14-22-16-20v-2l-5-1-5-5v-2l-4-2-10-10-8-7-17-12-16-10-16-8-15-7-27-8-20-4-13-2-12-1h-31l-19 2-25 5-21 6-15 6-26 13-19 12-12 9-16 15-9 8-18 22-10 15-12 21-9 21-10 31-4 20-2 18v35l3 24 3 15 9 29 9 22 9 17 13 19 10 13 10 11 16 16 14 11 12 9 15 9 16 8 21 9 18 6 25 5 15 2 1 1 13 2 28 1h17l8-3 12-1 6-1 3-1v2h3v5l-5 3-6 5-5 7-8 7-4 5h-2l-2 4-3 1v2h-3v2l-9 5-10 7-5 1v-3l1-1-7 4-1 3-5 2h-3v-3h-3v5l1 2-4 6-4 1-1 3-9 3-2 4v3l-2 4h-3l1 3-3 5h-2l-1 3-12 3-6-1-11-6-8-6-5-3-6-4v-2l-5-2-7-6-7-5-3-3-2-1-2-4-2-1v-2l-4-2-8-8-3-1-8-8v-2h-2l-10-10-9-10v-2l-3-1v-2l-4-2-7-8-2-2-6-7-3-3v-3l-3-1-6-8-5-7-5-5-7-11-1-4h-2l-4-7-3-3v-2h-2l-3-7-5-6-2-6-3-1-6-11v-2h-2l-2-4v-3l-3-1-3-7-2-1-2-6-3-2-3-6-9-16v-3l-4-1-2-5-4-1-4-26-3-34v-53l3-26 5-23 7-24 5-13 16-33 10-16 8-11 11-14 8-10 27-27 4-1 2-4 4-1 1-3 17-12 18-11 18-10 20-9 28-9 26-6 21-4z" fill="#B374A9"/>
<path transform="translate(921,1280)" d="m0 0 11 2 24 5 44 7 41 5 47 4 36 2 35 1 7 1 1 2v282l-1 2h-10l-27-4-28-7-25-10-20-9-20-11-13-9-19-14-11-9-12-11-16-15-9-9-9-11-7-7-9-11-14-19-12-16-8-13-5-9 2-9 9-25 10-35 4-24z" fill="#A3A4CE"/>
<path transform="translate(779,571)" d="m0 0 4 1-2 10-9 36-8 37-9 48-6 39-4 36-3 43-2 45-1 13-1 1-47 1h-211l-3-2v-12l3-17 5-21 4-14 7-15 8-18 6-10 6-11 6-9 3-5 9-11 11-14 9-10 10-10h2l2-4 12-12 28-22 8-7 45-30 23-13 20-10 14-8 36-15 20-8z" fill="#A2A4CE"/>
<path transform="translate(1575,571)" d="m0 0 6 1 43 17 16 7 10 6 16 8 31 17 11 8 14 8 14 10 16 12 12 11 9 7 10 9 6 5 7 8 13 13 7 8 14 18 14 20 7 12 11 23 9 25 5 16 4 21 1 8v10l-1 1-17 1h-117l-7-3-9-8-13-10-10-7-18-11-15-8-16-8-24-9-17-6-1-1-5-53-5-41-8-48-8-39-15-55z" fill="#A2A4CE"/>
<path transform="translate(820,1046)" d="m0 0 5 1 10 14 17 26 13 25 15 38 7 22 6 30 3 24 1 13v31l-2 25-5 30-6 25-5 15-13 32-9 19-8 13-16 24-8 11-7 9-5 5-9 10-17 17-8 7-14 12-30 20-17 10-28 13-34 12-22 6-16 3-22 3-13 1h-49l-20-2-21-3-21-5-29-10-24-10-23-11-16-10-14-10-13-9-15-13-13-12-14-14-9-11-9-10-11-16-10-15-10-17-7-14-10-24-6-17 1-3 3 4 3 10 2 8 3 1 5 13 5 11 2 8 4 5v4h3l7 11v3l3 1 7 11 6 9 7 9v3h3l7 8 4 5 2 4 8 7 12 10 10 6 9 6 10 4 12 5 28 10 17 5 25 6 28 4 22 1h31l26-3 23-4 21-6 20-6 15-6 16-8 4-1 1-3-4-1 26-11 22-11 12-8 19-14 10-8 14-13 7-8 8-9 14-19 7-10 9-15 10-21 8-20 7-25 5-28 2-24v-24l-1-24-3-16-3-9-4-19v-3h-2l-4-13v-2h-2l-2-10h-2l-6-15-3-3-3-8v-2l-3-1-1-6-3-1-3-4v-3l-3-1-1-3-3-2-4-7v-5l7-6h3l1-3 4-2 4-4 5-4 2-3h3v-2h2l2-4 9-8z" fill="#C4BBDB"/>
<path transform="translate(1611,914)" d="m0 0 5 1 12 5 11 6 21 13 16 13 10 9 13 13 10 13 11 15 11 21 10 25 7 24 3 16 1 13v35l-3 23-9 31-6 16-8 16-7 12-16 22-9 11-12 12-8 7-14 11-20 12-18 10-18 7-18 5-23 4-13 1h-31l-25-3-22-5-21-7-16-8-17-9-15-10v-3-2l12 2 3 1 7-1-1-8v-2l-5-2-2-7-6 2-3-3-7-1-1-4 10-1h2 45l24-3 25-7 22-8 16-7 14-8 13-9 13-11 20-20 13-17 10-16 6-10 6-15 6-19 4-13 4-23 2-17 1-16-3-31-4-16-6-21-6-13-2-5v-3h-2l-3-9-4-2-7-10-8-10-1-6h-2v-2l-3-1 6-1z" fill="#C39CC4"/>
<path transform="translate(550,1102)" d="m0 0h18l19 2 10 2v2l11 1 3 1v2l10 2 9 4v2l5 2 15 9 4 3v2h3v2l5 2 4 3v5l-10 8-10 9-6 5h-2v2l-11 9-4 2-2 4-3 3h-2v-2l-4-2-11-8-15-6-14-3-24-1v2l-17 3-17 8-14 12-4 4h-2l-1 3-5 5-4 7-7 20-2 10-1 17 3 20 4 12 5 12 5 5 7 9 4 3v2l5 2 5 4v2l5 1 11 5 10 3v2l11 1h24l11-2 5-2h3v-2l7-1v-2l6-1 1-3 8-5h2l1-3 10-10 3-4h2l1-4h2l2-7h2l1-7 4-13 2-6v-26l-1-13h-2l-2-11h-2l-4-10 1-5 5-3 3-3 7-6 6-5h2l2-4 8-6 5-6 5-2 2-4 5 1 7 10 8 16 6 16 4 15 3 20v22l-3 20-4 17-7 18-8 15h-2l-2 5-7 10h-2l-1 4-9 10-5 5h-3l-2 4-8 5-5 5-11 7-20 9-17 5-22 4h-32l-23-4-18-6-21-10-11-8-10-8-8-7-10-10-8-11-3-7-4-5-8-16-5-13v-2h-2l-5-21-2-16v-18l3-24 6-21 9-21 11-15 4-5 4-3 2-5 10-11 19-14 11-7 4-1 1-2h4v-2l15-6 19-5 11-2z" fill="#E1DCF0"/>
<path transform="translate(1517,874)" d="m0 0h31l19 2 22 4 21 6 15 5 20 10 16 9 16 11 9 7 15 14 5 4 6 7 5 5 14 18 9 14 9 15 9 19 8 22 5 20 5 35v24l-3 31-5 24-5 16-7 19-8 16-7 12-12 18-7 9-12 14-14 14-11 9-12 9-13 9-14 8-24 11-23 8-29 6-28 3h-23l-26-3-25-5-18-6-21-9-16-8-15-9-12-9-11-9-10-9-9-8-9-11-7-8-12-17-11-18-8-17-9-25-7-25-3-20-1-11v-35l3-24 4-17 11-33 8-18 12-21 13-18 12-14 8-9 8-7 14-13 13-9 20-12 26-13 24-8 21-5 19-3zm4 25-21 2-24 5-30 10-21 11-16 10-16 12v2l-5 2-4 5-8 7-7 8v2l-4 2-9 11-10 15-12 23-3 7v4h-2l-7 19-5 21-3 23v33l3 24 5 21 5 15 3 7h2l1 6 5 12 11 19 14 19 14 15 11 11 11 9 14 10 22 12 16 8 21 7 22 5 25 3h31l20-2 20-4 17-5 15-6 22-12 13-8 17-13 17-16 10-11 7-10 9-12 8-13 8-17 5-12 8-25 4-16 2-18v-35l-2-21-6-22-7-21-11-24-8-14-10-13-11-14-18-18-14-11-13-9-20-12-13-6-22-8-15-3-12-3-14-2-14-1z" fill="#5A0E56"/>
<path transform="translate(1237,1305)" d="m0 0h12l3 4 8 22 18 39 11 23 13 22 12 21 13 21 8 10 10 15 10 13 12 15 2 3v5l-28 21-16 11-21 12-19 9-28 11-28 7-25 4h-12l-1-1v-283l3-3z" fill="#A084B6"/>
<path transform="translate(1250,1206)" d="m0 0 3 1 3 5 3 1 6 12 6 10 1 3 4 3v5l4 2 2 6 2 1 2 4v3h2l7 13 4 4 3 5 5 7v4h2l7 9v3h2l4 7 7 10v2l4 2 6 8 4 6 2 1v3l3 1 7 8 6 7 4 5 5 4 7 9 3 3v2l4 2 5 4v2h2l8 8v2l4 1 4 4v2l4 2 3 2v2l4 2v3l5 2v2l4 2 8 6 5 4 2 1v2l5 2 3 3 6 3 10 7 8 4 10-1 6-2 4-5 1-5 3-1 1-3v-3l2-4 3-2 7-2 3-3h2l2-4v-3l1-6h3l2 3 2-2h4l1-4 9-5 1 2-4 3 7-2 11-8 6-2v-2h3v-2l5-5h2l2-4 23-23h3v-5l-4-1-5 2h-8l-9 2-7 2h-26l-18-1v-1l34-1 23-3 23-5 16-5 15-7 5-2h3v-2l9-4 11-6h3l1-3 7-4 4-4 3-1 3-3 9-6 3-3h2l2-4h2v-2l5-5 8-7h2v-2h2l2-4 9-7 2-5 5-3v10l-6 15-4 8h-2l-1 5-1 2h-2v3h-2l-1 5-6 9-6 11-9 14-7 11-10 13h-2l-1 5-3 3-7 10-7 9-4 7-5 5-10 13h-2v2h-2l-2 4-4 5h-2l-2 4-5 5-12 13-20 20-8 6-5 6-8 6h-2v2l-6 5-4 4h-2l-1 3-15 11-4 3h-2v2l-5 4-20 10h-5l-13-7-12-9-8-5v-2l-4-2-7-6-9-6v-2l-4-2-5-4v-2l-4-2v-2l-4-2-8-8-5-4-5-5v-2h-2v-2l-4-2-4-5-13-13v-2h-2l-7-8-2-4h-2l-3-5v-2l-4-2-3-4v-3h-2v-2h-2v-2h-2l-4-7-6-5-1-4h-2l-1-4h-2l-6-8-4-7-3-3-9-14-12-17-8-14-8-13-6-11-5-9-6-11-6-9-3-7-5-10-1-5h-2l-5-16v-4h-2l-4-19z" fill="#A4679E"/>
<path transform="translate(472,1026)" d="m0 0 3 1-22 9-17 9-16 10-13 11h-2l-2 5-8 7h-2l-1 3h-2l-2 4h-2v3h-3l-2 5-3 1-1 4h-2l-2 4-6 8-3 3h-2l-1 5h-2l-1 4-1 3-2 1-2 7h-2l-1 5h-2l-2 7-2 1-1 5-3 4-2 7h-2l-2 9-3 8-2 7-6 24-2 17-1 11v26l3 18 1 3-1 2 3 17 2 5 3 10 4 9 6 12 3 7 6 11 3 3v2h2l2 7 3 1 3 5 5 4 2 5 4 2 18 20 11 8 16 12 4 2v2l4 1 7 4 5 2 8 4 5 1v2l10 3 17 5 25 6 30 3h25l17-2 20-4 23-7 19-8 16-8 14-9 5-4 5-3h2l1-3 4-4h3v-2l5-2 2-4 13-13 8-9 1-2h2l2-4 6-8 1-3h2l2-5 10-17 6-12 6-13 3-10 5-18 3-16v-3l1-11v-46l-4-24-5-17-5-16-5-11-4-9-5-10 1-5-5 4-3 3-2-1 13-13 11-9 4 2 9 14 9 15 9 17 9 21 8 28 4 24 1 13v36l-3 25-7 30-8 22-16 31-10 16h-2l-2 5-9 10-3 5h-2l-2 4-19 19-20 16-14 9-27 15-23 9-27 7-17 3-24 2h-24l-23-2-21-4-22-6-20-8-16-8-21-12-11-8-11-9-10-9-5-4-7-8-9-10-11-14-7-10-9-16-8-15-7-16-6-18-6-27-3-22-1-15v-15l1-16 5-30 7-25 9-21 8-16 11-19 7-11 5-5 7-9h2l2-4 11-12 9-8 12-9 9-8 14-8 16-9 11-5z" fill="#A084B6"/>
<path transform="translate(1563,305)" d="m0 0 4 2 15 10 16 11 14 11 16 13 11 9 12 11 8 7 13 13 8 7 8 8 7 8 11 12 7 8 12 14 14 18 21 28 5 9 10 15 10 16 9 16 8 14 14 28 11 25 8 21 9 23 10 32 10 40 2 10v8l-5-5-8-11-9-13-9-10-9-11-16-17-8-7-16-15-11-9-12-9-11-9-33-22-17-10-1-2 7 2 8 4 7 5 7 4 11 7 5-1-3-11-3-7-6-20-4-14-3-10-6-14-5-14-5-10-8-19-3-6-9-19-8-15-12-20-6-11-7-12-5-9-18-27-8-10v-2h-2v-2h-2l-3-5v-2l-4-2-8-9-3-2v-2h-2l-5-7v-2h-2l-3-3-2-1v-2l-3-1-7-8-8-7-2-5h-2v-2l-6-3z" fill="#A084B6"/>
<path transform="translate(1510,825)" d="m0 0h43l24 3 25 5 28 8 27 11 17 9 20 12 10 7 15 11 8 8 8 7 18 18 3 7 11 14 7 11 10 16 6 12 3 7 2 16v28l-1 3v12l-1 19-3 22-2 10-4 7h-2v11l-1 5 2 1-3 4v-37l-4-2-2-15-2-9-4-16-4-12-12-29-6-11-14-22-16-20v-2l-5-1-5-5v-2l-4-2-10-10-8-7-17-12-16-10-16-8-15-7-27-8-20-4-13-2-12-1h-31l-19 2-25 5-21 6-15 6-18 9-2-1 1-2-3-1-2 1 1 2h-6l1-3 3-3-3 1-1-3 2-4 16-8 19-8 19-6 22-5 22-3 6-3 4-5h2l-2-10-6-4-4-1h-18l-25 5-5 2-10 2h-4v2l-16 5-16 7-10 6-16 8-11 7-14 10-10 8-10 9-12 11-8 8-9 11-10 13-6 8-5 4-2-1 3-6 5-5 5-9 13-16 4-5h2l1-3 8-7 13-12 14-11 11-8 19-12 6-3 17-9 23-10 27-8 12-3 14-3 4-1-10 1-27 6-22 7-4-1 25-8 26-6 21-4z" fill="#B273A9"/>
<path transform="translate(1192,905)" d="m0 0h104l-2 4-10 12-16 23-9 14-10 19-8 18-6 16-8 24-6 29-3 24-1 21v16l2 37 3 27 6 37 7 28 7 23-1 4-24 1h-24l-2-1v-370z" fill="#A2A3CD"/>
<path transform="translate(1594,578)" d="m0 0 10 3 27 11 16 8 23 12 16 9 11 6 11 8 14 8 14 10 16 12 12 11 9 7 10 9 6 5 7 8 13 13 7 8 14 18 14 20 7 12 11 23 9 25 5 16 4 21 1 8v10l-1 1-17 1h-117l-7-3-4-5 4 1 3 2h13l11-1v-12l2-27 1-44-2-47-3-34-4-27h-1l-2-8-6-7-11-8-8-6-10-7-11-7-12-8-13-8-26-14-32-16-24-11-10-4z" fill="#A084B6"/>
<path transform="translate(1045,1300)" d="m0 0 18 1 41 3 20 1 35 1 7 1 1 2v282l-1 2h-10l-27-4-28-7-25-10-20-9-20-11-13-9-19-14-11-9-12-11-16-15-9-9-9-11-7-7-9-11-14-19-12-16-8-13-5-9 2-9 2-2 1 4-1 7 9 11 2 1v2l4 2 1 3 4 1 5 5v2l3 1v2l4 2 11 8 10 8 2 1v2l5 2 10 7 13 7 19 10 14 7 19 7 21 6 12 2 16 3 21 2h31l17-2 11-2 1-2h2l1-166 1-23h-32l-40-2-44-4z" fill="#A082B5"/>
<path transform="translate(360,1557)" d="m0 0 6 1 22 12 16 9 17 8 19 7 10 4 1 6-8 27-9 27-7 20-14 43-5 3h-99l-3-1-1-3 8-27 21-63 5-13 6-21 6-17 3-10 4-10zm5 4-3 4v5l6 3 12 1 2-1-1-4-14-8zm-46 124-5 13h2l4-9z" fill="#86C3E6"/>
<path transform="translate(681,1166)" d="m0 0 5 1 7 10 8 16 6 16 4 15 3 20v22l-3 20-4 17-7 18-8 15h-2l-2 5-7 10h-2l-1 4-9 10-5 5h-3l-2 4-8 5-5 5-11 7-20 9-17 5-22 4h-32l-23-4-18-6-21-10-11-8-10-8-8-7-10-10-8-11 1-2 13 16 6 3 7 2 18 6 16 3 13 1h26l15-2 19-5 20-8 15-8 11-8 11-10h2l2-4 8-9 11-16 8-13 4-8 5-14 5-21 2-19v-12l-2-27v-11-4l6-5h2z" fill="#C4BBDA"/>
<path transform="translate(1247,1306)" d="m0 0 4 1 10 26 17 37 11 23 13 22 3 5v7l-11 7-11 10-17 12-18 11-9 5-12 6-9 4-15 7-7 2-2-2-1-83v-98l36-1z" fill="#A2A4CE"/>
<path transform="translate(758,1557)" d="m0 0 4 1 24 72 10 31 8 24 5 17-1 2-2-3-4 1-9 2-15 1-16 4-7 1-16-1h-20l-13 1-1 3-5-17-10-30-8-23-10-31-2-8v-5l9-4 22-8 23-11 28-16zm-9 7-4 3 5-1 2-2zm-6 3-13 7 3 1 11-6 1-2z" fill="#86C2E6"/>
<path transform="translate(1502,546)" d="m0 0 12 3 29 9 3 3 13 43 8 33 4 17 8 44 10 69 3 30v8l-14-1-29-3h-25l-28 2-15 2h-5l2-2 22-3 11-1h17l-1-41-2-46-3-36-3-26-3-16-6-36-7-35-2-7v-8l1-1z" fill="#A083B6"/>
<path transform="translate(549,1194)" d="m0 0h23l15 5 10 5-1 4-13 12-12 11-14 11-6 5-2 4v9l2 5 7 2 7-1 9-6 15-14 11-9 8-7h2l2-4h3l4 8 3 11v21l-4 13-4 9-4 6-7 8-13 9-11 5-13 3h-10l-14-3-17-8-10-8-9-12-6-15-2-11v-15l4-15 8-14 9-10 10-7 12-5z" fill="#AF91C0"/>
<path transform="translate(541,934)" d="m0 0h19l9 3 3 4v10l-3 5-7 3-37 3-19 3-27 6-23 7-21 9-21 11-18 11-19 14-6 5h-2v2l-11 9-5 5h-2v2l-6 5-7 8-12 14-13 19-11 17-7 11-4 7-3 4-4 2h-6l-9-6-1-6 3-10 10-18 14-22 8-11 7-8 7-9 11-12 10-10h2l2-4 8-7 9-7 16-12h2v-2h3l1-3 16-9 11-6 16-8 9-4 20-8 28-8 23-5 22-3z" fill="#FEFEFE"/>
<path transform="translate(878,1425)" d="m0 0 4 2 7 10 10 15 8 11 10 11 9 12 9 10 7 8 25 25 11 9 10 9 18 13 14 9 8 6v1l-11-1-42-11-20-6-28-10-25-11-30-13-20-10-14-8-10-6 1-5 11-13 10-13 14-21 12-21z" fill="#A083B6"/>
<path transform="translate(1490,836)" d="m0 0h18l8 3 4 5v8h-2l-2 4-5 4-10 2-21 3-30 8-22 9-16 8-18 11-17 12-11 9-15 14-12 12-9 11-13 18-14 27-8 17-6 5h-7l-8-6-1-3v-7l4-12 5-10 3-7 5-10h2l2-6 5-6 4-8 11-14 12-14 13-13 8-7 13-11 14-10 16-10 9-5 5-2 10-6 21-9 11-2v-2l14-3 8-3z" fill="#FBFBFC"/>
<path transform="translate(1801,904)" d="m0 0 79 1 1 1v9l-4 25-6 20-8 22-7 15-10 19-7 11-2 1-4-8-7-20-8-19-10-19-11-18-11-16-10-13-7-7v-3z" fill="#A084B6"/>
<path transform="translate(923,892)" d="m0 0h2l3 11 5 25v3l9 3 25 9 2 4-12 9-5 6-13 10h-2l-2 4-4 3h-2v2l-7 5-4 5-9 7h-2v2l-6 1-35-8-3-1-2-10-2-24v-11l4-4 11-9 7-6h3l2-4 7-6h2l2-4 16-13 5-2 1-3h2z" fill="#87BFE4"/>
<path transform="translate(772,904)" d="m0 0h92l5 1-2 4-14 11-13 12-4 8-1 3v13l3 35v8l-11 10-3 1-21-21-10-9-18-13-8-6-1-1-1-9-1-25v-21z" fill="#A2A2CC"/>
<path transform="translate(1516,923)" d="m0 0h19l6 3 3 3 1 3v8l-4 6-3 2-30 3-23 5-16 6-21 10-11 7-12 9-10 9-11 11-13 19-8 14-11 23-4 4h-11l-6-4-2-3v-10l6-15 11-20 12-17 9-11 19-19 17-13 13-8 16-8 16-6 21-6 19-4z" fill="#FCFBFD"/>
<path transform="translate(1362,262)" d="m0 0 4 2 15 14 29 29 7 9 11 12 10 14 8 11 12 17 6 9 6 11 8 13 8 15 9 16 14 29 7 17 10 23 7 20 1 5-7-1-36-10-16-4v-1l9 1 8 2-6-21-4-11-4-14-12-36-6-15-5-13-11-26-3-6-6-13-7-14-4-10h-2l-2-6-2-1-7-14-4-6-1-3-5-4-7-8-12-11-7-8-3-3-5-3-3-2z" fill="#A082B5"/>
<path transform="translate(1022,207)" d="m0 0h6l-1 3-17 12-12 8-14 11-11 10-8 7-15 14-7 7-7 8-11 12-12 16h-2l-2 4-4 6-3 3-1 2h-2l-2 5-16 24-6 8-9 15-10 17-6 12-10 18-16 35-8 19-6 14-13 36-3 7-5 3-15 5-25 10-18 8-25 12-15 8-16 8-19 11-20 12-20 13-13 10-15 11-14 12-7 7-9 7-20 20-5 7h-2l-2 4-5 6h-2l-2 4-4 5h-2l-2 5-8 11-6 10-4 4-3-1 1-11 2-6 2-10 5-20 6-21 12-36 10-25 17-38 9-19 15-25 6-12 24-36 12-17 6-8 7-8 11-14 9-11 4-4v3l-3 5-6 8-11 14-6 7-7 11h-2l-1 4-2 4h-2l-2 5-4 7h-2v3h-2v2h-2l-2 6-2 1-6 11-8 13-6 11-3 6-7 11-14 28-5 12-4 8-8 19-4 10-4 11-3 9-2 4-2 9-3 10-6 23-5 15v9l3-1 2-6 3-2 4-8h2v-2h2l2-4 10-11 4-6 3-2 1-3 8-7h2l2-4 8-7 6-4 1-2h2l2-4 17-12 13-9 5-4h2v-2l12-9 15-10 18-11 6-2 2-4h5v-2l11-6 5-1v-2l12-5 12-6 10-4 13-7 9-3 10-5 13-4 6-3 24-8 2-1 8-23 8-24 6-12 8-18 9-20 12-24 9-16 6-11 5-9 3-5 2-1 2-6 7-12 3-3 6-10h2l2-5 6-8 2-4h2l2-6h2l2-5h2l2-5 2-1 1-3h3l2-5 5-5 3-5h2l2-4 8-9 5-2 1-4 3-1 2-4 6-6h2v-2l8-7 6-5h2l1-3 4-3h2l2-4 11-8h2v-2l5-2 1-6h3v-3h-2l-18 5-5-1 3-2 28-8z" fill="#A083B5"/>
<path transform="translate(812,1052)" d="m0 0 4 1-6 9 1 7 6 13 6 16 6 17 6 25 3 16 3 22 1 14v44l-5 40-4 11-2 5h-1v-8l1-6v-38l-2-22-3-16-3-9-4-19v-3h-2l-4-13v-2h-2l-2-10h-2l-6-15-3-3-3-8v-2l-3-1-1-6-3-1-3-4v-3l-3-1-1-3-3-2-4-7v-5l7-6h3l1-3 4-2 4-4 5-4 2-3h3v-2h2l2-4z" fill="#E0DBEF"/>
<path transform="translate(612,1226)" d="m0 0h3l4 8 3 11v21l-4 13-4 9-4 6-7 8-13 9-11 5-13 3h-10l-14-3-17-8-10-8-7-9 1-2 8 5 14 3 10-2h5v-2l7-2 8-5 6-4 8-8h2l2-6 3-6 7-10 2-4-7 6-4 2 6-7 9-8 11-9 4-2z" fill="#A082B4"/>
<path transform="translate(779,571)" d="m0 0 4 1-2 10-9 36-8 37-8 43h-1v-11l4-23 2-5 2-16 5-23 8-32 3-11 2-4-11 5-29 12-14 7-7 3-8 4-17 10-16 8-4 3-7 3-10 6h-2l-1 3-7 4-5 4-7 4-5 4h-3v2l-8 5-4 1-1 3-10 8-13 10-9 9h-2l-1 3-8 7-7 8-12 12-9 11-3 1-1 4-10 13-2 4h-2l-2 5-3 5-10 20-3 5h-2l-1 4-12 30-6 21-2 17v4h-2l1 7 4 2 195 1 31 1 23 2v-18l2-50 2-18 2-27 5-40 2-4h1l-1 13-5 44-3 43-2 45-1 13-1 1-47 1h-211l-3-2v-12l3-17 5-21 4-14 7-15 8-18 6-10 6-11 6-9 3-5 9-11 11-14 9-10 10-10h2l2-4 12-12 28-22 8-7 45-30 23-13 20-10 14-8 36-15 20-8z" fill="#A084B6"/>
<path transform="translate(1771,953)" d="m0 0 4 4 7 12 6 11 4 8 3 17v30l-1 3v12l-1 19-3 22-2 10-4 7h-2v11l-1 5 2 1-3 4v-37l-4-2-2-15-2-9-4-16-4-12-11-27 1-2 4 6v2h2v3h4l1-10-1-6-1-5h2l2-19z" fill="#A5689F"/>
<path transform="translate(239,1356)" d="m0 0 4 4 3 10 2 8 3 1 5 13 5 11 2 8 4 5v4h3l7 11v3l3 1 7 11 6 9 7 9v3h3l7 8 4 5 4 7 8 8 13 10 4 4v2l4 1 15 13 7 3 10 7 2 1v2l5 2 10 6 23 11 8 4 20 7 9 3 16 5 14 3 6 2 10 1 21 3 30 2h22l13-1 19-1 9-3 15-1 9-3 10-2 7-3h4v-2l12-3 3-2 6-2 18-5h2v-2l19-9 5-3 7-4 5-2v-2h2v-2l12-7 4-3h3l2-4 7-5 5-1 2-5 3-1 1-3 4-3h3l2-4 4-4h3v-3h2l1-4 4-1 1-3h3l2-4 5-5 3-5 4-5h2v-3l4-4 4-6h2l2-5 1-3h2v-3h2v-3h2l1-5 4-4 2 1-7 11-8 12-8 11-7 9-5 5-9 10-17 17-8 7-14 12-30 20-17 10-28 13-34 12-22 6-16 3-22 3-13 1h-49l-20-2-21-3-21-5-29-10-24-10-23-11-16-10-14-10-13-9-15-13-13-12-14-14-9-11-9-10-11-16-10-15-10-17-7-14-10-24-6-17z" fill="#B090BE"/>
<path transform="translate(553,1009)" d="m0 0h15l20 2 21 3 20 5 27 10 29 14 14 9 13 10 14 11 10 10-1 5-11 10-2-1 1-2-5 1-5-5-4-5v-2h-2l-2-5-3-1v-2l-4-2-8-8-10-7v-2l-5-2-5-5-17-10-11-4v-2h-2v-2l-5-1-3-2-9-2-3-2-18-5-12-3-15-3h-45l-9 2h-10l-12 3-4-1 20-5 23-3z" fill="#9F7FB2"/>
<path transform="translate(472,1026)" d="m0 0 3 1-22 9-17 9-16 10-13 11h-2l-1 3-13 10-8 8-11 14-10 10-3 6-12 20-9 17-7 16-7 23-3 12-3 20-1 14v27l3 29 6 26 1 1 3 15 3 9 8 16 5 9 5 10 7 11 9 13 14 16 8 7 5 5 16 15 16 11 13 8 5 2v2l6 2 16 8 20 7 13 4 14 3 32 4h34l30-4 28-7 16-6 16-8 14-8 12-6h3l-9 6-27 15-23 9-27 7-17 3-24 2h-24l-23-2-21-4-22-6-20-8-16-8-21-12-11-8-11-9-10-9-5-4-7-8-9-10-11-14-7-10-9-16-8-15-7-16-6-18-6-27-3-22-1-15v-15l1-16 5-30 7-25 9-21 8-16 11-19 7-11 5-5 7-9h2l2-4 11-12 9-8 12-9 9-8 14-8 16-9 11-5z" fill="#975A94"/>
<path transform="translate(515,1078)" d="m0 0h18l1 2-20 4-18 6-24 12-19 12-13 12-8 8h-2v2l-5 5-7 9-9 14-9 16-6 14-6 20-3 17-1 10v30l2 18 5 20 8 22 6 10 1 4-3-1-12-20-4-10-2-9-2-2-2-14-3-9v-54l3-18 1-7 3-1-1-3 5-12 4-10h2l1-3 5-7 3-7h2l2-6v-2h3l2-8 5-2 2-3h2l2-4 5-5 3-4 1 1 1-2h2v-2h2l2-4h2v-2h2v-2l7-4 18-10 14-7h3v-2l5-1 1-2 7-3h3v-2h10v-2z" fill="#A084B6"/>
<path transform="translate(879,1428)" d="m0 0 3 3 10 15 7 11 7 9v2l4 2 8 11 1 5-4 1-15-3-21-6-23-7-1-3 6-10h2l2-6 2-1 3-8h2l2-6 3-7h2z" fill="#A3A5CF"/>
<path transform="translate(1677,954)" d="m0 0 4 2 18 18 10 13 11 15 11 21 10 25 7 24 3 16 1 13v35l-3 23-9 31-6 16-8 16-7 12-16 22-9 11-12 12-8 7-14 11-20 12-18 10-18 7-18 5-23 4-13 1h-31l-25-3-10-2v-1l11 1 17 2h39l13-2 13-3 10-2 10-3 16-6 9-4 17-9 10-5h2v-2l8-5 9-7h2l2-4h2l2-4 3-1 1-3 6-5 10-10 7-9h2l2-6 9-11 5-9 7-14 8-19 5-17 3-8 4-26v-45l-4-24-10-30-5-13-10-20-7-10v-3h-2v-3h-2l-12-17-19-19z" fill="#A0659D"/>
<path transform="translate(700,904)" d="m0 0h36l3 2 1 14v22l-5-1-15-8-28-13-21-7-11-3-11-2v-2l2-1z" fill="#A19BC7"/>
<path transform="translate(360,1557)" d="m0 0 6 1 22 12 16 9 17 8 19 7 10 4 1 6-8 27-9 27-7 20-14 43-5 3h-99l-3-1-1-3 8-27 21-63 5-13 6-21 6-17 3-10 4-10zm0 2-5 12-12 37-27 81-2 9 1 1-4 14v6l5 2h86l7-3 4-8 9-30 25-75-1-4-9-4-25-10-16-6-13-7-2-5-12-7h-2v-2z" fill="#955792"/>
<path transform="translate(999,904)" d="m0 0h160l7 1 1 6v369l-2 2h-13l-7-1v-1h19v-332l1-42-211 1 1 4-2-1 1-5z" fill="#9D76AB"/>
<path transform="translate(626,459)" d="m0 0v3l-6 7-13 19-4 5-10 15-13 20-12 21-15 27-9 19-11 25-10 25-7 20-6 19-8 30-6 24-1 7h3l11-18 18-22 7-7 7-8 16-16 11-9 8-8 28-21 13-10 19-12 21-13 10-6 11-6 28-14 23-11 21-9 28-11 4 1-33 13-18 8-25 12-15 8-16 8-19 11-20 12-20 13-13 10-15 11-14 12-7 7-9 7-20 20-5 7h-2l-2 4-5 6h-2l-2 4-4 5h-2l-2 5-8 11-6 10-4 4-3-1 1-11 2-6 2-10 5-20 6-21 12-36 10-25 17-38 9-19 15-25 6-12 24-36 12-17 6-8 7-8z" fill="#955792"/>
<path transform="translate(1192,905)" d="m0 0h104l-1 3-1-2h-101l1 102v243l-1 28 31-1 11-1 2-1-1-15 2 4 4 12-1 4-24 1h-24l-2-1v-370z" fill="#9C73A9"/>
<path transform="translate(276,1074)" d="m0 0 1 4-3 1-2 5-8 14-8 20h-2v9h-2l-2 9-10 29-5 24-3 16-3 23-1 44 1 18 3 22 2 20 3 10 2 10-1 4-7-24-6-36-2-18v-50l3-25 5-27 12-36 12-30 10-19 10-16z" fill="#C5BBDA"/>
<path transform="translate(1384,1535)" d="m0 0 4 1 12 13 5 6v2l-33 10-41 10-2-2 14-8 14-10 16-12 10-9z" fill="#9E7CB0"/>
<path transform="translate(1468,867)" d="m0 0h10l1 4v-2l2 1-1 2 3 1-1 4-6-1v2l-4 1-1 1 2 2-21 6-15 6-18 9-2-1 1-2-3-1-2 1 1 2h-6l1-3 3-3-3 1-1-3 2-4 16-8 19-8 19-6z" fill="#A76AA0"/>
<path transform="translate(1577,315)" d="m0 0 5 2 16 11 14 11 16 13 11 9 12 11 8 7 13 13 8 7 8 8 7 8 11 12 7 8 12 14 14 18 21 28 5 9 10 15 10 16 9 16 8 14 14 28 11 25 8 21 9 23 10 32 10 40 2 10v8l-5-5-8-11-4-6 1-2 6 8 7 10-1-9-6-25-8-29-9-27-10-25-12-29-7-15-17-33-6-10-11-19-16-24-9-13-8-11-10-13-12-15-9-11-27-30-4-5-8-7-18-18-8-7-13-11-14-11-11-8v-2l-4-2-16-13-11-7z" fill="#955792"/>
<path transform="translate(606,666)" d="m0 0 1 2-13 10-14 12-8 7-7 8-9 8-7 8-9 11-10 13-10 14-14 25-8 17-7 17-6 20-5 31 1 7 6 2h153l98 1v1l-47 1h-211l-3-2v-12l3-17 5-21 4-14 7-15 8-18 6-10 6-11 6-9 3-5 9-11 11-14 9-10 10-10h2l2-4 12-12 14-11z" fill="#955792"/>
<path transform="translate(1493,832)" d="m0 0h5l1 3-20 4-18 4-1 1-10 2h-4v2l-16 5-16 7-10 6-16 8-11 7-14 10-10 8-10 9-12 11-8 8-9 11-10 13-6 8-5 4-2-1 3-6 5-5 5-9 13-16 4-5h2l1-3 8-7 13-12 14-11 11-8 19-12 6-3 17-9 23-10 27-8 12-3 18-2z" fill="#9B5E97"/>
<path transform="translate(1036,232)" d="m0 0 2 1-5 5-13 9-12 9-5 4h-2l-1 3-5 3-31 29-11 12-8 10-7 7-9 11-5 9-7 9-8 10-8 13-4 7-2 4h-2l-2 6-7 11-14 24-6 13-15 32-6 13-5 12-3 9-6 15v3h8l-4 2-8 1 1-7 13-34 9-20 18-38 12-22 10-17 10-16 7-11 10-13 11-16 9-11 9-10 11-13 12-13 15-13 10-10 12-9 13-10 11-8z" fill="#9C73A9"/>
<path transform="translate(779,571)" d="m0 0 4 1-2 10-9 36-8 37-8 43h-1v-11l4-23 2-5 2-16 5-23 8-32 3-11 2-4-11 5-29 12-14 7-7 3-8 4-17 10-16 8-4 3-7 3-10 6h-2l-1 3-7 4-5 4-7 4-5 4h-3v2l-8 5-4 1-1 3-20 16-2-1 7-7 5-4h2l1-4 8-7 45-30 23-13 20-10 14-8 36-15 20-8z" fill="#A185B7"/>
<path transform="translate(1487,830)" d="m0 0h8l-3 2-11 3-15 3-25 7-20 8-17 8-9 5-16 9-12 8-17 13-10 9-16 14-7 8-13 16-4 8-4 5-2 1-3 6-4 2v3h-2l-2 5-2 1 3-10 11-16 13-16 7-9 27-27 4-1 2-4 4-1 1-3 17-12 18-11 18-10 20-9 10-2 19-6 27-6z" fill="#B98AB7"/>
<path transform="translate(1192,190)" d="m0 0 12 1 14 2v1h-22l-1 26v35l-1 138-1 73-1 10h-1v-284z" fill="#9C74A9"/>
<path transform="translate(1192,502)" d="m0 0h1v363l-1 13 70-1 61 1-2 2h-128l-2-1v-357z" fill="#9F7EB1"/>
<path transform="translate(1164,190)" d="m0 0 3 2v245l-1 39h-1l-1-60v-222h-9l-15 2h-10v-1l26-4z" fill="#9D75AA"/>
<path transform="translate(351,1386)" d="m0 0h3l10 15 10 12 7 8 8 7 5 5 16 15 16 11 13 8 5 2v2l6 2 16 8 20 7 13 4 14 3 32 4h34l30-4 28-7 16-6 16-8 14-8 12-6h3l-9 6-27 15-23 9-27 7-17 3-24 2h-24l-23-2-21-4-22-6-20-8-16-8-21-12-11-8-11-9-10-9-5-4-7-8-9-10-11-14-7-10z" fill="#975994"/>
<path transform="translate(372,1450)" d="m0 0 6 4 11 10 15 11 8 6 19 11 21 10 24 10 27 7 14 3 21 2h46l20-2 20-4 3 1-5 2-21 4-24 3h-31l-28-3-4-1-14-1-17-4-16-6v-2l-7-1-10-4-30-15-13-9-26-20-8-8z" fill="#C7B0D2"/>
<path transform="translate(781,688)" d="m0 0h1v9l-6 40-5 45-3 42-1 22v31l47-1 67 1 20 1-1 2h-134l-2-1v-27l2-40 4-48 6-46z" fill="#9968A0"/>
<path transform="translate(382,1570)" d="m0 0 6 2 18 10 16 7 26 10 1 5-6 21-12 36-12 35-7 22-3 4-81 1-19-1-1-1 1-9 4-14 3 1-4 14-1 6 11 1h80l7-3 5-14 9-30 10-29 12-37 1-5-9-4-25-10-16-6-13-7z" fill="#A18BBB"/>
<path transform="translate(1864,1032)" d="m0 0h2l-1 14-12 48-3 1-3-8-2-14v-13l10-16z" fill="#A185B7"/>
<path transform="translate(1022,207)" d="m0 0h6l-1 3-17 12-12 8-14 11-11 10-8 7-15 14-7 7-7 8-11 12-12 16h-2l-2 4-4 6-3 1 2-4 8-10 9-11 8-10 7-7 2-3h2l2-4 2-5 3-1 2-4 6-6h2v-2l8-7 6-5h2l1-3 4-3h2l2-4 11-8h2v-2l5-2 1-6h3v-3h-2l-18 5-5-1 3-2 28-8z" fill="#9E7AAE"/>
<path transform="translate(239,1356)" d="m0 0 4 4 3 10 2 8 3 1 5 13 5 11 2 8 4 5v4h3l7 11v3l3 1 7 11 6 9 7 9v3h3l7 8 4 5 4 7 8 8 13 10 4 4v2l4 1 15 13 7 3 5 5 1 3-5-2-17-12-15-13-13-12-14-14-9-11-9-10-11-16-10-15-10-17-7-14-10-24-6-17z" fill="#9B669E"/>
<path transform="translate(756,987)" d="m0 0 5 2 3 3-1-4 5 3 10 10 4 2v2l4 1 5 5 10 9 4 5-1 4-4 2-2 3-2-1 1-2-6 2-8-10-10-15-13-15-4-5z" fill="#C1B5D6"/>
<path transform="translate(720,1578)" d="m0 0h2l-1 3-11 5-16 7-10 4h-6l-1 3-3 3 1 5h3l2 11 1 1v7h2l2 12 2 2 2 9 2 1 2 11 2 1 2 11 3 7 2 8 6 20-3 4-5-17-10-30-8-23-10-31-2-8v-5l9-4 22-8z" fill="#A091BF"/>
<path transform="translate(360,1559)" d="m0 0 7 1-4 5-1 5-2 4-5 16-4 13-3 5-8 24-5 14-5 17-4 10-5 15-2-1-2 5-1-3 18-55 6-16 15-47z" fill="#A293C1"/>
<path transform="translate(846,1429)" d="m0 0 2 1-7 11-8 12-8 11-7 9-5 5-9 10-17 17-8 7-14 12-30 20-17 10-23 11-3-1 6-2v-2l4-1v-2l19-9 5-3 7-4 5-2v-2h2v-2l12-7 4-3h3l2-4 7-5 5-1 2-5 3-1 1-3 4-3h3l2-4 4-4h3v-3h2l1-4 4-1 1-3h3l2-4 5-5 3-5 4-5h2v-3l4-4 4-6h2l2-5 1-3h2v-3h2v-3h2l1-5z" fill="#9F6FA4"/>
<path transform="translate(1810,721)" d="m0 0 7 6 16 21 12 18 6 10 11 23 9 25 5 16 4 21 1 8v10l-1 1-17 1h-117l-4-2 26-1 111-1-3-26-5-20-8-23-8-19-11-20-10-15-10-14-10-13-4-4z" fill="#955792"/>
<path transform="translate(310,1150)" d="m0 0 1 4-7 16-6 21-3 15-3 23-1 16v21l2 24 4 24 6 23 11 28 10 21 1 4-1-2h-2l-2-6-3-1-3-11h-2l-3-6-2-6-4-14-4-9-5-19-4-22-1-9v-58l3-21 3-17 4-15h2l1-6 6-14z" fill="#9D6EA4"/>
<path transform="translate(1594,578)" d="m0 0 10 3 27 11 16 8 23 12 16 9 11 6 11 8 14 8 14 10 16 12 12 11 9 7 10 9 6 5-1 2-11-10-10-8-10-9-11-9-18-13-12-8-5-1-12-8-13-8-26-14-32-16-24-11-10-4z" fill="#9A6CA3"/>
<path transform="translate(489,1091)" d="m0 0 3 1-20 10-19 12-13 12-8 8h-2v2l-5 5-7 9-9 14-9 16-6 14-6 20-3 17-1 10v30l2 18 5 20 7 19-1 3-5-11-4-12-5-23-2-13v-34l4-24 8-26 8-16 5-8 8-13 10-13 19-19 13-10 19-11z" fill="#955792"/>
<path transform="translate(375,1536)" d="m0 0 5 2 14 9 17 9 16 7 23 9 25 8 12 3 23 4 28 3h40l30-3 28-5 15-4 30-10 8-3 3 1-24 9-22 7-21 5-29 4-13 1h-49l-20-2-21-3-21-5-29-10-24-10-23-11-16-10z" fill="#965892"/>
<path transform="translate(861,1106)" d="m0 0 3 4 11 27 9 25 5 19 4 21 3 24 1 13v31l-2 25-5 30-6 25-4 12h-1l1-8 6-24 2-9 4-24 2-17v-47l-1-2-3-30-6-29-4-15-11-29-8-18z" fill="#9E73A8"/>
<path transform="translate(758,1557)" d="m0 0 4 1 24 72 10 31 8 24 5 17-1 2-3-5-12-37-12-36-14-41-8-24-9 3-19 10-3 3-6 1 5-4 18-10 11-6z" fill="#9D79AD"/>
<path transform="translate(1380,244)" d="m0 0 5 2 15 12 8 8v2l4 1v3l3 1 7 8 6 7 5 5 5 6v2h2l12 16 2 4h2l9 12 12 18 10 16 3 4-1 3-4-5-7-10-12-18-7-10-8-10-14-18-11-12-7-8-9-9-7-8-13-12-10-9z" fill="#9B6DA4"/>
<path transform="translate(1329,207)" d="m0 0 11 1 43 12 43 14 5 2v1l-9-1-33-11-23-7-7-1v7l5 2 2 6 5 2 2 4-4-2-18-13-21-14z" fill="#9E7AAE"/>
<path transform="translate(946,877)" d="m0 0h212l3 2-109 1h-103z" fill="#9B6FA5"/>
<path transform="translate(1191,1309)" d="m0 0h1l1 185 1 97h9l25-4h6v1l-30 5h-12l-1-1z" fill="#955792"/>
<path transform="translate(1707,1246)" d="m0 0 2 1-6 9-9 11-12 12-8 7-14 11-20 12-18 10-18 7-18 5-23 4-13 1h-31l-25-3-10-2v-1l11 1 17 2h49l26-5 16-5 14-5 16-8 21-12 11-8 10-9 10-8 3-4h2l2-4h2l2-4 9-11z" fill="#995B95"/>
<path transform="translate(779,571)" d="m0 0 4 1-2 10-9 36-8 37-8 43h-1v-11l4-23 2-5 2-16 5-23 8-32 3-11 2-4-11 5-29 12-12 4-17 8-2-1 11-6 25-11 15-6z" fill="#9C72A8"/>
<path transform="translate(1560,524)" d="m0 0h2l5 14 15 5 45 18 15 8 16 7 17 9 14 7 10 6 2 4-5-2-23-12-15-8-23-11-17-8-34-13-17-7-3-3-4-11z" fill="#9A6CA3"/>
<path transform="translate(1880,906)" d="m0 0h1v9l-4 25-6 20-8 22-7 15-10 19-7 11-2 1-4-8-7-20-8-19-10-19-11-18-11-16-3-4 1-2 7 9 10 15 14 23 10 21 11 30 3 2 2-4 4-6 6-11 7-14 9-23 6-18 4-19 2-18z" fill="#955792"/>
<path transform="translate(694,1561)" d="m0 0 4 1-12 5-28 10-17 5-26 5-15 2h-55l-22-2v-1h13l25 1h14l13-1 19-1 9-3 15-1 9-3 10-2 7-3h4v-2l12-3 3-2 6-2z" fill="#B594C0"/>
<path transform="translate(1191,735)" d="m0 0h1v143l70-1 61 1-2 2h-128l-2-1z" fill="#98669E"/>
<path transform="translate(1036,232)" d="m0 0 2 1-5 5-13 9-12 9-5 4h-2l-1 3-5 3-31 29-11 12-8 10-7 7-9 11-8 8 2-5 11-14 11-12 9-11 14-15 14-12 10-10 12-9 13-10 11-8z" fill="#9B6EA4"/>
<path transform="translate(1715,1234)" d="m0 0v3l-6 9h-2l-2 5-8 10-5 5-7 8-11 9-11 10-11 7-21 12-14 7-14 5-16 5-26 5h-10v-1l13-2 13-3 10-2 10-3 16-6 9-4 17-9 10-5h2v-2l8-5 9-7h2l2-4h2l2-4 3-1 1-3 6-5 10-10 7-9h2l2-6z" fill="#AB72A8"/>
<path transform="translate(696,1459)" d="m0 0 2 1-9 6-27 15-23 9-27 7-17 3-24 2h-24l-23-2-21-4-3-1v-2l7 1 38 5h34l30-4 28-7 16-6 16-8 14-8 12-6z" fill="#955792"/>
<path transform="translate(244,1138)" d="m0 0h1v5l-3 8-8 25-5 24-3 23-1 14v37l1 11 2 7 2 19 4 21 3 10 2 10-1 4-7-24-6-36-2-18v-50l3-25 5-27 12-36z" fill="#955792"/>
<path transform="translate(750,721)" d="m0 0h1l-1 13-5 44-3 43-2 45-1 2-1 9h-1v-17l2-50 2-18 2-27 5-40z" fill="#9B6FA5"/>
<path transform="translate(439,1161)" d="m0 0 1 2-4 7-5 5-5 11h-2l-3 9-3 5-7 29-1 20v25l4 19v9l-2-4-4-17-2-16v-18l3-24 6-21 9-21 11-15z" fill="#9F6FA5"/>
<path transform="translate(315,1246)" d="m0 0h1l2 30 3 24 5 21 1 1 3 15 3 9 8 16 5 9 5 10 2 5-3-1-12-23-8-16-7-21-6-27-3-22v-13z" fill="#985A94"/>
<path transform="translate(382,1570)" d="m0 0 6 2 18 10 16 7 26 10 1 5-6 21-8 25-4 3 2-9 12-37 1-5-9-4-25-10-16-6-13-7z" fill="#A18FBE"/>
<path transform="translate(466,1509)" d="m0 0 5 1 19 6 27 6 21 2h46l20-2 20-4 3 1-5 2-21 4-24 3h-31l-28-3-19-4-15-4-9-3-9-4z" fill="#A171A6"/>
<path transform="translate(1605,351)" d="m0 0 5 3 8 9 3 3 2 5h2v2h2l11 15 10 15 9 14 9 16 3 5-1 3-16-24v-2h-2l-9-14-7-11-8-11-12-16-6-7v-2l-3-1z" fill="#B094C2"/>
<path transform="translate(941,276)" d="m0 0 2 1-11 12-9 10-9 12-8 9-3 4-2 6h-2l-2 5-16 24-5 6-4 4-2 4-2-1 6-11 3-5 3-3 6-10h2l2-5 6-8 2-4h2l2-6h2l2-5h2l2-5 2-1 1-3h3l2-5 5-5 3-5h2l2-4 8-9z" fill="#A081B4"/>
<path transform="translate(1864,1032)" d="m0 0h2l-1 14-12 48-3 1-3-8-2-14v-13l10-16zm-5 11-10 14-2 4v12l4 14 2-2 7-26 2-14-1-2z" fill="#955792"/>
<path transform="translate(203,1311)" d="m0 0 2 4 3 19 6 19 5 18 3 14 3 3 3 7 3 10 2 4v3h2l5 11 1 4 3 1 4 9 1 4-5-5-8-14-14-29-4-11-6-25-7-24-2-11z" fill="#D8C0D9"/>
<path transform="translate(1493,832)" d="m0 0h5l1 3-20 4-18 4-1 1-10 2h-4v2l-16 5-6 2v-2l-3-1 14-6 27-8 12-3 18-2z" fill="#A4689F"/>
<path transform="translate(911,1469)" d="m0 0 6 5 9 12 9 10 7 8 25 25 11 9 10 9 18 13 14 9 8 6v1l-11-1-3-2h7l-13-9-20-14-10-9-11-9-15-14-14-15-8-8-13-17-6-7z" fill="#955792"/>
<path transform="translate(1342,896)" d="m0 0 2 1-12 12v-3zm-12 13m-2 1 2 1-14 14v3l-11 14-5 9-4 5-2 1-3 6-4 2v3h-2l-2 5-2 1 3-10 11-16 13-16 7-9z" fill="#BB8DB9"/>
<path transform="translate(360,1557)" d="m0 0 6 1 14 8 1 3-5-2-9-5v-2l-7-1-3 9-13 40-27 81-2 8-2-1 1-5 12-38 13-36 6-21 6-17 3-10 4-10z" fill="#955792"/>
<path transform="translate(479,1581)" d="m0 0h19l15 3 10 1v2l22 1 44 1v1l-11 1h-40l-34-4-25-5z" fill="#A88CBC"/>
<path transform="translate(1362,262)" d="m0 0 4 2 15 14 29 29 7 9 11 12 10 14 8 11 12 17 6 9-1 3-10-15-15-20-8-12-11-13-9-11-4-5-5-4-7-8-12-11-7-8-3-3-5-3-3-2z" fill="#955792"/>
<path transform="translate(338,1149)" d="m0 0 1 3-8 18-7 23-3 12-3 20-2 21-1 17-2-2v-15l1-16 5-30 7-25 9-21z" fill="#985A95"/>
<path transform="translate(1377,872)" d="m0 0 2 1-1 3-11 7-17 13-10 9-16 14-6 7-3-1 28-28 1-2h2l2-4 4-1 1-3 17-12z" fill="#C7A0C6"/>
<path transform="translate(702,1746)" d="m0 0 115 1v1l-9 1-50 1h-37l-16-2z" fill="#99619A"/>
<path transform="translate(878,1425)" d="m0 0 4 2 7 10 10 15 8 11 3 3-1 2-8-7-9-13-9-14-3-5-3 1-1 5-4 8h-2l-3 9-5 3-7 10v-3l12-19 9-16z" fill="#9B6FA6"/>
<path transform="translate(720,360)" d="m0 0 2 1-7 6-7 8-14 14-8 7-14 14-2 1-3 5-9 9-8 6 2-4 7-8h2l2-4 11-11 1-2h2l2-4 7-7 8-7 9-9h2l2-4h2l2-4z" fill="#9A6AA1"/>
<path transform="translate(698,1188)" d="m0 0 2 2 7 19 4 15 3 20v22l-3 20-4 17-5 14-1-4 7-25 2-12 1-13v-22l-2-12-5-22-6-15z" fill="#A077AB"/>
<path transform="translate(488,1391)" d="m0 0 6 1 16 7 23 5 19 2h28l3-2h7l5-1h7l-4 2-22 4h-32l-23-4-18-6-15-7z" fill="#AA85B6"/>
<path transform="translate(812,876)" d="m0 0 69 1 20 1v1h-122l1-2z" fill="#A084B6"/>
<path transform="translate(1217,1071)" d="m0 0h2l-1 17-1 21v16l2 37v10h-2l-2-21-1-16v-32l2-24z" fill="#9B71A7"/>
<path transform="translate(235,1170)" d="m0 0 1 4-4 19-4 28-1 18v47l-2-1-1-11v-37l3-31 5-25z" fill="#A98CBB"/>
<path transform="translate(927,335)" d="m0 0 1 3-9 12-8 11-6 8-6 11-4 7h-2l-2 6-6 9h-2l1-5 13-22 6-9 14-19 5-5z" fill="#9C71A7"/>
<path transform="translate(921,1280)" d="m0 0 3 1-2 7-6 41-4 18-3 8-4 16-3 8-2 6-4 3 1-6 10-30 6-22 4-24z" fill="#9B6FA5"/>
<path transform="translate(881,256)" d="m0 0 3 1-4 1v2l-15 6-6 2v2l-11 6h-3v2l-11 6-9 3-1 3-14 8h-4l-1 3-9 6-4-1 10-7 10-6 24-14 32-17z" fill="#98669E"/>
<path transform="translate(975,220)" d="m0 0 4 1-10 2v2l-8 3-16 5-1 1-11 1-1 3-11 4-9 4h-5v2l-9 3-9 5h-5l4-3 27-12 20-8 36-12z" fill="#996AA1"/>
<path transform="translate(772,904)" d="m0 0h92l5 1-2 4-3 1 1-4h-99l1 54h-1l-1-9-1-25v-21z" fill="#9E7AAE"/>
<path transform="translate(1745,1166)" d="m0 0 1 4-8 25-6 15-11 21-7 10-5 5 2-5 4-5 3-7 8-16 7-16 3-7h2l1-6z" fill="#9C6099"/>
<path transform="translate(1739,626)" d="m0 0 6 2 8 6 10 8 13 10 14 11 14 14 8 7 12 12 6 7-1 2-9-9-7-8-13-12-14-13-11-9-12-9-11-9-13-9z" fill="#955792"/>
<path transform="translate(313,1484)" d="m0 0 4 1 7 8 16 13 3 3v2l4 1 15 13 7 3 5 5 1 3-5-2-17-12-15-13-13-12-12-12z" fill="#A373A7"/>
<path transform="translate(475,1412)" d="m0 0 6 2 14 7 18 6 27 5h39l13-2h6l-4 2-23 3h-24l-21-3-20-4-7-3-15-6-6-3v-2h-3z" fill="#965893"/>
<path transform="translate(310,1150)" d="m0 0 1 4-7 16-6 21-3 15-3 23h-2v14h-1v-16l3-21 3-17 4-15h2l1-6 6-14z" fill="#A278AB"/>
<path transform="translate(758,1557)" d="m0 0 4 1 12 36 5 16-1 3-10-29v-3h-2l-7-20-9 3-19 10-3 3-6 1 5-4 18-10 11-6z" fill="#9B73A8"/>
<path transform="translate(707,602)" d="m0 0 3 1-16 9-16 8-19 11-18 12-22 15-10 8-2-1 9-8 45-30 23-13 20-10z" fill="#955792"/>
<path transform="translate(983,239)" d="m0 0 2 1-7 7-10 8-7 7-8 7-10 10-7 8-11 12-12 16h-2l-2 4-4 6-3 1 2-4 8-10 9-11 8-10 7-7 2-3h2l2-4 19-19 8-7 11-9z" fill="#955792"/>
<path transform="translate(381,970)" d="m0 0 2 1-4 2-2 4-5 1-1 3-14 10-8 5-6 5h-2l-1 3-9 7-3 3h-2l-2 4h-2l-2 4-4 6h-3l1-3h2l2-4 10-10 13-12 9-7 11-9 11-7z" fill="#9A5F98"/>
<path transform="translate(679,1630)" d="m0 0 2 3 2 9h2l2 6v6h2l2 4 2 10 5 15v3l3 1 3 7 3 12 1 3-3 4-5-17-10-30-8-23-3-9z" fill="#99669E"/>
<path transform="translate(389,1044)" d="m0 0 2 1-15 14-11 11h-2l-2 4-10 11-7 10-5 6-1-4 8-11h2l1-4 7-8 8-7 3-3h2v-2l8-7 5-5z" fill="#AF88B6"/>
<path transform="translate(542,919)" d="m0 0h32l29 2 25 5v1h-10l-16-4-13-1h-73v-1z" fill="#9A6DA3"/>
<path transform="translate(894,1401)" d="m0 0 4 4 9 14 12 16 14 20 10 11 9 11 4 4-1 2-15-16-9-11-14-19-12-16-8-13-3-5z" fill="#955792"/>
<path transform="translate(849,469)" d="m0 0 1 2-7 15-5 12-3 9-6 15v3h8l-4 2-8 1 1-7 13-34 7-16z" fill="#9B71A7"/>
<path transform="translate(1518,426)" d="m0 0 3 1 11 23 11 26 9 23v5l-2-3-11-27-10-23-10-22z" fill="#9B70A6"/>
<path transform="translate(320,1300)" d="m0 0 2 3 4 18 1 1 3 15 3 9 8 16 5 9 5 10 2 5-3-1-12-23-8-16-4-11-1-9-4-17z" fill="#985B95"/>
<path transform="translate(312,1028)" d="m0 0v3l-2 2-2 5-4 2-2 4-6 8-8 12-5 3-5 7-1-2 10-15 10-13 7-8z" fill="#C6AED1"/>
<path transform="translate(509,922)" d="m0 0h7l-3 2-27 6-16 4-7 2-20 7h-6l2-2 24-8 36-9z" fill="#A271A5"/>
<path transform="translate(1642,570)" d="m0 0 5 1 19 9 19 10 13 7 3 5-5-2-23-12-15-8v-2l-6-2-10-5z" fill="#A185B7"/>
<path transform="translate(579,1197)" d="m0 0 6 1 12 6-1 4-8 6-4-4-2-1-2-10z" fill="#9E7AAE"/>
<path transform="translate(361,1561)" d="m0 0 4 1-2 3-1 5-2 4-5 16-4 13-3 5h-2l1-7 9-28 4-10z" fill="#A5A6CF"/>
<path transform="translate(281,1439)" d="m0 0 4 4 7 11 8 10v3h3l7 8 4 5 1 4-4-1-9-11-9-10-6-8-2-6-4-7z" fill="#AC8AB8"/>
<path transform="translate(406,1345)" d="m0 0 3 3 6 10 11 14 7 7v2l4 2 8 8 10 7v2l5 2 15 9-2 1-10-5v-2l-5-1-14-11-13-12-7-8-11-14-6-10z" fill="#985A94"/>
<path transform="translate(810,489)" d="m0 0 1 2-7 18-2 10-7 20-3 3-10 2 1-3 9-4 16-46z" fill="#9D78AD"/>
<path transform="translate(434,1564)" d="m0 0 10 3 5 2 10 3 16 5 11 2 2 2h-13l-30-10-8-3v-2l-3-1z" fill="#AC8EBD"/>
<path transform="translate(863,943)" d="m0 0 2 1-3 2v10l2 33 6 2 26 6v2l-8-1-25-6-2-10-2-24v-11z" fill="#9C7CAF"/>
<path transform="translate(1708,636)" d="m0 0 6 2 19 13 14 10 14 12 13 11 14 12v3l-11-10-10-8-10-9-11-9-18-13-17-11z" fill="#955792"/>
<path transform="translate(276,1074)" d="m0 0 1 4-3 1-2 5-8 14-8 20h-2v9l-5 4-3 7-1-3 10-25 10-19 10-16z" fill="#A97BAD"/>
<path transform="translate(286,1064)" d="m0 0v3l-8 12-4 7h-2l-1 5-10 19-6 13h-1v-5h2l2-9 4-7 4-10 8-13 2-1 2-5 5-7z" fill="#C3ABCF"/>
<path transform="translate(649,431)" d="m0 0v3l-3 5-6 8-11 14-6 7-7 11-3-1 10-14 3-3 2-5 13-16 6-8z" fill="#9C74AA"/>
<path transform="translate(515,1078)" d="m0 0h18l1 2-20 4-18 6-11 3 1-3 5-1 1-2 7-3h3v-2h10v-2z" fill="#9D78AD"/>
<path transform="translate(1622,1313)" d="m0 0h5l-5 4-16 6-16 5-12 3-17 3h-10v-1l13-2 13-3 10-2 10-3 16-6z" fill="#AC6FA5"/>
<path transform="translate(771,574)" d="m0 0h6l-4 3-25 10-11 5-6 1-19 9-2-1 11-6 25-11 15-6z" fill="#99679E"/>
<path transform="translate(1237,1305)" d="m0 0h12l-2 2-49 2-5-1 1 14v12l-1 5h-1v-32l2-1z" fill="#9D77AB"/>
<path transform="translate(1487,830)" d="m0 0h8l-3 2-11 3-15 3-25 7-4-1h2v-2l24-7z" fill="#C49DC5"/>
<path transform="translate(846,1429)" d="m0 0 2 1-7 11-8 12-8 11-7 9-5 5-5 6-1-3 5-5 4-6 4-5h2v-3l4-4 4-6h2l2-5 1-3h2v-3h2v-3h2l1-5z" fill="#A075AA"/>
<path transform="translate(740,810)" d="m0 0h1v31l-1 25-1 2-1 9h-1v-17l2-49z" fill="#9D75AA"/>
<path transform="translate(993,229)" d="m0 0m-1 1v3l-4 5-6 3-10 9-8 7-10 9-10 10-1-3 4-2 2-4 6-6h2v-2l8-7 6-5h2l1-3 4-3h2l2-4z" fill="#A185B7"/>
<path transform="translate(1360,215)" d="m0 0 9 1 39 12 23 8v1l-9-1-33-11-23-7-6-2z" fill="#9B70A6"/>
<path transform="translate(646,1135)" d="m0 0 5 1 3 2 1-2h2v2l5 2 4 3v5l-6 4v-3l-4-2-5-5z" fill="#C2B4D5"/>
<path transform="translate(249,1441)" d="m0 0 3 1 3 7 8 13 9 12 9 10 15 15h-3l-10-10-8-7-6-7-16-24-4-8z" fill="#DECBE0"/>
<path transform="translate(226,1286)" d="m0 0h1l3 25 4 21 3 10 2 10-1 4-7-24-5-29z" fill="#A074A9"/>
<path transform="translate(202,1210)" d="m0 0h1v15l-1 18-1 4v28l1 11v16h-1l-2-18v-45z" fill="#996099"/>
<path transform="translate(203,1311)" d="m0 0 2 4 3 19 6 19 5 18v3h-2l-4-13-8-28-2-11z" fill="#AE83B2"/>
<path transform="translate(1677,954)" d="m0 0 4 2 18 18 10 13 11 15 3 6-1 2-4-4-6-9v-3h-2v-3h-2l-12-17-19-19z" fill="#9E619A"/>
<path transform="translate(1669,356)" d="m0 0 7 6 8 7 31 31 7 8-1 2-31-31-7-8-14-13z" fill="#AF84B3"/>
<path transform="translate(828,1497)" d="m0 0 8 5 21 12 23 11 19 8 1 2-5-1-25-11-25-13-11-6-6-4z" fill="#955792"/>
<path transform="translate(1405,856)" d="m0 0m-2 1 3 1v2l-11 6-16 9-2-2-2-1 13-8 7-4 6-2z" fill="#BD91BC"/>
<path transform="translate(791,1648)" d="m0 0 2 3 11 34 5 17-1 2-3-5-12-37-2-7z" fill="#9B70A6"/>
<path transform="translate(731,1542)" d="m0 0h2v2l-6 5-19 10-13 6-3-1 6-2v-2l4-1v-2l19-9 5-3z" fill="#AD8ABA"/>
<path transform="translate(1380,244)" d="m0 0 5 2 15 12 8 8v2l4 1v3l3 1 4 5-1 2-7-7-8-7-13-12-10-9z" fill="#9C74A9"/>
<path transform="translate(523,1586)" d="m0 0h13l25 1h14l13-1h18v1l-13 1-1 1h-47l-22-2z" fill="#C49DC5"/>
<path transform="translate(505,1523)" d="m0 0h9l20 3 12 1h31l8-1h9v1l-13 2h-39l-19-2-18-3z" fill="#C5BCDB"/>
<path transform="translate(779,571)" d="m0 0 4 1-2 10-9 36-2-2 1-8 5-20 3-11 2-4-7 1 3-2z" fill="#9B71A7"/>
<path transform="translate(466,1509)" d="m0 0 5 1 19 6 27 6 21 2v1h-20l-19-4-15-4-9-3-9-4z" fill="#9A629A"/>
<path transform="translate(405,1477)" d="m0 0 4 2 15 9 23 12 19 8-3 1-13-5-25-12-16-10z" fill="#9C659D"/>
<path transform="translate(1707,1246)" d="m0 0 2 1-6 9-9 11-12 12-8 7-10 8-2-1 15-14 8-6 3-4h2l2-4h2l2-4 9-11z" fill="#955792"/>
<path transform="translate(720,1578)" d="m0 0h2l-1 3-11 5-16 7-10 4-8 2-5 1-1 4v-5l9-4 22-8z" fill="#9C77AC"/>
<path transform="translate(873,1375)" d="m0 0 1 2-8 20-9 19-8 13-1-4 2-4h2l1-4 8-16 7-16z" fill="#A075AA"/>
<path transform="translate(1297,946)" d="m0 0v3h2l3-3-2 5-4 5-2 1-3 6-4 2v3h-2l-2 5-2 1 3-10 11-16z" fill="#BB8CB9"/>
<path transform="translate(251,1128)" d="m0 0 1 2-13 37-3 3 2-10 5-16 3-8 3-6z" fill="#C4B0D3"/>
<path transform="translate(402,1069)" d="m0 0 2 1-9 8h-2l-1 3h-2l-2 4h-2v3h-3l-2 5-3 1-1 4h-2l-2 4-6 8-3 3h-3l2-4 9-9 8-10 9-10 9-8z" fill="#A185B7"/>
<path transform="translate(950,306)" d="m0 0 2 1-2 4-9 10-12 14-8 8 2-5 11-14 11-12z" fill="#9A6CA3"/>
<path transform="translate(1036,232)" d="m0 0 2 1-5 5-13 9-12 9-5 4-3-1 4-4 13-10 11-8z" fill="#9B70A6"/>
<path transform="translate(382,1570)" d="m0 0 6 2 18 10 2 1v2l4 2-6-1-11-5-12-6z" fill="#A29AC7"/>
<path transform="translate(1084,208)" d="m0 0h3v2l-9 4-13 5h-2v2l-20 11h-5l5-4 21-11z" fill="#9B71A7"/>
<path transform="translate(684,1639)" d="m0 0 3 2 2 9 2 1 2 11 2 1 2 11 3 7v5h-2l-7-21-2-11h-2l-3-12z" fill="#A299C6"/>
<path transform="translate(806,1482)" d="m0 0 1 3-5 6-8 7-7 7-9 6-3 1 1-3h2l1-3 4-3h3l2-4 4-4h3v-3h2l1-4 4-1 1-3h3z" fill="#A982B3"/>
<path transform="translate(325,1390)" d="m0 0 4 4 6 10 16 22 2 4-8-6-10-15-1-3-4-2-3-7-2-4z" fill="#AC88B6"/>
<path transform="translate(456,1506)" d="m0 0 10 3 13 6 18 4 12 3v1h-9l-17-4-16-6v-2l-7-1z" fill="#C0A8CD"/>
<path transform="translate(372,1450)" d="m0 0 6 4 11 10 15 11 1 2-5-2-8-4-13-11-7-8z" fill="#AF81B1"/>
<path transform="translate(687,357)" d="m0 0 2 1-45 45v-3l7-8h2l2-4 8-7 15-16 8-7z" fill="#93578F"/>
<path transform="translate(760,328)" d="m0 0 2 1-13 10-7 8h-3l-2 4-10 8-4-1 10-8 4-4 20-16z" fill="#98629B"/>
<path transform="translate(1362,262)" d="m0 0 4 2 15 14 24 24-1 3-12-13-10-9-7-8-3-3-5-3-3-2z" fill="#9C73A8"/>
<path transform="translate(409,1237)" d="m0 0h1v37l4 19v9l-2-4-4-17v-34z" fill="#B38FBC"/>
<path transform="translate(888,1185)" d="m0 0 2 1 5 30 1 10v9l-3-4-3-30-2-10z" fill="#9F78AC"/>
<path transform="translate(1594,578)" d="m0 0 10 3 22 9v2l6 2 7 4-3 1-16-8-19-8-7-3z" fill="#9D79AD"/>
<path transform="translate(881,256)" d="m0 0 3 1-4 1v2l-15 6-6 2v2l-11 6h-3v2l-11 6-2-1 5-3 4-4 27-14z" fill="#9A6BA2"/>
<path transform="translate(598,1429)" d="m0 0h5v2l-7 3-15 1-10 2-9 1-10-1-5-1v-1l24-1 23-3h4z" fill="#A185B7"/>
<path transform="translate(1579,1358)" d="m0 0h3v2l-9 2-7 2h-26l-18-1v-1l34-1z" fill="#A5689F"/>
<path transform="translate(1715,1234)" d="m0 0v3l-6 9h-2l-2 5-8 10-10 10-5 2 5-7 7-5 9-12h2l2-6z" fill="#A975AA"/>
<path transform="translate(746,1414)" d="m0 0 1 2-1 2h-2l-2 4-19 19-20 16h-2v-2l6-4 10-9 11-9 10-10 5-6h2z" fill="#975993"/>
<path transform="translate(1236,1261)" d="m0 0 2 4 4 12-1 4h-24v-1l7-1 1-1 10-1 2-1z" fill="#9B70A6"/>
<path transform="translate(1366,936)" d="m0 0 4 1-8 8-7 6-8 10h-1v-5l4-5h2l2-4h2l2-4 4-2v-2h3z" fill="#9F619A"/>
<path transform="translate(1326,236)" d="m0 0 5 2 18 13 13 10-4 1-11-9-15-11-6-4z" fill="#9B70A6"/>
<path transform="translate(900,374)" d="m0 0 1 2-4 7-2 4h-2l-2 6-6 9h-2l1-5 11-18z" fill="#9B71A6"/>
<path transform="translate(306,1354)" d="m0 0 5 4 7 16 7 13-1 3v-2h-2l-2-6-3-1-3-11h-2l-3-6-2-6z" fill="#A379AC"/>
<path transform="translate(896,331)" d="m0 0v3l-15 22-7 10-4 7-2-1 6-11 3-5 3-3 6-10h2l2-5z" fill="#A185B7"/>
<path transform="translate(358,1114)" d="m0 0h2l-2 4-11 19-7 13-2-2 8-16 8-13z" fill="#995B95"/>
<path transform="translate(1299,957)" d="m0 0v3l-6 9-1 2h-2l-2 6-4 1 3-13 4-2z" fill="#AB73A7"/>
<path transform="translate(360,1557)" d="m0 0 6 1 14 8 1 3-5-2-9-5v-2l-7-1-7 21-2 1 2-9 5-13z" fill="#955792"/>
<path transform="translate(1701,602)" d="m0 0 7 2 8 4 7 5 7 4 3 5-5-2-17-11-10-6z" fill="#9B6FA5"/>
<path transform="translate(836,433)" d="m0 0 1 3-9 19-5 12-2-4 4-10 7-14h2z" fill="#9A6CA3"/>
<path transform="translate(971,284)" d="m0 0h2l-2 4-9 9-7 8-4 2 1-4 16-17z" fill="#9B6FA5"/>
<path transform="translate(269,1420)" d="m0 0 4 5 4 6v3l3 1 4 10 3 4-1 3-16-24z" fill="#B18DBA"/>
<path transform="translate(316,1224)" d="m0 0h1v15l-1 7-1 17-2-2v-15l1-16z" fill="#965893"/>
<path transform="translate(235,1170)" d="m0 0 1 4-4 19-4 28h-1v-15l5-25z" fill="#B191BE"/>
<path transform="translate(762,1561)" d="m0 0 2 3 13 40 2 9-2-2-9-27v-3h-2l-4-16z" fill="#965B95"/>
<path transform="translate(595,1403)" d="m0 0h7l-4 2-22 4h-32v-1l25-1 11-1 3-2h7z" fill="#9D6AA1"/>
<path transform="translate(1493,832)" d="m0 0h5l1 3-14 3h-19l4-2 11-2 11-1z" fill="#A86BA1"/>
<path transform="translate(765,848)" d="m0 0h1l1 29h11l1 2h-15v-27z" fill="#9C74AA"/>
<path transform="translate(743,776)" d="m0 0h1v15l-2 30h-1l-1-19 2-25z" fill="#9A6CA3"/>
<path transform="translate(1431,237)" d="m0 0 10 3 22 10 7 3v1l-8-1-8-4-23-10z" fill="#9D72A8"/>
<path transform="translate(389,1044)" d="m0 0 2 1-15 14-11 11h-2l-2 4-4 3 2-5 8-8h2v-2l8-7 5-5z" fill="#99629A"/>
<path transform="translate(313,1698)" d="m0 0 3 1-4 14-1 6 11 1v2h-13l-1-1 1-9z" fill="#A18EBD"/>
<path transform="translate(763,650)" d="m0 0h1l-1 10-7 38h-1v-11l4-23 2-5z" fill="#9B6FA5"/>
<path transform="translate(1560,524)" d="m0 0h2l5 14 15 5 11 5-2 1-20-6-6-4-5-12z" fill="#9D76AB"/>
<path transform="translate(941,276)" d="m0 0 2 1-11 12-9 10-4 5h-2l2-4 4-4 3-5h2l2-4 8-9z" fill="#A185B7"/>
<path transform="translate(1715,889)" d="m0 0 4 2 8 8 8 7 18 18-1 2-21-21-8-7-8-8z" fill="#955792"/>
<path transform="translate(424,1186)" d="m0 0 1 3-6 16-3 9-5 22h-1v-7l7-29 3-5 3-7z" fill="#C6BBDA"/>
<path transform="translate(780,1508)" d="m0 0 2 1-12 11-8 6-4-1 5-5 5-4 5-1 1-3 5-3z" fill="#A67EB0"/>
<path transform="translate(479,1581)" d="m0 0h19l2 3 20 3v1h-10l-27-5z" fill="#A98BBB"/>
<path transform="translate(475,1412)" d="m0 0 6 2 14 7 18 6v2l-7-1-7-3-15-6-6-3v-2h-3z" fill="#995B95"/>
<path transform="translate(509,922)" d="m0 0h7l-3 2-27 6-11 2v-2l24-6z" fill="#A277AA"/>
<path transform="translate(500,1238)" d="m0 0h1v5l2 1-2 3v13l1 16-2-3-2-11v-15z" fill="#9C6CA2"/>
<path transform="translate(421,1022)" d="m0 0 2 1-10 7-13 9-7 5-2-1 9-7 8-7 8-5z" fill="#A77AAC"/>
<path transform="translate(540,1011)" d="m0 0m-19 1h19v1l-16 2-7 1-10 1-8 2-4-1 20-5z" fill="#9B6CA3"/>
<path transform="translate(1579,545)" d="m0 0 18 4 12 5v2l6 2-3 1-25-10-8-3z" fill="#99669E"/>
<path transform="translate(720,360)" d="m0 0 2 1-7 6-7 8-14 14v-3l10-10 3-5h2l2-4z" fill="#9C71A7"/>
<path transform="translate(373,1532)" d="m0 0 5 2 3 2v2l5 2 10 6 7 3v1h-6l-16-10-7-5z" fill="#B091BE"/>
<path transform="translate(244,1138)" d="m0 0h1v5l-3 8-8 25h-1v-7l10-29z" fill="#9D659D"/>
<path transform="translate(1721,1009)" d="m0 0 4 2 9 19v6l-3-4-10-21z" fill="#A1669E"/>
<path transform="translate(579,920)" d="m0 0h14l21 3 14 3v1h-10l-16-4-23-2z" fill="#A170A5"/>
<path transform="translate(1715,641)" d="m0 0 10 6 18 13 5 4-1 2-10-7-22-16z" fill="#A387B8"/>
<path transform="translate(874,365)" d="m0 0 1 2-9 15-7 12-2-4 4-6 4-7 1-3 4-1 2-5z" fill="#9C72A8"/>
<path transform="translate(846,1429)" d="m0 0 2 1-7 11-8 12-5 5v-3l2-3h2l2-5 1-3h2v-3h2v-3h2l1-5z" fill="#A175A9"/>
<path transform="translate(413,952)" d="m0 0 3 1-9 5h-2l-1 3-5 2-4 3-5 2-3 2-4-1 16-9z" fill="#A880B1"/>
<path transform="translate(1664,582)" d="m0 0 6 2 18 9 7 2 5 5 1 2-5-2-23-12-9-5z" fill="#955792"/>
<path transform="translate(1164,190)" d="m0 0 2 1-1 3h-10l-15 2h-10v-1l26-4z" fill="#9B6EA5"/>
<path transform="translate(907,1358)" d="m0 0 1 2-3 11-3 8-2 6-4 3 1-6 6-17h2l1-6z" fill="#9C71A7"/>
<path transform="translate(467,1133)" d="m0 0 2 1-6 5h-2l-2 4-10 10-5 3 2-4 9-10z" fill="#B58AB7"/>
<path transform="translate(917,240)" d="m0 0 3 1-4 1v2l-4 2h-5v2l-9 3-9 5h-5l4-3 27-12z" fill="#9968A0"/>
<path transform="translate(700,1687)" d="m0 0 2 2 6 20-3 4-5-17z" fill="#9D7EB1"/>
<path transform="translate(381,970)" d="m0 0 2 1-4 2-2 4-5 1-1 3-14 10h-3l8-7 5-3 5-5z" fill="#C3ABCF"/>
<path transform="translate(1442,875)" d="m0 0 3 1-6 5v3l-5 1v-2l-6 1-5 2-4-1z" fill="#B881B2"/>
<path transform="translate(1435,846)" d="m0 0 7 1 4 1-16 5-6 2v-2l-3-1z" fill="#A4679E"/>
<path transform="translate(1489,263)" d="m0 0 5 1 21 11 1 2-8-2-19-10z" fill="#9D73A8"/>
<path transform="translate(993,229)" d="m0 0m-1 1v3l-4 5-6 3-10 9-2-1 4-5 4-3h2l2-4z" fill="#9F7EB1"/>
<path transform="translate(898,330)" d="m0 0 1 2-18 27-5 6-1-2 12-17 8-12z" fill="#955792"/>
<path transform="translate(1e3 212)" d="m0 0 4 1-5 3-18 5-5-1 3-2z" fill="#9B6FA5"/>
<path transform="translate(488,1391)" d="m0 0 6 1 16 7 10 3 4 3-10-2-20-8-6-3z" fill="#A072A7"/>
<path transform="translate(1338,902)" d="m0 0 1 2-7 8-8 7-6 7-3-1z" fill="#CDABCD"/>
<path transform="translate(670,408)" d="m0 0v3l-3 5-9 9-8 6 2-4 7-8h2l2-4z" fill="#9968A0"/>
<path transform="translate(851,1468)" d="m0 0v3l-10 14-11 12v-3l10-12 10-13z" fill="#975994"/>
<path transform="translate(515,1078)" d="m0 0h18l1 2-15 3h-9l2-1v-2z" fill="#9D72A7"/>
<path transform="translate(796,1388)" d="m0 0 1 2-7 13h-2l-2 5-1 2h-2l-2 5-3 1 2-4 9-13z" fill="#9F71A6"/>
<path transform="translate(310,1150)" d="m0 0 1 4-7 16-4 13h-1l1-9 6-16z" fill="#9F71A6"/>
<path transform="translate(434,1564)" d="m0 0 10 3 5 2 10 3v1h-9l-13-5v-2l-3-1z" fill="#B392BF"/>
<path transform="translate(724,1548)" d="m0 0 3 1-19 10-13 6-3-1 6-2v-2l13-5z" fill="#975E98"/>
<path transform="translate(505,1523)" d="m0 0h9l20 3 8 1v1h-13l-24-4z" fill="#C5B7D8"/>
<path transform="translate(728,1127)" d="m0 0 3 1-2 5-8 4-9 8h-2l2-4 15-12z" fill="#C19AC3"/>
<path transform="translate(753,1104)" d="m0 0 4 2-1 2h-4l-8 7-13 12-2-1 13-13z" fill="#9B669E"/>
<path transform="translate(255,1397)" d="m0 0 2 1 8 16 2 2v4h2l1 6-3-3-8-14-4-9z" fill="#9B659D"/>
<path transform="translate(529,1201)" d="m0 0 4 1-1 3h-2v2l-5 2-1 3h-5l6-7z" fill="#BD95BF"/>
<path transform="translate(738,912)" d="m0 0h1l1 8v22l-5-1 3-1z" fill="#9B6FA5"/>
<path transform="translate(202,1210)" d="m0 0h1v15l-1 18-3 1 1-14z" fill="#9B649C"/>
<path transform="translate(1219,1172)" d="m0 0h1l3 24v7h-2l-3-21z" fill="#9A6BA2"/>
<path transform="translate(402,1033)" d="m0 0 2 1-12 9-13 10-2 2 1-4 8-7 13-9z" fill="#C7AFD2"/>
<path transform="translate(849,469)" d="m0 0 1 2-7 15-2 5-2-1 3-10 4-9z" fill="#9D75AA"/>
<path transform="translate(299,1331)" d="m0 0 1 3h2l8 21-1 3-3-4-3-10-4-9z" fill="#9E73A8"/>
<path transform="translate(590,1247)" d="m0 0 2 1-2 4-10 9h-2v2h-2l1-4z" fill="#BE9AC4"/>
<path transform="translate(439,1161)" d="m0 0 1 2-4 7-5 5-5 11-1-4 4-8 9-12z" fill="#B48DBA"/>
<path transform="translate(1645,1301)" d="m0 0h2v2l-18 10h-5l5-4z" fill="#AA73A8"/>
<path transform="translate(286,1064)" d="m0 0v3l-8 12-4 7-2-1 2-6 2-1 2-5 5-7z" fill="#C3AFD2"/>
<path transform="translate(810,489)" d="m0 0 1 2-7 18-4 10-1-2 9-26z" fill="#A185B7"/>
<path transform="translate(405,1477)" d="m0 0 4 2 15 9 7 4v2l-6-2-16-10z" fill="#9C6099"/>
<path transform="translate(249,1441)" d="m0 0 3 1 3 7 8 13 3 4-1 2-7-9-8-14z" fill="#DECEE3"/>
<path transform="translate(236,1420)" d="m0 0h2l3 5v2l3 1 4 9 1 4-5-5-8-14z" fill="#E1D2E4"/>
<path transform="translate(231,1326)" d="m0 0 2 4 3 9 3 13-1 4-7-24z" fill="#9E6AA0"/>
<path transform="translate(820,1046)" d="m0 0 5 1 8 11-1 2-8-11-4 1-4 5-2-1 1-4z" fill="#B292BD"/>
<path transform="translate(927,335)" d="m0 0 1 3-9 12-5 5-1-3 7-9 5-5z" fill="#9D76AB"/>
<path transform="translate(469,1410)" d="m0 0 6 2v2h3v2l6 2 9 4-3 2v-2h-7v-2l-4-2-5-2v-2l-5-2z" fill="#A281B4"/>
<path transform="translate(252,1118)" d="m0 0h2v9l-5 4-3 7-1-3z" fill="#AC7FAF"/>
<path transform="translate(806,1482)" d="m0 0 1 3-5 6-8 7-2-3h3v-3h2l1-4 4-1 1-3h3z" fill="#A67EB0"/>
<path transform="translate(598,1429)" d="m0 0h5v2l-7 3-15 1-10 1 1-2 22-3h4z" fill="#9F80B3"/>
<path transform="translate(878,1425)" d="m0 0 4 2 7 10v3l-5-5-4-6-5 2 2-5z" fill="#9B6EA4"/>
<path transform="translate(1358,225)" d="m0 0h5l3 5v2l5 2 2 4-4-2-11-8z" fill="#9E77AC"/>
<path transform="translate(1084,208)" d="m0 0h3v2l-9 4-15 6-3-1z" fill="#9A6BA2"/>
<path transform="translate(742,1707)" d="m0 0h26l-4 2-9 1-11-1z" fill="#C5BDDC"/>
<path transform="translate(402,1069)" d="m0 0 2 1-9 8h-2l-1 3h-2l-2 4h-2v3l-4-1 11-11z" fill="#A185B7"/>
<path transform="translate(857,448)" d="m0 0 1 3-2 5-3 9-2 4-4 2 2-6z" fill="#9A6CA3"/>
<path transform="translate(1362,262)" d="m0 0 4 2 15 14 3 4-4-2-8-8-5-3-3-2z" fill="#98629B"/>
<path transform="translate(684,1639)" d="m0 0 3 2 2 9 2 1 1 4v10h-1l-2-11h-2l-3-12z" fill="#A2A1CC"/>
<path transform="translate(773,1421)" d="m0 0 1 4-3 1-2 4-9 10-5 6-2-1 7-8 8-9z" fill="#9E689F"/>
<path transform="translate(217,1374)" d="m0 0h2l4 13 3 9-3-1-5-13z" fill="#F5F2F8"/>
<path transform="translate(524,1204)" d="m0 0 2 1-7 8-7 6-4 4 2-5 9-10z" fill="#A776A9"/>
<path transform="translate(299,1174)" d="m0 0 1 4-2 13-1 5h-3l1-7z" fill="#B190BC"/>
<path transform="translate(312,1028)" d="m0 0v3l-6 7-5 5-7 8v-3l4-6 5-5z" fill="#9A5F98"/>
<path transform="translate(1108,200)" d="m0 0h4v2l-22 6-3-1z" fill="#9A6BA2"/>
<path transform="translate(791,1648)" d="m0 0 2 3 6 19-1 3-2-5v-3h-2l-3-10z" fill="#99689F"/>
<path transform="translate(276,1074)" d="m0 0 1 4-3 1-2 5-8 14-3 3 1-4 9-16z" fill="#995E98"/>
<path transform="translate(1468,867)" d="m0 0h3l-1 3-4 2h-7v2l-3-1-2-2z" fill="#BB86B5"/>
<path transform="translate(802,513)" d="m0 0 1 3-8 23-2 1 3-13 2-7 3-5z" fill="#98649C"/>
<path transform="translate(320,1300)" d="m0 0 2 3 4 18 1 1 1 11-2-3-5-21z" fill="#AA6CA2"/>
<path transform="translate(243,1150)" d="m0 0 1 3-5 14-3 3 2-10 3-8h2z" fill="#C8B1D2"/>
<path transform="translate(322,1125)" d="m0 0 1 2-11 23-1-3 3-9h2l3-10z" fill="#A376A9"/>
<path transform="translate(337,1101)" d="m0 0v3l-9 14-4 7h-1v-5h2l2-5 7-11z" fill="#9E6DA3"/>
<path transform="translate(690,1662)" d="m0 0 2 3 6 18v3h2v7l-2-3-8-24z" fill="#965B95"/>
<path transform="translate(339,1413)" d="m0 0 4 2 8 11 2 4-8-6-6-9z" fill="#A981B2"/>
<path transform="translate(264,1100)" d="m0 0 1 3-8 16-3 4v-5h2l2-9 4-7h2z" fill="#C7BAD9"/>
<path transform="translate(483,1092)" d="m0 0h2v2l-19 10-2-1 6-5z" fill="#A185B7"/>
<path transform="translate(1489,374)" d="m0 0 5 3 3 6 3 5 1 6-3-3-8-14z" fill="#9A6AA1"/>
<path transform="translate(783,312)" d="m0 0 2 1-3 1-2 4-10 5-5 4-2-1 9-7z" fill="#98629B"/>
<path transform="translate(499,1582)" d="m0 0 24 3v1h-17l-7-2z" fill="#BD9AC4"/>
<path transform="translate(1531,452)" d="m0 0h2l7 17v5l-2-3-7-16z" fill="#9B6EA4"/>
<path transform="translate(738,347)" d="m0 0v3l-11 9-4-1 10-8z" fill="#9C72A8"/>
<path transform="translate(412,1710)" d="m0 0h2l-1 6-4 6h-6l-1-2 7-3z" fill="#A18EBD"/>
<path transform="translate(694,1561)" d="m0 0 4 1-12 5-5 1 3-5z" fill="#B191BE"/>
<path transform="translate(362,1526)" d="m0 0 7 2 5 5 1 3-5-2-7-5z" fill="#A47AAD"/>
<path transform="translate(238,1167)" d="m0 0 1 4-4 15-2 1 1-10 3-9z" fill="#C7BADA"/>
<path transform="translate(397,1070)" d="m0 0m-1 1 1 3-11 10-2-2 9-9z" fill="#965993"/>
<path transform="translate(471,999)" d="m0 0 4 1-22 8-3-1h2v-2l16-5z" fill="#A376A9"/>
<path transform="translate(936,324)" d="m0 0v3l-7 8-8 8 2-5 8-10z" fill="#9A6AA1"/>
<path transform="translate(1450,318)" d="m0 0 6 3 6 8-1 4-11-13z" fill="#9A6AA1"/>
<path transform="translate(1525,282)" d="m0 0 5 2 14 8-2 1-7-3-10-6z" fill="#9B6EA5"/>
<path transform="translate(975,220)" d="m0 0 4 1-10 2v2l-8 3-4-1h2v-2z" fill="#9A6BA2"/>
<path transform="translate(784,1631)" d="m0 0 2 2v3h2l3 9v7l-2-2-5-16z" fill="#9D7AAE"/>
<path transform="translate(213,1353)" d="m0 0 2 4 4 14v3h-2l-4-13z" fill="#B488B5"/>
<path transform="translate(1405,856)" d="m0 0m-2 1 3 1v2l-10 5h-2l2-4z" fill="#C7A2C8"/>
<path transform="translate(1326,236)" d="m0 0 5 2 11 8 1 3-4-2-13-9z" fill="#9C74A9"/>
<path transform="translate(468,1575)" d="m0 0 7 2 11 2 2 2h-9l-11-4z" fill="#BE9AC4"/>
<path transform="translate(329,1010)" d="m0 0 2 1-3 3h-2l-2 4h-2l-2 4-4 6h-3l1-3h2l2-4 10-10z" fill="#9F669D"/>
<path transform="translate(1448,839)" d="m0 0 6 1-3 2-10 3-4-1h2v-2z" fill="#C59FC6"/>
<path transform="translate(1642,570)" d="m0 0 5 1 16 8 1 3-6-2v-2l-6-2-10-5z" fill="#9E7BAF"/>
<path transform="translate(1577,1328)" d="m0 0m-6 1h6l-3 2-6 2-7 1h-10v-1l13-2z" fill="#AF72A7"/>
<path transform="translate(1465,880)" d="m0 0h3v2h-3v2l-7 2h-7l4-3 9-2z" fill="#AC6EA4"/>
<path transform="translate(1594,578)" d="m0 0 10 3 10 4v1h-6l-14-6z" fill="#9B70A6"/>
<path transform="translate(900,374)" d="m0 0 1 2-4 7-2 4h-2v2l-2-1 4-9z" fill="#9F7DB1"/>
<path transform="translate(1442,307)" d="m0 0 4 2 8 10-1 2-7-6-4-6z" fill="#9C73A8"/>
<path transform="translate(1403,265)" d="m0 0 4 2 5 2v3l3 1 4 5-1 2-7-7-8-7z" fill="#9D79AD"/>
<path transform="translate(743,1536)" d="m0 0 2 1-13 9-2-1 3-1 1-4 4-1v-2z" fill="#9D6DA3"/>
<path transform="translate(313,1484)" d="m0 0 4 1 7 8 6 5-1 3-16-16z" fill="#9D72A7"/>
<path transform="translate(295,1310)" d="m0 0 2 4 4 16-1 4-3-5-2-14z" fill="#9A659D"/>
<path transform="translate(1217,1148)" d="m0 0h1l1 14v10h-2l-1-12z" fill="#9A6AA1"/>
<path transform="translate(369,1062)" d="m0 0h2l-2 4-4 4h-2l-2 4-4 3 2-5 8-8h2z" fill="#9A669E"/>
<path transform="translate(585,1586)" d="m0 0h21v1l-13 1-1 1h-8z" fill="#BF9BC4"/>
<path transform="translate(1165,1278)" d="m0 0 1 3-1 1h-13l-7-1v-1l19-1z" fill="#9C72A8"/>
<path transform="translate(424,1186)" d="m0 0 1 3-6 16-3 1 2-7 4-9z" fill="#C6B3D4"/>
<path transform="translate(288,1056)" d="m0 0v3l-2 6-9 9 2-5 8-12z" fill="#9E679E"/>
<path transform="translate(496,991)" d="m0 0h8v1l-16 4-4-1 6-3z" fill="#AE85B3"/>
<path transform="translate(443,1620)" d="m0 0 1 2-4 12-3 1 2-9 3-5z" fill="#A18DBD"/>
<path transform="translate(758,1398)" d="m0 0h2l-2 5-9 10-2 1 2-4z" fill="#985A94"/>
<path transform="translate(1297,946)" d="m0 0v3h2l3-3-2 5-5 5-1-3-1 2-2-1z" fill="#AF77AA"/>
<path transform="translate(763,650)" d="m0 0h1l-1 10-3 16h-1v-12l2-5z" fill="#97619A"/>
<path transform="translate(253,1387)" d="m0 0 2 2 6 14-1 2-3-4-4-9z" fill="#BCA7CD"/>
<path transform="translate(249,1378)" d="m0 0 2 1 2 6 2 12-2-1-3-8z" fill="#AB81B1"/>
<path transform="translate(1444,843)" d="m0 0h5l-1 3-6 2h-5l4-4z" fill="#9A5C96"/>
<path transform="translate(826,453)" d="m0 0h1l-1 7-3 7-2-4 4-9z" fill="#9B71A7"/>
<path transform="translate(802,299)" d="m0 0 4 1-10 7-4-1z" fill="#9C6FA5"/>
<path transform="translate(351,1519)" d="m0 0 5 1 6 5 1 3-5-2-7-6z" fill="#9F70A6"/>
<path transform="translate(303,1469)" d="m0 0 4 2 7 9 1 4-4-1-3-7-5-5z" fill="#BBA4CA"/>
<path transform="translate(338,1149)" d="m0 0 1 3-6 12-2 1 3-9z" fill="#965993"/>
<path transform="translate(1699,630)" d="m0 0 5 2 7 6 4 4-6-2-5-4z" fill="#9C73A8"/>
<path transform="translate(1507,405)" d="m0 0h2v4h2l5 9-1 4-7-12z" fill="#9A6BA2"/>
<path transform="translate(874,365)" d="m0 0 1 2-8 13-3-1 2-5 4-1 2-5z" fill="#9969A1"/>
<path transform="translate(906,364)" d="m0 0v3l-4 7-6 5 2-5 5-8z" fill="#9B6EA4"/>
<path transform="translate(1013,248)" d="m0 0 2 1-5 4-5 5-4 2v-3l8-6z" fill="#9968A0"/>
<path transform="translate(313,1698)" d="m0 0 3 1-4 14-2-1 2-9z" fill="#A18FBF"/>
<path transform="translate(330,1499)" d="m0 0 7 4 6 6-1 2-5-5-5-2-2-2z" fill="#A983B4"/>
<path transform="translate(458,1401)" d="m0 0 14 8 3 3-9-3-3-2v-2l-5-1z" fill="#975A94"/>
<path transform="translate(381,970)" d="m0 0 2 1-4 2-2 4-9 3 5-5z" fill="#A274A8"/>
<path transform="translate(771,574)" d="m0 0h6l-4 3-10 4-3-1 6-2v-2z" fill="#9D77AB"/>
<path transform="translate(429,1594)" d="m0 0 9 1 7 3v2l-11-3-5-2z" fill="#A193C1"/>
<path transform="translate(369,1560)" d="m0 0 10 5 2 4-5-2-9-5z" fill="#9B689F"/>
<path transform="translate(447,1501)" d="m0 0 5 1 14 6-3 1-13-5z" fill="#995C96"/>
<path transform="translate(876,1430)" d="m0 0 1 4-5 5-3 2 2-5 3-5z" fill="#9C72A7"/>
<path transform="translate(854,1414)" d="m0 0h1l-1 7-5 8-1-4 2-4h2l1-4z" fill="#A67DB0"/>
<path transform="translate(907,1358)" d="m0 0 1 2-3 11-4 3 2-9h2l1-6z" fill="#9D78AC"/>
<path transform="translate(226,1286)" d="m0 0h1l2 18-3-1z" fill="#A580B2"/>
<path transform="translate(517,1213)" d="m0 0 1 2-4 4-2 5-4 2 1-4z" fill="#C29CC4"/>
<path transform="translate(785,1076)" d="m0 0 3 1-4 4-5 3-5 4 1-4 6-5h3z" fill="#C0A4C9"/>
<path transform="translate(998,259)" d="m0 0h3l-1 4-5 3-4 4-2-1z" fill="#9E7AAE"/>
<path transform="translate(319,1678)" d="m0 0 1 2-3 9-2 8-2-1 1-5 4-12z" fill="#986199"/>
<path transform="translate(738,1568)" d="m0 0 2 1-9 5-3 3-6 1 5-4z" fill="#9A6FA5"/>
<path transform="translate(497,1422)" d="m0 0 10 3 6 2v2l-7-1-9-4z" fill="#99639C"/>
<path transform="translate(674,1356)" d="m0 0h2l-2 4-10 10-2-1 8-8z" fill="#9D70A6"/>
<path transform="translate(237,1342)" d="m0 0 2 4 4 12-1 2-3-4-2-7z" fill="#C0A8CD"/>
<path transform="translate(632,414)" d="m0 0v3l-12 13v-3z" fill="#AB75A8"/>
<path transform="translate(345,1371)" d="m0 0 2 1 6 14-3-1-5-10z" fill="#9B5D97"/>
<path transform="translate(681,1166)" d="m0 0 4 1-6 3zm-4 4 2 1-7 7h-2l2-4z" fill="#AB8CBA"/>
<path transform="translate(245,1138)" d="m0 0 2 3-2 9h-2v2l-2-1z" fill="#C5AACE"/>
<path transform="translate(361,1113)" d="m0 0 1 2-1 3h-2l-1 4-1 3-4 2 2-5z" fill="#A185B7"/>
<path transform="translate(369,1103)" d="m0 0h2l-2 4-5 6h-3l2-4z" fill="#A47EB1"/>
<path transform="translate(1302,941)" d="m0 0 1 4-4 5-4 1 4-8z" fill="#C49DC4"/>
<path transform="translate(1472,837)" d="m0 0h7v2l-6 1h-10l3-2z" fill="#9B5D97"/>
<path transform="translate(1503,270)" d="m0 0 5 1 8 5-2 1-10-4z" fill="#9C6DA4"/>
<path transform="translate(930,236)" d="m0 0 3 1-12 5-5 1 4-2v-2z" fill="#9E7BAF"/>
<path transform="translate(399,1550)" d="m0 0h6l3 2v2l6 2-3 1-12-6z" fill="#A98BBA"/>
<path transform="translate(780,1508)" d="m0 0 2 1-12 11-2-1 3-4h2l1-3 5-3z" fill="#99669E"/>
<path transform="translate(299,1468)" d="m0 0 4 1 2 5 4 2 2 5-7-6z" fill="#9D6FA5"/>
<path transform="translate(281,1439)" d="m0 0 4 4 6 9-1 2-3-2-6-11z" fill="#C1AED1"/>
<path transform="translate(325,1390)" d="m0 0 4 4 5 8-1 2-4-4-4-7z" fill="#9C6DA3"/>
<path transform="translate(1691,1263)" d="m0 0h2l-2 4-4 4-5 2 5-7z" fill="#A979AD"/>
<path transform="translate(1481,362)" d="m0 0 5 3 4 6-1 3-8-10z" fill="#9B6EA5"/>
<path transform="translate(1293,218)" d="m0 0 6 2 10 5-4 1-12-6z" fill="#9C70A6"/>
<path transform="translate(492,1584)" d="m0 0 12 2 2 2h-9l-4-1z" fill="#985A94"/>
<path transform="translate(817,1471)" d="m0 0 1 2-5 5-5 6-1-3 5-5 2-4z" fill="#98649C"/>
<path transform="translate(1658,1293)" d="m0 0 3 1-12 8h-2v-2l4-1v-2z" fill="#AB6FA5"/>
<path transform="translate(236,1160)" d="m0 0h1v7l-3 9h-1v-7z" fill="#9D629B"/>
<path transform="translate(451,938)" d="m0 0 4 1-12 4h-6l2-2z" fill="#B08DBA"/>
<path transform="translate(1348,891)" d="m0 0 2 1-4 3zm-4 4 2 1-2 1zm-1 2m-1 1m-1 1 3 2-4 4-2-1z" fill="#C299C1"/>
<path transform="translate(1432,879)" d="m0 0 3 1-5 3-7 3-4-1z" fill="#BE8FBB"/>
<path transform="translate(814,480)" d="m0 0h1l-1 7-1 2h-3l1-5z" fill="#9E7BAF"/>
<path transform="translate(874,414)" d="m0 0h1l-1 7-4 7h-2l2-6z" fill="#9A6CA3"/>
<path transform="translate(760,1558)" d="m0 0h2l2 10 1 7-2-3-4-11z" fill="#A087B8"/>
<path transform="translate(713,1552)" d="m0 0 4 1-10 5h-5l4-3z" fill="#B090BE"/>
<path transform="translate(750,1529)" d="m0 0 2 1-3 3-6 4h-3v-2z" fill="#B192BF"/>
<path transform="translate(835,1444)" d="m0 0 1 4-5 8-4 2 2-5 3-1 2-5z" fill="#A37CAF"/>
<path transform="translate(278,1438)" d="m0 0 3 1 6 10-1 3-8-12z" fill="#9A639B"/>
<path transform="translate(616,1424)" d="m0 0 4 1-6 1v2l-3 1h-8l4-2z" fill="#98649C"/>
<path transform="translate(306,1354)" d="m0 0 5 4 1 2v7l-3-3-2-6z" fill="#B497C1"/>
<path transform="translate(318,1284)" d="m0 0h1l1 16h-2l-1-2z" fill="#9C5F98"/>
<path transform="translate(322,1192)" d="m0 0h1l-1 9-2 4-1-5z" fill="#965893"/>
<path transform="translate(292,1051)" d="m0 0v3l-2 7-3 3v-5l3-6z" fill="#B293BE"/>
<path transform="translate(387,1043)" d="m0 0h2l-2 4-8 6-2 2 1-4 8-7z" fill="#C2B1D4"/>
<path transform="translate(750,721)" d="m0 0h1l-1 13-2-1v-8z" fill="#9B6EA5"/>
<path transform="translate(774,602)" d="m0 0 1 4-3 12-2-2 1-7z" fill="#99689F"/>
<path transform="translate(1690,594)" d="m0 0 5 1 5 5 1 2-5-2-6-5z" fill="#9B6EA5"/>
<path transform="translate(839,425)" d="m0 0 1 4-2 4h-2l-2 6-1-3z" fill="#9E7AAE"/>
<path transform="translate(1022,207)" d="m0 0h6l-1 3-5 2 1-2h-8l4-2z" fill="#955792"/>
<path transform="translate(325,1181)" d="m0 0h1l-1 9-2 3-1-5z" fill="#985A94"/>
<path transform="translate(395,962)" d="m0 0 2 1-10 7-4-1z" fill="#9E689F"/>
<path transform="translate(509,922)" d="m0 0h7l-3 2-3 1h-11v-1z" fill="#9C6CA3"/>
<path transform="translate(1388,917)" d="m0 0 4 2-10 7-2-2h2v-2h4v-2h2z" fill="#9D6099"/>
<path transform="translate(1374,914)" d="m0 0 2 1-7 7-4 3-2-1z" fill="#BC90BC"/>
<path transform="translate(1435,846)" d="m0 0 7 1 4 1-10 2-6-1 3-2z" fill="#B07BAD"/>
<path transform="translate(1462,331)" d="m0 0 5 5 4 6-1 2-5-7-3-2z" fill="#9F7DB1"/>
</svg>
