<?xml version="1.0" encoding="UTF-8"?>
<svg version="1.1" viewBox="0 0 2000 2000" width="1280" height="1280" xmlns="http://www.w3.org/2000/svg">
<path transform="translate(822,494)" d="m0 0h9l12 3 15 8 27 16 14 8 7 7 7 14 4 12 8 5 19 9 8 2 11-2h14l16 4 22 9 33 16 17 9 23 11 60 30h14l12-3 9-2 17-6 14-3 14-1 16 3 11 4 25 14 38 22 24 14 21 12 24 14 28 16 41 24 16 10 10 8 10 13 6 9 13 7 25 2 15 6 27 15 48 28 17 10 18 10 13 10 9 10 8 15 5 15 4 21v32l-2 13-5 24-8 26-11 26-12 23-14 22-9 12-11 13-9 11-10 10-11 9-14 11-13 8-17 9-16 6-19 4h-17l-19-5-20-11-17-10-28-16-24-14-26-15-9-7-6-5-8-10-6-9-7-6-7-3h-10l-21-4-16-8-17-10-25-14-24-14-26-15-28-16-23-13-10-8-10 3-8 2h-10l-10-4-27-16-15-9-8-9-2-4-4 2-16 15-7 7-7 8-9 10-4 7 10 6 20 11 11 8 9 9 11 17 11 6 24 3 16 5 20 11 48 28 20 12 23 13 11 8 6 5 8 10 8 15 4 13 4 24v25l-4 26-5 22-9 26-9 20-8 16-11 19-8 11-11 15-9 10-7 8-14 14-11 9-12 9-20 12-16 7-12 4-20 3h-7l-18-3-17-8-24-14-17-10-49-28-15-9-11-8-7-7-12-18-12-6-7-1-21-2-14-6-15-9-25-14-21-12-6-3v7l-7 26-6 15-8 14-10 14-9 10-1 2h-2l-2 4-10 12-8 11-10 17-9 20-18 48-17 49-16 52-14 52-6 24-5 13-10 15-10 11-16 12-15 9-25 11-22 7-17 4-27 4-13 1h-40l-20-2-21-3-26-7-24-9-21-11-13-9-10-9-11-11-9-15-4-9-3-17 1-10 3-13 8-16 8-13 11-17 14-22 16-25 9-14 12-19 13-21 10-16 17-28 27-45 14-24 11-20 11-23 5-13 1-6v-22l-1-17-3-19-3-22-8-48-6-37-3-18-4-36v-18l5-30 6-15 6-11-1-5-9-10-12-24-8-7-20-13-8-1-11 3h-14l-12-4-24-14-16-9-12-8-9-9-6-12-3-8v-38l5-19 10-25 7-13 7-11 11-15 14-15 10-8 14-9 10-5 17-5h11l12 4 21 12 17 10 14 8 10 9 7 14 4 12v2l6 2 17 8 8 3 9 1h20l18 4 10 5 3 4 1 4 4-1 23-15 16-9 5-2h11l7 4 4 6 2 12-2 16-3 9 1 5 3 3-1 8-1 3 9-3 8-4 9-13 10-14 9-12 18-22 5-6h2l2-4 28-28 11-9 13-11 17-12 17-11 20-11 21-9 6-1-5-5-4-1-9 3-13 1-12-2-14-7-17-10-14-8-14-9-7-7-6-10-4-14-1-11v-10l2-17 5-20 9-22 10-18 7-10 13-16 5-6 11-9 12-9 16-8 5-2zm61 285-24 10-18 10-15 10-16 12-13 11-12 11-17 17-2 5 8 16 8-1 10-3h24l9 3 8 5 6 7 6 12 3 10h4l12-14 10-10v-2l4-2v-2l4-2 10-10 11-9 12-10 18-13 22-14v-2l-18-11-28-19-14-11-6-4z" fill="#B075AF"/>
<path transform="translate(373,752)" d="m0 0h11l12 4 21 12 17 10 14 8 10 9 7 14 4 12v2l6 2 17 8 8 3 9 1h20l18 4 10 5 3 4 1 4 4-1 23-15 16-9 5-2h11l7 4 4 6 2 12-2 16-3 9 1 5 3 3-1 8-1 3 9-3 8-4 5-8 2 1 10-2 19-9 23-9 14-4 6-1h19l14 5 8 3 1 5 5 10 1 3 8-1 10-3h24l9 3 8 5 7 8 6 12 3 10v3l-1 10-4 1-4-1-9 3-12 6h-2v2h-3v2l-6 4h-3v2l-4 3-5 2-10 8-11 10-6 7-5 3-7 9-4 3-1 3h-2l-1 4h-2l-2 6-9 16-11 21-6 11-3 6v2l4-2 7-9 8-7 5-6 3-3 5-3 4-5 10-8 11-9 17-13 16-11 11-7 13-8 9-4h10l6 4 2 3v21l-3 8h-2l-2 6-5 6-3 7-5 4-10 14h-2v3l-3 2-1 3-4 3-2 4h-2v3h-2l-1 4-2 3h-2l-2 4-1 3h-2l-1 5h-2l-2 5-9 16-5 12-4 9-6 20-2 6-4 35v47l2 25 1 20v42l-3 15-6 21-5 12-8 14-10 14-9 10-1 2h-2l-2 4-10 12-8 11-10 17-9 20-18 48-17 49-16 52-14 52-6 24-5 13-10 15-10 11-16 12-15 9-25 11-22 7-17 4-27 4-13 1h-40l-20-2-21-3-26-7-24-9-21-11-13-9-10-9-11-11-9-15-4-9-3-17 1-10 3-13 8-16 8-13 11-17 14-22 16-25 9-14 12-19 13-21 10-16 17-28 27-45 14-24 11-20 11-23 5-13 1-6v-22l-1-17-3-19-3-22-8-48-6-37-3-18-4-36v-18l5-30 6-15 6-11-1-5-9-10-12-24-8-7-20-13-8-1-11 3h-14l-12-4-24-14-16-9-12-8-9-9-6-12-3-8v-38l5-19 10-25 7-13 7-11 11-15 14-15 10-8 14-9 10-5z" fill="#F8BCA5"/>
<path transform="translate(1222,640)" d="m0 0 14 1 15 4 17 9 27 16 23 13 24 14 21 12 24 14 28 16 41 24 16 10 10 8 10 13 6 9 13 7 25 2 15 6 27 15 48 28 17 10 18 10 13 10 9 10 8 15 5 15 4 21v32l-2 13-5 24-8 26-11 26-12 23-14 22-9 12-11 13-9 11-10 10-11 9-14 11-13 8-17 9-16 6-19 4h-17l-19-5-20-11-17-10-28-16-24-14-26-15-9-7-6-5-8-10-6-9-7-6-7-3h-10l-21-4-16-8-17-10-25-14-24-14-26-15-28-16-23-13-10-8-2-2 13-9 12-12 11-17 7-14 5-15 2-12 1-15 1-1h7l16 8 18 10 5-1 9-16 7-12v-3l-19-11-18-10-15-9-77-44-15-7-19-5-17-2-2-2 1-6 15-30 8-14 10-15 10-13 9-11 12-13 11-11 11-9 13-10 13-8h2v-2l-8 1 3-2 16-3 19-7 14-3z" fill="#D88ED8"/>
<path transform="translate(822,494)" d="m0 0h9l12 3 15 8 27 16 14 8 7 7 7 14 4 12 8 5 19 9 8 2 11-2h14l16 4 22 9 33 16 17 9 23 11 60 30h22v2l-15 9-14 11-14 12-14 14-9 11-8 10-8 11-11 17-12 22-7 16-2 4 1 4 17 2 19 5 19 9 19 11 21 12 23 13 17 10 10 6 18 10 18 11-1 4-7 13-8 14-2 2-6-1-23-13-9-4h-7l-2 21-3 12-6 16-12 20-11 12-10 9-6 4h-2v2l-16 5h-10l-10-4-27-16-15-9-8-9-2-4-4 2-16 15-7 7-7 8-9 10-5 5-4-1-28-16-48-28-15-9-24-14-16-9-2-3v-11l5-8 14-15 5-6 8-7 10-10 11-9 12-10 18-13 20-13h2v-2l-5-2-16-10-25-17-14-11-6-4h-6l-24 10-18 10-15 10-16 12-13 11-12 11-16 16-1 2-7-1-13-5-3-1h-19l-14 3-22 8-26 12-10 2-1-3 13-18 9-12 18-22 5-6h2l2-4 28-28 11-9 13-11 17-12 17-11 20-11 21-9 6-1-5-5-4-1-9 3-13 1-12-2-14-7-17-10-14-8-14-9-7-7-6-10-4-14-1-11v-10l2-17 5-20 9-22 10-18 7-10 13-16 5-6 11-9 12-9 16-8 5-2z" fill="#3D5B68"/>
<path transform="translate(1111,705)" d="m0 0v3l-11 13-13 18-14 24-13 27 1 5 13 2 15 4 17 7 18 10 22 13 24 14 21 12 13 8 25 14 10 7 1 3-13 24-5 8 1 3 28 16h6l2-1 9-1 10-2 6-1v2l9 2v2l5 1 22 12 13 7 4 3 7 3 1 2-4 16-1 5 2 3 11 6 19 11 7 4 13 8 11 6 41 24 4 2v-3h2l2-7 4-10 3-10 5-10 3-9h2l2-5 9-16 8-12 7-11h2l2-5 3-1 2-5 8-10h2l1-3h2l2-4h2l2-4h2v-2h2v-2l8-7 5-4h2v-2l7-5 5-5 9-6 7-4h3l1-2 4-2 5-2v-2l11-4 7-2 13-3h13l7-1 3 1 2-1-1-2 7 2v2l6 2 11 6 10 5 7 7 7 10 6 13 5 16 3 17v32l-2 13-5 24-8 26-11 26-12 23-14 22-9 12-11 13-9 11-10 10-11 9-14 11-13 8-17 9-16 6-19 4h-17l-19-5-20-11-17-10-28-16-24-14-26-15-9-7-6-5-8-10-6-9-7-6-7-3h-10l-21-4-16-8-17-10-25-14-24-14-26-15-28-16-23-13-10-8-2-2 13-9 12-12 11-17 7-14 5-15 2-12 1-15 1-1h7l16 8 18 10 5-1 9-16 7-12v-3l-19-11-18-10-15-9-77-44-15-7-19-5-17-2-2-2 1-6 15-30 8-14 10-15 10-13 9-11z" fill="#B075AF"/>
<path transform="translate(851,914)" d="m0 0v3 11l4 4 22 12 15 9 17 10 22 13 28 16 24 14 5 1 1 4 12 7 12 6 15 10 10 10 11 17 11 6 24 3 16 5 20 11 48 28 20 12 21 12-2 1-13-6-6-2v2h-8l-3 2-18 2-9 2-1 1h-5l-1 3-11 3-2 2h-4v2h-2v2l-7 2v2h-4l-2 4-7 2v2h-2v2l-8 6h-2v2l-8 7-6 5-4 4h-2v2h-2v2h-2v2h-2v2h-2l-2 4h-2l-2 5-6 9h-2l-2 4-16 24-6 11-2 2-3 7-4 8-5 12h-2l1 3-4 9-4 11-3 5-4-1-17-9-7-4-9-6-10-5-22-13-12-6-8-5-7-4-13-7v-7l4-12 1-6-6-2-7-5-14-7-14-8-10-6-10-4-6 1-17 4h-8l-16-9-4-5v-27l2-15 7-24 7-15 8-14 12-18 9-12 8-11 2-3h2l2-5 10-15 4-8h2l1-5 3-5 4-13-1-10-5-7h-2l-1 8h-1l-1-15-5-5-2-1h-10l-12 6-17 10-28 20-15 12-11 9-10 10h-3l-1 3-18 18-6 7-3-1 2-7 6-9 9-19 6-10 7-14 4-4 1-3h2l1-4 6-5 4-6 3-3 5-3 11-12 14-11 6-3 3-1v-2l7-4h2v-2h3v-2l16-8 9-2 5 1 1-10z" fill="#D88ED8"/>
<path transform="translate(1167,655)" d="m0 0h3v2l-15 9-14 11-14 12-14 14-9 11-8 10-8 11-11 17-12 22-7 16-2 4 1 4 17 2 19 5 19 9 19 11 21 12 23 13 17 10 10 6 18 10 18 11-1 4-7 13-8 14-2 2-6-1-23-13-9-4h-7l-2 21-3 12-6 16-12 20-11 12-10 9-6 4h-2v2l-16 5h-10l-10-4-27-16-15-9-8-9-2-4-4 2-16 15-7 7-7 8-9 10-5 5-4-1-28-16-48-28-15-9-24-14-16-9-2-3v-11l5-8 14-15 5-6 8-7 10-10 11-9 12-10 18-13 20-13 13-5 19-9 24-8 18-4 3-3 11-33 9-17 4-8 2-2 1-5h2v-3l3-2 2-5h2l1-4h2l1-4 10-8 6-7 5-5 11-9 2-3 5-2 5-4h2v-2h3v-2l17-8 11-4 9-4z" fill="#3A5B66"/>
<path transform="translate(1435,781)" d="m0 0h18l8 2 5-1v2h3v2l10 1 11 8 1-2 7 10 13 7 25 2 15 6 27 15 48 28 17 10 18 10 7 5-2 1-11-6-10-5v-2l-6-1 1 2-4 1-7-1-2 1h-15l-11 3-9 3-5 2h-4v2l-6 3-4 3h-3l-1 2-12 7-5 4h-2l-1 3-5 4h-2v2l-11 8-2 3h-2v2h-2v2l-7 6-4 5-5 5-7 10-4 4-1 2h-2l-2 5-10 15-7 11-6 11-4 8-5 12-3 7-4 12-4 9h-2v3l-6-2-24-14-22-13-13-8-7-4-18-10-12-7-6-4-1-3 4-14 1-7-10-5-10-6-20-11-11-5v-2l-6-1-2-2-1-6 3-7 8-19 4-5 7-14 3-5 2-1 3-6 10-14 3-3 3-5 9-12 14-14 8-7 7-6h3v-2l9-6 14-8 3-2h3v-2l4-1 6-3 8-3 7-3z" fill="#D88ED8"/>
<path transform="translate(963,576)" d="m0 0h14l16 4 22 9 33 16 17 9 23 11 60 30 8 1-2 2-13 5-13 6-9 3v2h-3v2l-8 6-4 1-4 5-8 6-4 5-6 5-5 6-7 5-1 3h-2l-1 4-2 1-2 5-3 1v3h-2v5l-4 5-3 7-8 15-12 35-3 2-18 4-24 8-26 12-4 1v-2l-5-2-16-10-25-17-14-11-6-4-4-2 24-6h31l13 4 24 13 3 2 4-1 11-19 4-6 1-5-10-7-23-13-11-6-12-7-15-6-10-3-11-2h-36l-14 1-2-2-1-4 1-21 3-15 6-18 8-18 12-17 12-13h3l2-4 11-9 14-8 15-6 3-5 7 1z" fill="#FCFCFC"/>
<path transform="translate(1621,896)" d="m0 0 6 2 10 15 5 12 3 14 1 5v27l-4 25-6 21-9 24-8 16-9 16-12 19-11 14-12 14-7 7-11 9-14 11-14 8-14 6-14 3-8 1h-14l-6-2-3-2-5-11-5-16-2-13v-23l2-17 3-16 4-14 5-15 6-15 7-14 5-9 12-20 6-9 2-1 4-7 6-7h2l2-4 4-5 6-5 3-4h2l1-3 12-9 3-1v-2l5-3h2v-2h3v-2h2v-2l7-2v-2l8-2v-2l11-3 14-4z" fill="#EAC0EB"/>
<path transform="translate(1171,1154)" d="m0 0 7 1 6 9 5 8 5 13 3 13 1 6v24l-4 25-7 25-6 16-9 20-12 21-10 15-10 13-11 13-4 5-8 7-14 12-14 9-10 6-16 6-18 3h-13l-8-2-6-10-6-18-2-11v-29l2-18 1-3 6-25 5-16 16-32 7-12 4-7 6-9 11-15 9-10h2v-2h2l2-4h2v-2h2v-2l7-6 1-2 3-1 4-4 19-13 10-6 7-3 6-2 13-3z" fill="#EAC0EB"/>
<path transform="translate(373,752)" d="m0 0h11l12 4 21 12 17 10 14 8 10 9 7 14 4 12v2l6 2 17 8 7 3v2l-11 6-7 3-12 6-12 9-12 11-9 10-10 15-8 17-5 15-4 17-1 11v16l2 16v5l-24-16-7-3-9 1-6 2h-14l-12-4-24-14-16-9-12-8-9-9-6-12-3-8v-38l5-19 10-25 7-13 7-11 11-15 14-15 10-8 14-9 10-5z" fill="#D88FD8"/>
<path transform="translate(1638,872)" d="m0 0 7 2v2l6 2 11 6 10 5 7 7 7 10 6 13 5 16 3 17v32l-2 13-5 24-8 26-11 26-12 23-14 22-9 12-11 13-9 11-10 10-11 9-14 11-13 8-17 9-16 6-19 4h-17l-19-5-20-11-17-10-5-4 2-3 2-13-3-17-1-8v-43l3-21 3-16 1-9h2l2-7 4-10 3-10 5-10 3-9h2l2-5 9-16 8-12 7-11h2l2-5 3-1 2-5 8-10h2l1-3h2l2-4h2l2-4h2v-2h2v-2l8-7 5-4h2v-2l7-5 5-5 9-6 7-4h3l1-2 4-2 5-2v-2l11-4 7-2 13-3h13l7-1 3 1 2-1zm-17 24-14 1-7 2-12 3-6 2v2l-8 2v2l-7 2v2h-2v2h-3v2l-5 2-2 1v2l-4 2-12 9v2l-4 2-5 6-8 8v2l-3 1-8 10-1 3-4 4-6 8-6 12-7 11-10 20-5 13-6 17-4 17-3 16-1 12v23l3 17 6 17 4 7 3 2 5 1h14l18-3 14-5 15-8 16-12 10-9 8-7 11-12 15-20 16-26 8-15 10-25 6-19 4-19 2-14v-27l-2-12-6-17-7-11-4-6z" fill="#CC6CC9"/>
<path transform="translate(1187,1130)" d="m0 0 9 3 11 5 7 3 9 7 5 4 8 10 8 15 4 13 4 24v25l-4 26-5 22-9 26-9 20-8 16-11 19-8 11-11 15-9 10-7 8-14 14-11 9-12 9-20 12-16 7-12 4-20 3h-7l-18-3-17-8-36-21 4-2 1 2 1-3h2l1-8-4-26v-36l2-20 4-27v-6l4-8 6-16 1-4h2l3-11 3-5 4-7 2-5 6-9 6-11 6-9 8-11h2l2-5 6-9 4-4h2v-2h2v-2h2v-2h2v-2l5-2 2-4 8-7 3-3h2v-2l8-6h2v-2h2v-2l8-4 1-2h4v-2h2l1-2h4v-2h2v-2l5-2 12-4 1-2 15-4 16-2v-1l6-1 7 1zm-16 24-14 3-13 3-11 4-14 8-17 12-4 4-3 1-6 7-2 1v2h-2v2l-4 2v2h-2v2l-4 2-7 8-9 12-5 7-4 7-3 5-5 8-16 32-3 8-5 16-5 21-2 10-1 11v30l4 17 5 13 5 8 8 2h13l18-3 16-6 17-10 14-11 13-12 5-5 10-11 10-13 10-15 10-17 8-15 10-25 6-20 4-18 2-15v-24l-3-15-4-13-7-12-4-5-2-4z" fill="#CC6CC9"/>
<path transform="translate(851,914)" d="m0 0v3 11l4 4 22 12 15 9 17 10 22 13 28 16 24 14 5 1 1 4 12 7 12 6 15 10 10 10 6 9-1 3-3-1v-2l-5-1v-2l-5-1-6-4-7-2-9-2-8 1h-22v2l-18 5-9 4-11 6-9 5-9 7h-2v2l-8 6-8 7-1 2h-3l-1 4-3 1-2 3h-2l-1 4-11 13-4 5-8 11-1 2h-2l-2 6-1 2h-2l-1 6h-2l-2 7h-2l-1 4-1 3h-2l-3 9-4 8-2 3-2 6-1 1v9h-6l-16 4-3 1h-8l-16-9-4-5v-27l2-15 7-24 7-15 8-14 12-18 9-12 8-11 2-3h2l2-5 10-15 4-8h2l1-5 3-5 4-13-1-10-5-7h-2l-1 8h-1l-1-15-5-5-2-1h-10l-12 6-17 10-28 20-15 12-11 9-10 10h-3l-1 3-18 18-6 7-3-1 2-7 6-9 9-19 6-10 7-14 4-4 1-3h2l1-4 6-5 4-6 3-3 5-3 11-12 14-11 6-3 3-1v-2l7-4h2v-2h3v-2l16-8 9-2 5 1 1-10z" fill="#D88ED8"/>
<path transform="translate(1100,850)" d="m0 0 8 1 10 4 17 9v2l3-1h13l15-1 19-1 5-1 8 2 19 10 10 6 11 7-1 4-7 13-8 14-2 2-6-1-23-13-9-4h-7l-2 21-3 12-6 16-12 20-11 12-10 9-6 4h-2v2l-16 5h-10l-10-4-27-16-15-9-8-9-2-4-4 2-16 15-7 7-7 8-9 10-5 5-4-1-26-15v-2l4-2h3l1-6 7-9 7-7 1-2h2l2-4h2v-2h2v-2l4-4h2v-2h2v-2l4-4h2v-2h2v-2l8-7 12-10 5-4h4v-2l2-1 1-3 3-3h2l2-9 2-2 3-7 3-5 4-5h2l1-4 1-2h2l2-4 4-4h2v-2l4-4 11-6 8-4z" fill="#1F3039"/>
<path transform="translate(822,494)" d="m0 0h9l12 3 15 8 27 16 14 8 7 7 7 14 3 8v4l-10-3-15-7-6-2h-13l-13 4-11 6-8 6h-2v2l-8 7-7 7-10 14-9 16-7 16-4 13-2 12v19l3 14 7 11 10 8 15 10v2l-9 3-13 1-12-2-14-7-17-10-14-8-14-9-7-7-6-10-4-14-1-11v-10l2-17 5-20 9-22 10-18 7-10 13-16 5-6 11-9 12-9 16-8 5-2z" fill="#D88FD8"/>
<path transform="translate(891,1242)" d="m0 0 1 3-1 7 6 2 11 6 20 12 12 6 20 12 7 4 9 6 16 8 7 4 1 6-5 34-1 15v34l4 26-2 8h-2l-1 4-1-3-6 1-24-14-21-12-22-13-11-8-7-7-12-18-9-5 5-5-1-8-2-7-1-6-1-19 1-16 2-18 4-23z" fill="#B075AF"/>
<path transform="translate(1340,982)" d="m0 0 1 3-1 5 2 3 11 6 19 11 7 4 13 8 11 6 41 24 4 2-1 11-4 24-1 8v46l3 17 1 7-2 13-5 1-52-30-22-13-10-9-5-5-12-16-8-6-2-1v-2l5-1v-2h3v-2l-2-1-3-9-2-13v-29l4-26 2-14 2-5 1-10z" fill="#B075AF"/>
<path transform="translate(422,808)" d="m0 0h15l11 4 19 9 16 8 13 6 3 1v2l-11 6-7 3-12 6-12 9-12 11-9 10-10 15-8 17-5 15-4 17-1 11v16l2 16v5l-24-16-7-3-3-1v-2l-4-2-16-12-7-7-5-10-3-17 1-16 4-18 11-25 9-15 14-17 7-7 14-10 12-6z" fill="#1F313A"/>
<path transform="translate(945,577)" d="m0 0h2l1 6-9 4-16 8-12 9-5 3-5 5-5 6h-2l-2 4-10 13-4 9 1 6 5 6 17 9 23 13 8 5 11 6 14 8 24 14 14 8 15 9 22 12 9 5 6 2 5-3-2 5-8 15-12 35-3 2-18 4-24 8-26 12-4 1v-2l-5-2-16-10-25-17-14-11-6-4-4-2 24-6h31l13 4 24 13 3 2 4-1 11-19 4-6 1-5-10-7-23-13-11-6-12-7-15-6-10-3-11-2h-36l-14 1-2-2-1-4 1-21 3-15 6-18 8-18 12-17 12-13h3l2-4 11-9 14-8 15-6z" fill="#C7C6C9"/>
<path transform="translate(872,549)" d="m0 0h13l13 5 13 6 7 3 19 10 8 4v4l-9 4-17 8-16 12-3 4-5 3-10 11-12 18-9 21-1 3h-3l-1 8-3 13-1 15v16l-5 3-7 2-7-1-5-2-11-7-14-10-7-6-6-10-3-14v-19l4-20 9-21 9-16 8-11 9-10 7-7h2v-2l10-7 16-8z" fill="#1F303A"/>
<path transform="translate(1283,935)" d="m0 0 1 2 9 2v2l5 1 22 12 13 7 4 3 7 3 1 2-3 12-3 6-1 10-2 5-2 14-2 13-2 16v26l2 13 2 7 2 5h-3v2l-5 2h-13l-21-4-16-8-12-7 1-4-3-2-2-4-3-3-2-5-6-13-4-12-3-21v-20l1-11 1-6 5-27 3-11 3-3h7l14-3z" fill="#AB69AA"/>
<path transform="translate(1188,1163)" d="m0 0 9 2 8 4 5 5 7 8 6 10 5 14 2 11v34l-3 21-6 21-6 17-5 11-13 26-4 5-2 5h-2l-2 5-3 5-1 2h-2l-2 4-8 11-7 8-9 9h-2l-2 4-5 4h-2l-1 3-5 3h-2v2l-9 7-8 4-8 5-15 6-6 2-21 3-16-3-8-2-1-2-7-4-2-4-4-1-1-3 3-1 20-2 13-3 13-5 17-10 14-11 13-12h2l2-4 10-11 10-13 10-15 10-17 8-15 10-25 6-20 4-18 2-15v-24l-3-15-4-13-4-7z" fill="#A253A0"/>
<path transform="translate(1637,904)" d="m0 0h5v2l6 1v2l5 1 10 10 6 9 5 12 4 18 1 11-1 28-2 14-2 6-2 9-3 7-4 13-9 20-8 15-6 11-7 11h-2l-2 5-10 13-12 13-3 4h-2l-1 3-6 5-1 2-4 2-5 5-4 2v2l-6 3-6 5-13 6h-3v2l-12 5-13 3-15 1-20-5-15-10-2-5 23-2 17-4 19-9 11-8 10-8 14-12 12-13 15-20 16-26 8-15 10-25 6-19 4-19 2-14v-27l-2-12-3-9v-7l-4-7z" fill="#A253A0"/>
<path transform="translate(1100,850)" d="m0 0 8 1 10 4 17 9v2l3-1h13l15-1 19-1 5-1 8 2 19 10 10 6 11 7-1 4-7 13-8 14-2 2-6-1-23-13-9-4h-7l-1 15h-1l-1-17v-7l-5-8-7-6-15-5-7-1h-3l-2 4h-7l-14-8-9-5-5-1v2l5 2 15 9 3 3v3h-7l-11-6v-2l-6-1-8-4-1 1 10 6 6 4 5 3 3 5-1 1-7-1-8-4-10-6-9-4v2l2 1v2l4 1 7 4 4 2v2l4 1 4 4v3l-7-1-16-8v-2l-4-2-6-2h-4l6 4 3 1v2h3v2l5 1v2l5 1 5 4v2h2l1 4-5 1-7-4-4-2v-2l-5-2-9-5-6-1v2l7 2 1 3 6 2 5 3 2 1v2l5 2 3 5v2h-6l-6-4-5-2v-2l-4-1v-2l-5-1v2h2v3l5 2 7 5 5 3 2 2v5l-12-4-3-3-12-6v2l6 5 11 6 6 5v4h-6l-14-9-10-5h-3l1 2 5 3 17 9 4 4v5l-5-1-9-5-8-4v-2h-5l5 5v2l7 2 11 8 3 4-1 2-5 1-6-3 5 5 4 2v2l3 1-1 4-5 1-7-4-10-7-9-5h-2v2l3 1 3 3 5 4 3 1v2l6 2 6 3h4l3 6 1 7 3 5v4l5 2 4 3v2l-5-2-28-16-9-7-6-8-1-2-4 2-16 15-7 7-7 8-9 10-5 5-4-1-26-15v-2l4-2h3l1-6 7-9 7-7 1-2h2l2-4h2v-2h2v-2l4-4h2v-2h2v-2l4-4h2v-2h2v-2l8-7 12-10 5-4h4v-2l2-1 1-3 3-3h2l2-9 2-2 3-7 3-5 4-5h2l1-4 1-2h2l2-4 4-4h2v-2l4-4 11-6 8-4z" fill="#2D444E"/>
<path transform="translate(1621,896)" d="m0 0 6 2 10 15 5 12 3 14 1 5v27l-4 25-6 21-9 24-8 16-9 16-12 19-11 14-12 14-7 7-11 9-14 11-14 8-14 6-14 3-8 1h-14l-6-2-3-2-5-11-5-16-2-13v-23l2-17 3-16 4-14 5-15 6-15 7-14 5-9 12-20 6-9 2-1 4-7 6-7h2l2-4 4-5 6-5 3-4h2l1-3 12-9 3-1v-2l5-3h2v-2h3v-2h2v-2l7-2v-2l8-2v-2l11-3 14-4zm-9 4-14 3-17 7-14 8-5 3-11 9-1 3-2 1v2h-2l-4 10-1 7-4 12 1 6h8l6-4h11l2 5 4 8 2 9v23l-2 9-5 13-6 11-7 9-5 5-11 8-16 8-14 3h-9l-19-5-5-2-6 1-1 4h-2l-2 13-1 13v16l2 16 5 17 4 8 5 4h19l16-3 16-6 15-9 14-11 11-10 3-2v-2l4-2 9-11 1-3 3-1 14-19 8-13 10-17 10-22 7-20 5-18 3-18v-34l-3-13-7-16-7-12-2-1z" fill="#E1B0E2"/>
<path transform="translate(1171,1154)" d="m0 0 7 1 6 9 5 8 5 13 3 13 1 6v24l-4 25-7 25-6 16-9 20-12 21-10 15-10 13-11 13-4 5-8 7-14 12-14 9-10 6-16 6-18 3h-13l-8-2-6-10-6-18-2-11v-29l2-18 1-3 6-25 5-16 16-32 7-12 4-7 6-9 11-15 9-10h2v-2h2l2-4h2v-2h2v-2l7-6 1-2 3-1 4-4 19-13 10-6 7-3 6-2 13-3zm-3 4-21 4-18 8-6 4-4 4-6 4v2l-5 2-5 3-5 5-4 6-2 9-1 7-2 4-1 8 4 2h9l5 3h8l5 4 4 13v16l-2 11-3 9-3 5-4 10-7 11-8 8-15 10-12 5-9 2h-10l-14-3-8-4h-9l-4 3-2 13-1 14v18l2 16 5 17 6 9 8 2 16-1 12-2 12-4 19-10 14-11 10-8v-2l4-2v-2l4-2v-2l4-2v-2l3-1 7-9v-2h2l4-6v-2h2l7-10 14-22 10-21 8-20 6-20 4-18 1-8v-32l-4-15-5-13-7-11-5-4z" fill="#E1B0E2"/>
<path transform="translate(923,736)" d="m0 0h27l12 2 10 5 8 3 18 11 3 3-2 7-7 11-8 13-4 1-14-8-15-8-11-3h-31l-24 6-26 11-18 10-15 10-16 12-13 11-12 11-16 16-1 2-7-1-13-5-18-4 2-4 4-2 6-7 5-5 4-5 7-6 2-3h2l2-4h2v-2l11-9 5-5 3-1 5-5 3-1 1-3 17-12 21-13 14-7 5-3 13-5 11-5 21-6 8-1z" fill="#2D454F"/>
<path transform="translate(835,1194)" d="m0 0 10 4 14 8 18 10 12 7 7 4-1 9-2 6h-2l-2 12-1 5-4 22-1 12-1 7-1 17 1 17 2 12 2 6-1 4-2 3-17-1-6-1v-1l12-1-5-6h-2v-2h-2v-2l-5-1-6-3v-2l-4-1v-2l-5-2-5-4-2-5h-2l-6-13-5-21-1-6-1-19 2-23 3-17 5-22 3-8z" fill="#AB69AA"/>
<path transform="translate(502,837)" d="m0 0h27l18 4 10 5 3 4 1 4 2 2-8 7-13 12h-2l-2 4h-2l-1 3-12 12-10 15-12 20-7 14-4 3-5-3-18-10-16-9-12-7-5-3-6-9 1-7 14-19 7-7h2l1-3 12-9h2v-2l15-9 17-8z" fill="#FCFCFC"/>
<path transform="translate(499,836)" d="m0 0 3 2-3 4-21 10-9 6h-2v2l-10 7-12 11-10 13-5 7-1 8 7 9 12 6 23 13 14 8 5 3-1 6-8 17-8 21-6 18-5 30-2 4h-8l-8-3-8-4-2 1-3-5-8-9-12-24-2-7-2-16v-16l2-17 5-18 9-21 6-10 8-11 9-10 7-7 13-10 10-6 8-4 15-6z" fill="#C7C7C9"/>
<path transform="translate(976,1020)" d="m0 0h16l5 2 6-1 15 6 11 8 9 9 6 9-1 3-3-1v-2l-5-1v-2l-5-1-6-4-7-2-9-2-8 1h-22v2l-18 5-9 4-11 6-9 5-9 7h-2v2l-8 6-8 7-1 2h-3l-1 4-3 1-2 3h-2l-1 4-11 13-4 5-8 11-1 2h-2l-2 6-1 2h-2l-1 6h-2l-2 7h-2l-1 4-1 3h-2l-3 9-4 8-2 3-2 6-1 1v9h-6l-16 4-9 1 3-9 10-25 7-16 9-16 11-17 5-8h2l1-4 8-10 4-2 1-4 3-4h2l2-4h2v-3l16-14 5-5 11-9 5-3h2v-2l11-6 9-5 15-7 18-5z" fill="#CC6BC9"/>
<path transform="translate(1446,761)" d="m0 0 12 3 14 9 10 8 8 10v4l-5-2-6-5-7-1-3-1v-2h-3v-2l-6 2-7-2h-18l-13 2-7 3-5 2-8 4-2-1v2l-14 7-11 7-4 2v2l-5 3-6 5h-2l-2 4-10 9-5 6h-2l-2 4-8 10-2 4h-2l-2 5-10 14-2 4-2 1-7 14-6 9-6 15-4 9-1 4 1 4-4 1-9 1-9 2h-6l-2 1 1-9 6-15 4-9h2l1-7 6-10 7-14h2l1-5 8-13 1-2h2l1-5h2l2-5 8-11h2l2-4h2l2-4h2v-3l4-1 2-4 4-4h2l1-4 8-7 5-5h2v-2l16-12 11-7 5-3 8-3 12-5 5-2h2l5-2 12-1h10l6-1 4 2 1-1z" fill="#CC6BC9"/>
<path transform="translate(874,547)" d="m0 0h9l12 4 14 7 7 1v3l-10-3-15-7-6-2h-13l-13 4-11 6-8 6h-2v2l-8 7-7 7-10 14-9 16-7 16-4 13-2 12v19l3 14 7 11 10 8 15 10v2l-9 3-13 1-12-2-14-7-17-10-14-8-14-9-7-7-6-10-4-14-1-11v-10l1-12 2-2 2 2h5l19 10 16 9 12 1 14-7 7-4 10-23 6-10 13-18 7-8 5-4h2l1-3 15-10 8-4 6-2z" fill="#B176B0"/>
<path transform="translate(424,806)" d="m0 0h9l8 2-4 1h-15l-16 6-15 10-12 11-12 15-10 17-7 16-4 10-3 15-1 16 3 17 5 10 8 8 18 13-1 3-11 3h-14l-12-4-24-14-16-9-12-8-9-9-6-12-3-8v-38l2-2 6 4 8 4 8 5 16 8 4 3 12 1 17-8 4-4 8-17 6-12 8-12 8-10 5-6 8-7 10-7 8-5 9-4z" fill="#B175B0"/>
<path transform="translate(428,779)" d="m0 0 5 1 14 7 7 6 4 2 7 14 4 12-1 2-16-8-11-5v-2l-8-1h-9l-12 3-11 6-13 9-9 8-11 14-9 14-15 30-20 10h-5l-1-1 1-7 4-13h2l1-6 1-4h2l1-6h2l3-10h2l1-5 4-5 2-5h2l2-6 9-10 7-9 7-6 5-5 4-1v-2l11-7 11-6 6-3h5l1-2 2 1 2-2 6-1 4 1z" fill="#CB6BC8"/>
<path transform="translate(1608,921)" d="m0 0 5 1 3 3 3 7 3 21 1 16v17l-4 24-5 17-7 18-10 18-7 11-4 5-3 6-7 9h-2l-2 4-10 10-8 7-9 8-7 5-7 3-1-4 7-8 8-9 9-11 4-6 6-8 1-3h2l2-5 3-4 5-10h2l1-4 8-17 6-14 2-9 3-8 3-12 1-9v-24l-2-11-4-8-10 1-9 2-15 5-9 2-1-4 7-8 12-8 9-5 7-3 12-5z" fill="#F0DCEB"/>
<path transform="translate(1158,1180)" d="m0 0 9 1 4 11 2 11 2 28-1 22-4 20-7 21-6 13-6 11-4 8h-2l-2 5-7 10-6 8-4 6h-2l-2 4-8 8-11 9-8 7-10 6-3-1 1-4 7-8 3-3 8-10h2l2-4 10-14 2-4h2l2-5 6-9 8-16 2-5 4-8 5-11 3-12 2-5 2-12 2-8v-24l-1-9-5-11-5-1-25 7-13 5-2-4 2-3h2v-2l12-9 6-4h2v-2l7-3 8-4 10-4z" fill="#F0DCEB"/>
<path transform="translate(868,522)" d="m0 0h8l7 2 6 1 9 7 4 3v2h2l4 5 3 3 5 14-3 1-10-4-13-6-7-2h-9l-11 2-9 4-14 9-9 8h-2l-2 4-8 9-9 13-6 10-10 23-5 4-9 4-8 4-6-1 2-9 3-10 7-15 4-9 3-3 4-9 8-11 3-5h2l1-4h2l1-4 18-18 5-3 5-2v-2l8-5 7-3 12-5z" fill="#CC6BC9"/>
<path transform="translate(831,1194)" d="m0 0 4 1-5 16-5 24-2 19-1 13 1 18 2 12 5 17 4 9v2h2l2 5 4 2 6 4v2l4 1v2l6 2 5 2v2l5 2 5 6v1h-24l-14-6-11-7v-3l-7-4-2-4-4-3-3-9-5-10-4-11-3-19v-40l5-24 2-6 3-8 1-2 22-5z" fill="#A253A0"/>
<path transform="translate(1278,936)" d="m0 0 3 1-3 15-1 1-6 36-1 14v19l5 24 6 16 4 7 7 6v2l4 2 8 3v2l4 1 3 1v2l5 1 1 3 3 1v2l2 1h-3v2l-4 2-21-4-16-8-12-7 1-4-3-2-2-4-3-3-2-5-6-13-4-12-3-21v-20l1-11 1-6 5-27 3-11 3-3h7z" fill="#A253A0"/>
<path transform="translate(352,894)" d="m0 0 14 7 13 5 9 6 8 5 7 4 7 3-1 16-2 17-1 17h2l2 16v5l-24-16-7-3-3-1v-2l-4-2-8-6-2-4-3-1-4-4v-2h-2l-2-5h-2l-4-10v-30l3-13z" fill="#17262F"/>
<path transform="translate(1167,655)" d="m0 0h3v2l-15 9-14 11-14 12-14 14-9 11-8 10-8 11-11 17-12 22-7 16-5 8-2 1h-18l-1-1v-8l9-26 9-17 4-8 2-2 1-5h2v-3l3-2 2-5h2l1-4h2l1-4 10-8 6-7 5-5 11-9 2-3 5-2 5-4h2v-2h3v-2l17-8 11-4 9-4z" fill="#22333D"/>
<path transform="translate(1138,895)" d="m0 0h10l4 5 4 7v14l-4 15-3 5-4 10-3 1-2 7-5 7h-2l-2 4-9 7h-2v2l-4 2-13 1-7-4-4-9v-13l5-18 8-15 8-12 3-3h2l2-4 9-6z" fill="#2C444E"/>
<path transform="translate(796,641)" d="m0 0 11 1 24 8 13 9 8 4 5 4v8l-2 7-2 27-1 2-4 1h-7l-10 2-1 2-3-4-7-3-11-9-8-6-6-7-2-5v-24z" fill="#17262F"/>
<path transform="translate(874,547)" d="m0 0h9l12 4 14 7 7 1v3l-10-3-15-7-6-2h-13l-13 4-11 6-8 6h-2v2l-8 7-7 7-10 14-9 16-7 16-4 13-2 12v19l3 14 7 11 10 8 15 10v2l-9 3-13 1-9-1-3-3-9-4-6-5-3-5-3-2-1-7-2-1-4-15v-22l2-11 4-4 6-2 10-5 7-4 10-23 6-10 13-18 7-8 5-4h2l1-3 15-10 8-4 6-2z" fill="#A253A0"/>
<path transform="translate(767,1180)" d="m0 0 5 1 10 5 3 5 3 28 2 32 1 30v14l-2 19-2 5-4 1-14-8v-3l1-5v-23l-3-53-1-11v-34z" fill="#A253A0"/>
<path transform="translate(424,806)" d="m0 0h9l8 2-4 1h-15l-16 6-15 10-12 11-12 15-10 17-7 16-4 10-3 15-1 16 3 17 5 10 8 8 18 13-1 3-11 3h-14l-12-4-12-7-1-6-5-4-3-15-1-2-1-15v-4l1-15 1-3 19-10 8-4 9-19 6-12 8-12 8-10 5-6 8-7 10-7 8-5 9-4z" fill="#A253A0"/>
<path transform="translate(836,928)" d="m0 0 9 1v2l-15 9-12 8-13 11-4 2v2l-8 7-2 3h-2l-2 4-9 10-12 18-4 10-7 9-9 9h-3l-1 3-18 18-6 7-3-1 2-7 6-9 9-19 6-10 7-14 4-4 1-3h2l1-4 6-5 4-6 3-3 5-3 11-12 14-11 6-3 3-1v-2l7-4h2v-2l9-4z" fill="#B175B0"/>
<path transform="translate(1621,896)" d="m0 0 6 2 10 15 5 12 3 14 1 5v27l-4 25-6 21-9 24-8 16-9 16-12 19-11 14-12 14-7 7-11 9-14 11-14 8-14 6-14 3-8 1h-14l-6-2-3-2-5-11-5-16-2-13v-23l2-17 3-16 4-14 5-15 6-15 7-14 5-9 12-20 6-9 2-1 4-7 6-7h2l2-4 4-5 6-5 3-4h2l1-3 12-9 3-1v-2l5-3h2v-2h3v-2h2v-2l7-2v-2l8-2v-2l11-3 14-4zm-9 4-14 3-17 7-14 8-5 3-14 11-7 6-7 9-5 5-1 3h-2l-4 5v2l-3 1-1 4h-2l-5 8-5 5-9 15-1 5h-2l-10 19-8 17 1 2h-2l-7 20-5 18-2 13-1 13v16l2 16 5 17 4 8 5 4h19l16-3 16-6 15-9 14-11 11-10 3-2v-2l4-2 9-11 1-3 3-1 14-19 8-13 10-17 10-22 7-20 5-18 3-18v-34l-3-13-7-16-7-12-2-1z" fill="#D88ED8"/>
<path transform="translate(1171,1154)" d="m0 0 7 1 6 9 5 8 5 13 3 13 1 6v24l-4 25-7 25-6 16-9 20-12 21-10 15-10 13-11 13-4 5-8 7-14 12-14 9-10 6-16 6-18 3h-13l-8-2-6-10-6-18-2-11v-29l2-18 1-3 6-25 5-16 16-32 7-12 4-7 6-9 11-15 9-10h2v-2h2l2-4h2v-2h2v-2l7-6 1-2 3-1 4-4 19-13 10-6 7-3 6-2 13-3zm-3 4-21 4-18 8-9 6-5 3-14 10v2l-4 2-11 11-6 8-5 5-1 4h-2v2h-2l-10 14v2h-2l-4 6-7 11-7 14v2h-2l-4 9-7 15-5 15-4 14-3 8-2 13-1 14v18l2 16 5 17 6 9 8 2 16-1 12-2 12-4 19-10 14-11 10-8v-2l4-2v-2l4-2v-2l4-2v-2l3-1 7-9v-2h2l4-6v-2h2l7-10 14-22 10-21 8-20 6-20 4-18 1-8v-32l-4-15-5-13-7-11-5-4z" fill="#D88ED8"/>
<path transform="translate(1162,1183)" d="m0 0 4 3 3 12 2 29v14l-2 16-4 16-6 12-4 10-8 15-5 7-5 10h-2l1-5 12-24 5-11 6-31 1-13-3-24-2-9-3-6-3-2h-10l-11 3-9 3-2-1 1-3 11-6 10-5 8-5 10-4z" fill="#FDFDFD"/>
<path transform="translate(1606,924)" d="m0 0h5l4 5 3 15 1 17v22l-2 15-3 14-9 21-2 1-2 6-9 16-6 10h-3v-2h2l2-5 7-12 6-12 2-13 5-22 1-8v-19l-3-18-3-9-3-3h-13l-11 3-1-3 9-7 12-7z" fill="#FDFDFD"/>
<path transform="translate(1383,1289)" d="m0 0 4 2v56h-2l-5 12-5 11-2 8v7 3l-1 2-4-1-17-3-36-3-6-1v-3l10-2 35-5 16-4 5-6 3-35 4-37z" fill="#FDFDFD"/>
<path transform="translate(627,871)" d="m0 0 1 3 1 5 3 3-1 8-1 3h5l-5 7-10 5-10 10-7 8-13 14-1 2h-2l-2 4-3 4h-2l-2 4-3 4h-2v2l-3-1 1-9 5-10 7-9 9-12 5-5 8-10h2l2-4 5-7 5-5 4-8z" fill="#C7C8C9"/>
<path transform="translate(1611,264)" d="m0 0 6 1 2 2-1 4-10 14-11 12-9 11-13 15-12 13-3 2-4-1-4-4 4-8 12-13 9-11 10-11 9-11 11-12z" fill="#FDFDFD"/>
<path transform="translate(1165,49)" d="m0 0h6l4 2-2 13-11 57-4 17-4 5-4-1-3-4 2-17 14-68z" fill="#FCFCFC"/>
<path transform="translate(1645,1556)" d="m0 0 7 1 13 10 13 12 11 9 15 13 11 10 1 2v7l-4 1-10-5-14-13-11-9-10-9-11-9-12-11-1-4z" fill="#FCFCFC"/>
<path transform="translate(804,1203)" d="m0 0 1 3-2 9-3 9-3 18v38l4 23 5 12 5 9 2 6 3 2v2l2 1 7 5-1 2-6-2-24-14-9-5 3-7 2-22v-17l-1-26v-17h1l1 8 3 1 1-11 4-10 4-15z" fill="#AB69AA"/>
<path transform="translate(822,1844)" d="m0 0h7l3 2-1 9-11 56-4 18-3 6-6-1-2-3 2-13 12-62 2-11z" fill="#FCFBFC"/>
<path transform="translate(1276,1809)" d="m0 0 4 2 5 12 16 47 6 17 1 10-1 1h-6l-5-8-16-45-8-25-1-8z" fill="#FCFCFC"/>
<path transform="translate(1888,673)" d="m0 0h6l2 6-5 4-24 9-46 16-7 2h-5l-1-2v-6l8-5 36-12z" fill="#FCFCFC"/>
<path transform="translate(265,364)" d="m0 0 6 1 11 9 11 10 8 7 14 12 12 11 5 5 3 5-2 3-6-1-14-11-17-14-15-13-13-12-5-7 1-4z" fill="#FDFDFD"/>
<path transform="translate(49,808)" d="m0 0 12 1 68 13 7 3 1 1v6h-10l-34-6-42-8-4-3 1-5z" fill="#FCFCFC"/>
<path transform="translate(422,904)" d="m0 0h2v21l-2 4-3 16-3 11 2 27 3 10-1 4-8 1-2-2-3-22v-16l2-17 5-18z" fill="#E1B0E2"/>
<path transform="translate(1111,705)" d="m0 0v3l-11 13-13 18-14 24-13 27 1 5 13 2 15 4 17 7 18 10 22 13 24 14 21 12 13 8 25 14 10 7 1 3-13 24-5 8-6 1-11-7 2-1 9 5 5-1 9-16 7-12v-3l-19-11-18-10-15-9-77-44-15-7-19-5-17-2-2-2 1-6 15-30 8-14 10-15 10-13 9-11z" fill="#A965A7"/>
<path transform="translate(165,1275)" d="m0 0 4 1v4l-14 7-49 18-16 5h-5l-1-7 12-5 49-17z" fill="#FDFDFD"/>
<path transform="translate(876,635)" d="m0 0 1 2-5 9-4 12-5 16-4 21-1 17v2l19-2h27l16 3 18 6 21 11 17 10 19 11 7 6-1 7-2 1 1-7-10-7-23-13-11-6-12-7-15-6-10-3-11-2h-36l-14 1-2-2-1-4 1-21 3-15 6-18 8-18z" fill="#A254A0"/>
<path transform="translate(1129,922)" d="m0 0 6 2 1 1v10l-4 11-9 8-4 1-7-4-1-4 3-11 4-6 5-5z" fill="#1F3039"/>
<path transform="translate(871,646)" d="m0 0 2 4v7l-2 10-4 17-2 6v12l1 4-1 2h3v2h38l16 4 8 3-3 1-15-4-8-1h-27l-19 1-1-2 1-17 4-21 5-16z" fill="#E1B0E2"/>
<path transform="translate(794,1288)" d="m0 0h2l2 9v2h2l6 16 5 9 2 6 3 2v2l2 1 7 5-1 2-6-2-24-14-6-3 2-5h3l-1-6h2l-1-7 1-4-1-7z" fill="#B379B3"/>
<path transform="translate(1398,1370)" d="m0 0 39 6 24 2-1 4-4 1h-48l-6-3-3-6-2-3z" fill="#FDFDFD"/>
<path transform="translate(1159,1329)" d="m0 0 1 2-7 11-7 10h-2l-2 5-2 3h-2l-2 4-6 8h-2l-2 4h-2l-2 4h-2l-2 4h-2l-1 3-14 11-11 8-19 10-13 4-18 2-13-1-4-3 1-2 2 2h14l14-1 15-4 9-4h2l1-3 4-1 6-4 3-3 5-3 5-2v-2l5-3 3-3h2l2-4 6-7 4-1 2-4 2-3h2l2-5 4-4 1-3 4-1 1-4 2-3h2l2-5 5-6 3-5z" fill="#E1B0E2"/>
<path transform="translate(1594,1089)" d="m0 0h2l-2 4-8 11h-2l-2 4-10 12h-2l-1 3-8 7-15 12-14 9-10 5-15 5-12 2h-19l-5-4-2-5 4 3v2h2v2h9l10-2 16-2 10-4h4v-2l11-6 3-3 9-5 3-3 8-6 9-9h2v-2h2v-3l4-1 1-4h3v-3l6-5 5-7h2z" fill="#E1B0E2"/>
<path transform="translate(792,678)" d="m0 0 2 4 2 7 4 2 5 5 15 12 10 5 1 1 10-3h8l5-2 1 8-5 3-7 2-7-1-5-2-11-7-14-10-7-6-6-10z" fill="#22333D"/>
<path transform="translate(851,914)" d="m0 0v3 11l4 4 22 12 15 9 17 10 22 13 28 16 24 14 5 1v2l-3 1-12-6-11-7-15-9-42-24-26-15-21-12-10-6v-14z" fill="#A966A8"/>
<path transform="translate(499,836)" d="m0 0 3 2-3 4-21 10-9 6h-2v2l-10 7-12 11-10 13-4 3h-2l-1 3-1-2 10-14 9-10 7-7 13-10 10-6 8-4 15-6z" fill="#B98AB9"/>
<path transform="translate(558,855)" d="m0 0h5l-5 6-11 9-5 5h-2l-2 4h-2l-1 3-12 12-10 15-12 20-7 14-4 3-5-3-7-4 2-1 7 3 5-1 8-15 6-11 12-18 6-8h2l2-4 12-12 11-9z" fill="#EDCCEB"/>
<path transform="translate(1379,1406)" d="m0 0 3 1 1 3 2 16 1 3 1 38-1 6-4-2-1-16v-12l-2-22z" fill="#FDFDFD"/>
<path transform="translate(916,773)" d="m0 0h21l9 2v1l-14-1h-12l-11 1-1 5 1 3h2v2h5l4 2 3 3 5 3 4 6-7-1v-2l-10-4v-2l-8-4v-2l-10-3-1-1-7-1 2-2 16-4z" fill="#E0B0E1"/>
<path transform="translate(1111,705)" d="m0 0v3l-11 13-13 18-14 24-13 27 1 5 13 2 9 2 1 2-8-1-15-2-4-2v-6l12-26 10-17 10-15 10-13 9-11z" fill="#A863A7"/>
<path transform="translate(877,712)" d="m0 0h27l16 3 18 6 21 11 17 10 19 11 7 6-1 7-2 1 1-7-10-7-23-13-11-6-12-7-15-6-10-3v-2l-17-2-25-1z" fill="#AA66A8"/>
<path transform="translate(319,901)" d="m0 0 3 1-5 2v9l-1 11v3l1 14 3 12v5l-2-4h-3l-1-3-2-1v-8l1-4-1-1-1-20 3-13z" fill="#AB69AA"/>
<path transform="translate(766,643)" d="m0 0 2 1-2 4-1 16v14l3 12 3 7v3h-4v-2h-2l-4-11v-16l-1-5 1-17 1-3h2v-2z" fill="#AB69AA"/>
<path transform="translate(1049,747)" d="m0 0 1 2-8 15-12 35-3 2-18 4-24 8-26 12-2-1 15-8 19-8 22-7 14-3 4-9 8-24 9-17z" fill="#A75FA5"/>
<path transform="translate(1186,1167)" d="m0 0h2l4 7 4 11 3 15 1 7v16l-4 28-5 20-6 16-1-3 7-23 4-18 2-15v-24l-3-15-4-13-4-7z" fill="#AD6FAC"/>
<path transform="translate(766,1177)" d="m0 0 4 1 2 1v2l-5-1v37l3 44 1 20v25l-2 3-1-39-2-36-1-9v-47z" fill="#AE71AD"/>
<path transform="translate(422,904)" d="m0 0 1 3-9 27-3 16-1 10v11l2 19v7l-2-1-3-22v-16l2-17 5-18z" fill="#A964A7"/>
<path transform="translate(998,767)" d="m0 0 1 2-10 18-5 7-5-1-25-14-8-3-9-2h-21l-13 2-12 3h-6l4-2 20-5h31l13 4 24 13 3 2 4-1 11-19z" fill="#A862A6"/>
<path transform="translate(1284,937)" d="m0 0 9 2v2l5 1 22 12 13 7 4 3 7 3 1 2-3 12-2-1 2-6v-4l-7-3-9-6-10-6-16-8-10-3h-4v-6z" fill="#B075AF"/>
<path transform="translate(1194,1235)" d="m0 0h1l-1 10-5 22-7 20-7 17-10 19-4 6-1-3 6-11 9-17 7-20 4-10 3-13 3-15z" fill="#E1B0E2"/>
<path transform="translate(938,804)" d="m0 0 5 2v2l7 1 11 6 7 3-4 3-8 4v-3l-5-3v-3h-5l-1-4-5-2v-3l-2-1z" fill="#E1B0E2"/>
<path transform="translate(836,1195)" d="m0 0 4 1 10 5 18 10 12 7 9 5v3l-3-1v-2l-5-1-7-4v-2l-6-2-13-7-8-4h-8l1 5-2-1v-3l-3 1 2-7z" fill="#B075AF"/>
<path transform="translate(344,899)" d="m0 0h1l1 40 3 7v3h2l2 5h2v2l4 2v2l4 1 1 3-4-2-8-7-4-5-4-8-3-17 1-16z" fill="#253943"/>
<path transform="translate(1248,962)" d="m0 0h1v8l-2 13-1 3-1 11v22l2 13v6l-2-3-2-9-2-14 1-21 2-15 2-5z" fill="#AB69AA"/>
<path transform="translate(464,861)" d="m0 0 1 2-10 8-7 7-9 11-6 8-1 8 3 7 11 7-2 1-9-5-7-9 1-8 14-19 7-7h2l1-3z" fill="#F0DCEB"/>
<path transform="translate(499,836)" d="m0 0 3 2-3 4-21 10-9 6h-2v2l-10 7-4 2 6-8 13-9 4-4 8-4 15-6z" fill="#C09FC1"/>
<path transform="translate(1206,868)" d="m0 0 5 1 18 10 10 7 1 3-13 24-5 8-6 1-11-7 2-1 9 5 5-1 9-16 7-12v-3l-19-11-12-7z" fill="#A760A6"/>
<path transform="translate(1642,978)" d="m0 0h1l-1 11-5 20-4 12-8 20-4 8-2-2 3-6 4-10 2-1 2-9 3-7 1-7 3-9 3-13z" fill="#E1B0E2"/>
<path transform="translate(792,678)" d="m0 0 2 4 2 7 4 2 5 5 15 12 10 5-2 1 1 3-5-2-11-8-8-6-6-5-6-10z" fill="#253942"/>
<path transform="translate(740,1032)" d="m0 0h2v4l-13 13-6 3-2-1 6-11 4-2 1-2h3l1-3z" fill="#AA67A9"/>
<path transform="translate(856,712)" d="m0 0h2v2l7-1h37l14 2 3 2h-7l-4-1h-36l-14 1-2-2z" fill="#A458A2"/>
<path transform="translate(1137,1366)" d="m0 0v3l-7 9h-2v2h-2v2h-2v2h-2v2l-7 5-5 5-13 10-11 7-8 4-4-1 12-6 11-7 13-10 13-12h2l2-4z" fill="#AE70AD"/>
<path transform="translate(1134 1e3)" d="m0 0 9 2 7 3 6 4v2l6 2 11 7 1 3-5-2-22-12-13-8z" fill="#D992D9"/>
<path transform="translate(933,584)" d="m0 0 3 1-17 8-16 12-3 4-5 3-9 10-1-3 2-3h2v-2h2v-2h2v-2h2v-2h2v-2l4-1v-2h2v-2l10-7 6-4 6-3z" fill="#304B55"/>
<path transform="translate(1042,771)" d="m0 0 3 1 1 8v10l-5 2-3-2 1-12z" fill="#17262F"/>
<path transform="translate(1640,920)" d="m0 0 3 3 3 12 2 14v13l-2 17-3 17h-1l1-11 2-14v-27l-2-12-3-9z" fill="#AE70AD"/>
<path transform="translate(1182,1167)" d="m0 0 3 3 4 8 6 18 1 5v32h-1l-1-13-1-21-3-10-4-10-4-9z" fill="#E1B0E2"/>
<path transform="translate(438,1028)" d="m0 0 5 1 8 5v2h3l4 5h-6l-8-3-7-4z" fill="#E1B0E2"/>
<path transform="translate(900,864)" d="m0 0 2 1-7 7h-2l-1 3h-2l-1 3-5 5-3 1-1 3-19 19-4 2 6-8 10-10 5-6 8-7z" fill="#BF8DBE"/>
<path transform="translate(799,1299)" d="m0 0 2 4 5 12 5 9v4l-4-1-1-3h-2l-2-4-1-7-2-6-1-7z" fill="#AB69AA"/>
<path transform="translate(508,911)" d="m0 0 1 2-3 7-8 16-5 8-3 2-5-3-7-4 2-1 7 3 5-1 8-15 6-11z" fill="#EDD0EB"/>
<path transform="translate(1056,791)" d="m0 0h1l1 5 12 2 10 2h7l12 5v2l6 2 3 3-6-2-15-6-19-4-11-1-2-2z" fill="#A863A7"/>
<path transform="translate(1164,949)" d="m0 0 1 3-9 16-9 11-13 13-8 5-3-1 13-9 12-12 11-17z" fill="#A253A0"/>
<path transform="translate(496,842)" d="m0 0h3l-1 4h-2v2l-11 4-6 2-10 6h-2v-2l15-9z" fill="#EFDBEB"/>
<path transform="translate(892,621)" d="m0 0v3l-7 10-4 7 1 9 3 5 9 5-3 1-9-6-5-7 1-7 5-9z" fill="#F0DCEB"/>
<path transform="translate(947,577)" d="m0 0 1 3 3 1-1 5-9 2-5 3-7 3-8 5-3 2-3-1 10-7 15-8 8-2z" fill="#F0DCEB"/>
<path transform="translate(424,806)" d="m0 0h9l8 2-4 1h-15l-16 6-12 8-2-1 9-7 14-7z" fill="#A253A0"/>
<path transform="translate(1624,861)" d="m0 0 5 2 14 8 18 10 7 5-2 1-11-6-10-5v-2l-5-1-3-3-12-7z" fill="#E2AFE2"/>
<path transform="translate(1099,806)" d="m0 0 5 1 20 11 10 6 1 2-7-2-20-11-3-3-6-3z" fill="#AB6AAA"/>
<path transform="translate(1063,774)" d="m0 0 1 3-9 19-4 3h-18l-1-1v-8h1l1 6h13l6-1z" fill="#2D4650"/>
<path transform="translate(1175,901)" d="m0 0h7l16 8-2 1-13-6-6 1-3 20-2 4 1-12 1-15z" fill="#A253A0"/>
<path transform="translate(717,652)" d="m0 0 4 4 1 9 1 3 2 1h-2v2h2l1 3 3 3 5 6 3 2-1 2-8-7-6-8-4-10-2-9z" fill="#DA94DA"/>
<path transform="translate(851,914)" d="m0 0v3 11l4 4 13 7 1 3-5-2-15-8-1-1v-14z" fill="#AA68A9"/>
<path transform="translate(945,577)" d="m0 0h2l1 6-9 4-12 6-2-1v-3l14-6 5-3z" fill="#C1A8C2"/>
<path transform="translate(1247,1038)" d="m0 0 2 4 4 10 4 9 2 3v4h-4l-3-8-2-7-1-4-2-2z" fill="#AB69AA"/>
<path transform="translate(864,663)" d="m0 0h1l-1 8-3 13-4 28-2-1v-8l1-1 2-17 5-19z" fill="#AE71AD"/>
<path transform="translate(1040,937)" d="m0 0 6 1 6 4 7 6-4 1-11-6-2-4-3-1z" fill="#1F3039"/>
<path transform="translate(629,891)" d="m0 0 1 2h5l-5 7-6 3-2-1 3-7z" fill="#F0DBEC"/>
<path transform="translate(886,522)" d="m0 0 10 5 10 9 3 5-1 2-4-4v-2h-2v-2l-4-2-9-7-3-1z" fill="#DC9DDC"/>
<path transform="translate(475,850)" d="m0 0 2 1-5 5-5 2v2l-10 7-4 2 6-8 13-9z" fill="#CCC2CE"/>
<path transform="translate(438,880)" d="m0 0h3v3l-6 8-4 3h-2l-1 3-1-2 10-14z" fill="#BD9BBE"/>
<path transform="translate(883,622)" d="m0 0 2 1-12 18-6 14-1-4 8-17z" fill="#304B56"/>
<path transform="translate(897,1375)" d="m0 0 7 6 2 4 3 1 6 7 3 3-5-2-10-9-6-8z" fill="#D99DD9"/>
<path transform="translate(925,590)" d="m0 0 2 1-5 5-11 8-5 2 4-6z" fill="#CCC3CE"/>
<path transform="translate(1228,905)" d="m0 0h2l-2 6-6 10-6 1-11-7 2-1 9 5 5-1z" fill="#A55CA4"/>
<path transform="translate(1058,791)" d="m0 0 3 4 13 2 9 2 1 2-8-1-15-2-4-2z" fill="#B075AF"/>
<path transform="translate(475,847)" d="m0 0 4 1-11 6-11 8-5 3 1-3h2v-2h2v-2l14-9z" fill="#314C56"/>
<path transform="translate(808,601)" d="m0 0v3l-10 21-3 5-1-2 9-21z" fill="#A355A1"/>
<path transform="translate(790,1091)" d="m0 0 2 1-4 10-3 4-2 4-1-4 4-10 2-4z" fill="#B170B1"/>
<path transform="translate(393,820)" d="m0 0m-1 1m-1 1v3l-12 11-5 6h-2l2-4 6-7 8-7z" fill="#A356A1"/>
<path transform="translate(1586,839)" d="m0 0 6 2 25 15-2 1-12-7-8-4-9-6z" fill="#E8BFE9"/>
<path transform="translate(1069,767)" d="m0 0 1 2-10 21-3 2 3-9 7-15z" fill="#AA66A8"/>
<path transform="translate(1619,1049)" d="m0 0 1 2-6 12-8 13-2 1 1-4 6-10 1-3h2l2-6z" fill="#E1B0E2"/>
<path transform="translate(1179,903)" d="m0 0 7 1 3 3-4-1v2l-7 1-2 3v-7z" fill="#AB69AA"/>
<path transform="translate(521,894)" d="m0 0v3l-12 18-1-2 2-5 8-12z" fill="#ECCBEB"/>
<path transform="translate(1056,791)" d="m0 0h1l1 5 12 2 17 4-4 1-15-3-11-1-2-2z" fill="#A253A0"/>
<path transform="translate(1171,1408)" d="m0 0 3 1-17 17-3 1 2-4 3-1 1-3 6-5 3-4h2z" fill="#DA95DA"/>
<path transform="translate(813,1331)" d="m0 0 3 1v2l2 1 7 5-1 2-6-2-6-5-1-3z" fill="#B273B1"/>
<path transform="translate(1091 1e3)" d="m0 0h24l-4 2-4 1h-10l-6-2z" fill="#625A78"/>
<path transform="translate(899,605)" d="m0 0h2l-1 4-5 3-9 10-1-3 2-3h2v-2h2v-2h2v-2h2v-2h2v-2z" fill="#314853"/>
<path transform="translate(947,577)" d="m0 0 1 3 3 1-1 5-9 2-4 1 3-4 8-2z" fill="#EFD9EB"/>
<path transform="translate(1640,920)" d="m0 0 3 3 3 12 1 5v7l-2-3-2-12-3-9z" fill="#AD6FAC"/>
<path transform="translate(876,635)" d="m0 0 1 2-5 9-4 12-2 2 1-8 8-16z" fill="#A863A7"/>
<path transform="translate(558,855)" d="m0 0h5l-5 6-9 7-3-1 11-10z" fill="#EDCFEB"/>
<path transform="translate(1056,1421)" d="m0 0h7l-4 2-8 2h-18v-1l20-2z" fill="#AE70AD"/>
<path transform="translate(433,779)" d="m0 0 5 1 10 6 8 7h-3l-9-7-11-5z" fill="#E1ABE1"/>
<path transform="translate(772,707)" d="m0 0 7 1 7 6 7 3-1 2-14-7-6-4z" fill="#BF82BE"/>
<path transform="translate(1190,1128)" d="m0 0 16 8 3 3-6-2-13-5z" fill="#DD9FDE"/>
<path transform="translate(851,914)" d="m0 0v3 11l2 4-5-1v-14z" fill="#A863A7"/>
<path transform="translate(891,550)" d="m0 0 6 2 12 6 7 1v3l-10-3-15-7z" fill="#A356A1"/>
<path transform="translate(437,878)" d="m0 0h2l-2 4-9 13-2 2 1-5 9-13z" fill="#304C56"/>
<path transform="translate(1152,1346)" d="m0 0 1 2-10 14-3 4h-2l2-4 10-13z" fill="#AE70AD"/>
<path transform="translate(1566,827)" d="m0 0 12 6 8 5-3 1-11-6-6-4z" fill="#E9C2EA"/>
<path transform="translate(819,708)" d="m0 0 9 4 2 2h-2l1 3-5-2-7-5z" fill="#2A3945"/>
<path transform="translate(1088,695)" d="m0 0 3 1-5 4-7 8-3 2 1-4z" fill="#BC92BC"/>
<path transform="translate(372,842)" d="m0 0v3l-9 12-2 4h-2l2-5 7-10z" fill="#A253A0"/>
<path transform="translate(1111,705)" d="m0 0v3l-11 13-1 2h-2l2-4 9-11z" fill="#A75FA5"/>
<path transform="translate(945,577)" d="m0 0h2l1 6-4 2h-8l3-2 5-3z" fill="#BD95BD"/>
<path transform="translate(900,864)" d="m0 0 2 1-7 7h-2l-1 3h-2l-1 3-4 1 6-7z" fill="#CAA8CA"/>
<path transform="translate(1262,652)" d="m0 0 6 2 13 8-2 1-9-5-5-2v-2l-3-1z" fill="#E9C0E9"/>
<path transform="translate(1144,981)" d="m0 0v3l-9 9h-2v3l-4-1 5-4z" fill="#AB69AA"/>
<path transform="translate(1072,712)" d="m0 0 2 1-3 4-2 5-4 2-2 2 1-4h2l1-4h2l1-4z" fill="#8E7298"/>
<path transform="translate(407,974)" d="m0 0h1l2 16v5l-5-4 2-1z" fill="#324955"/>
<path transform="translate(1174,652)" d="m0 0 4 1-6 4h-2v-2l-8 1 3-2z" fill="#B282B3"/>
<path transform="translate(1653,877)" d="m0 0 11 6 4 4-6-2-9-5z" fill="#E0A8DF"/>
<path transform="translate(889,952)" d="m0 0 4 2 11 6-4 1-10-6z" fill="#A760A6"/>
<path transform="translate(1163,842)" d="m0 0 5 2 9 5-4 1-9-5z" fill="#AA67A9"/>
<path transform="translate(1167,655)" d="m0 0h3v2l-3 2-7 1-2 1 1-4z" fill="#1B2B34"/>
<path transform="translate(1186,1034)" d="m0 0 6 1 9 5-1 2-5-2-9-5z" fill="#DDA1DE"/>
<path transform="translate(633,893)" d="m0 0 2 1-5 6-6 3-2-1 1-3 6-1z" fill="#EBC1EB"/>
<path transform="translate(1087,1409)" d="m0 0 4 1-13 7-4-1 12-6z" fill="#AD6FAC"/>
<path transform="translate(735,1039)" d="m0 0 3 1-9 9-1-3 5-5z" fill="#BF7EBF"/>
<path transform="translate(1458,765)" d="m0 0 5 2 9 6-3 1-6-4-5-3z" fill="#E2ACE2"/>
<path transform="translate(725,674)" d="m0 0 3 1 4 6 5 4-1 2-8-7-3-4z" fill="#DB9ADC"/>
<path transform="translate(1131,825)" d="m0 0h5l6 4 1 3-5-2-7-4z" fill="#A760A6"/>
<path transform="translate(919,716)" d="m0 0 8 1 3 1v2l2 1-9-2-4-1z" fill="#A65EA5"/>
<path transform="translate(907,1385)" d="m0 0 5 5 6 5-2 1-9-7z" fill="#DAA4DB"/>
<path transform="translate(1548,1201)" d="m0 0 3 1-13 5-4-1 3-2 8-2z" fill="#D991D9"/>
<path transform="translate(720,1051)" d="m0 0h5l-2 5-5 1z" fill="#B06FAF"/>
<path transform="translate(364,964)" d="m0 0h3v2l5 1 4 6-4-2-8-6z" fill="#263A44"/>
<path transform="translate(1586,839)" d="m0 0 6 2 8 5v2l-5-2-9-6z" fill="#EBCAEB"/>
<path transform="translate(1372,1391)" d="m0 0 2 1z" fill="#FDFDFD"/>
</svg>
